<svg id="Layer_1" data-name="Layer 1" xmlns="http://www.w3.org/2000/svg" viewBox="0 0 2000 2000"><defs><style>.cls-1{opacity:0.1;}.cls-2{fill:#727272;}.cls-3{fill:#e8e1df;}.cls-4{fill:#d7d0ce;}.cls-5{fill:#9d9996;}.cls-22,.cls-6{fill:#c1bdba;}.cls-7{fill:#aba7a3;}.cls-8{fill:#b1aca9;}.cls-9{fill:#232b38;}.cls-10{opacity:0.41;}.cls-11{fill:#f4a017;}.cls-12{fill:#20160d;}.cls-13{fill:#354154;opacity:0.75;}.cls-14{fill:#3d4046;opacity:0.24;}.cls-15{fill:#888482;}.cls-16{opacity:0.44;}.cls-17{opacity:0.42;}.cls-18{fill:#faf2f0;}.cls-19{opacity:0.17;}.cls-20{fill:#5d5d5d;}.cls-21{fill:#fff;}.cls-22{opacity:0.58;}.cls-23{fill:#93908e;}.cls-24{opacity:0.2;}.cls-25{fill:#f0ebe7;}.cls-26{fill:#979592;}.cls-27{opacity:0.43;}.cls-28,.cls-29{fill:#b9aaa2;}.cls-28{opacity:0.87;}.cls-30{fill:#dcd6d3;}.cls-31{opacity:0.7;}.cls-32{fill:#ebe5e3;}.cls-33{fill:#e99e18;}.cls-34,.cls-35,.cls-41{fill:#3f3f3f;}.cls-34{opacity:0.22;}.cls-36{fill:#2b2b2b;}.cls-37{fill:#2d2d2e;}.cls-38{fill:#5c5b5c;}.cls-39{fill:#989798;}.cls-40{fill:#817d81;}.cls-41{opacity:0.12;}</style></defs><title>Artboard 2</title><g class="cls-1"><path class="cls-2" d="M559,1232l126.21,153.91a19.06,19.06,0,0,0,22.85,5.15l396.72-187a9,9,0,0,0-1.44-16.85l-266.07-73.83Z"/><path class="cls-2" d="M309.23,1320.71,1173.81,918.6a34.75,34.75,0,0,1,39.36,7.08h0a34.74,34.74,0,0,1-9.78,55.78L343.86,1390.53a34.73,34.73,0,0,1-43-10.94l-5.06-7A34.74,34.74,0,0,1,309.23,1320.71Z"/><path class="cls-2" d="M1490.85,1381.51,1592,1336.05l125.8,38.91a10.33,10.33,0,0,1,2.28,18.71l-110.61,66.69a10.35,10.35,0,0,1-10.78-.07Z"/><path class="cls-2" d="M669.29,1691.32l715.35-311.78,191,98.46a8.62,8.62,0,0,1,.43,15.08L957.23,1857.21a15.3,15.3,0,0,1-15.7-.11Z"/></g><path class="cls-3" d="M699.37,1104,539,1177.13a15.87,15.87,0,0,0-3.06,27l170,130.14a56.77,56.77,0,0,0,58.06,6.57l244-111.27c13.16-6,15.25-32.59,1.51-37.09l-298.58-89.17A15.87,15.87,0,0,0,699.37,1104Z"/><path class="cls-4" d="M710.89,1103.36a15.87,15.87,0,0,0-11.52.64L539,1177.13a15.88,15.88,0,0,0-3.06,27l170,130.14a56.74,56.74,0,0,0,49.12,9.74V1116.55Z"/><path class="cls-5" d="M710.89,1103.36a15.87,15.87,0,0,0-11.52.64L539,1177.13a15.88,15.88,0,0,0-3.06,27l170,130.14a57.9,57.9,0,0,0,6.39,4.23V1103.79Z"/><path class="cls-6" d="M699.37,1093,539,1166.12a15.88,15.88,0,0,0-3.06,27.06l170,130.13a56.74,56.74,0,0,0,58.06,6.57l244-111.27c13.16-6,12.1-25-1.65-29.54l-295.42-96.72A15.82,15.82,0,0,0,699.37,1093Z"/><path class="cls-7" d="M728.29,1098.32a15.9,15.9,0,0,0-11.53.64l-160.33,73.13c-10.9,5-16.79,26.06-7.28,33.34L652.51,1283l223.18-136.37Z"/><path class="cls-6" d="M274.88,582.08v736.05c0,22.25,35.23,48.55,55.48,39.32l860.2-413.27a30.58,30.58,0,0,0,17.88-27.82l17.58-757c0-22.25-40.59-34.77-60.83-25.54l-855.46,394A59.59,59.59,0,0,0,274.88,582.08Z"/><path class="cls-8" d="M309.06,528.22a59.54,59.54,0,0,0-34.18,53.86v736.05c0,22.25,35.23,48.55,55.48,39.32l85.46-41.06V544.53Z"/><path class="cls-9" d="M296.75,595.45V1331.5A30.56,30.56,0,0,0,340,1359.31l872.42-401.76a30.57,30.57,0,0,0,17.88-27.81V175a30.56,30.56,0,0,0-43.25-27.81l-855.45,394A59.57,59.57,0,0,0,296.75,595.45Z"/><path class="cls-9" d="M1187.05,147.23l-855.45,394a59.57,59.57,0,0,0-34.85,54.2V1331.5A30.56,30.56,0,0,0,340,1359.31l872.42-401.76a30.57,30.57,0,0,0,17.88-27.81V175A30.56,30.56,0,0,0,1187.05,147.23Zm6.61,657a12.75,12.75,0,0,1-7.47,11.61L355.44,1194.73a12.76,12.76,0,0,1-18.06-11.61V593a12.76,12.76,0,0,1,7.47-11.61L1175.6,202.5a12.76,12.76,0,0,1,18.06,11.61Z"/><path class="cls-3" d="M296.75,1331.5A30.56,30.56,0,0,0,340,1359.31l872.42-401.76a30.57,30.57,0,0,0,17.88-27.81V830.52L296.75,1260.17Z"/><g class="cls-10"><path class="cls-7" d="M1212.42,946.52,340,1348.28a30.56,30.56,0,0,1-43.25-27.81v11A30.56,30.56,0,0,0,340,1359.31l872.42-401.76a30.57,30.57,0,0,0,17.88-27.81v-11A30.57,30.57,0,0,1,1212.42,946.52Z"/></g><path class="cls-11" d="M337.38,593v590.09a12.76,12.76,0,0,0,18.06,11.61l830.75-378.92a12.75,12.75,0,0,0,7.47-11.61V214.11a12.76,12.76,0,0,0-18.06-11.61L344.85,581.42A12.76,12.76,0,0,0,337.38,593Z"/><path class="cls-12" d="M399.86,638.89C384,708.14,401.07,775.4,439.49,816.31c-27.59-42.22-37.32-107.62-21.63-176,11.21-48.84,33.45-90.66,61-120l-15.5,7.07C433.63,554.15,410.4,593,399.86,638.89Z"/><path class="cls-12" d="M660.31,542.12c19.08,41.49,24.28,97.84,10.85,156.34-15.68,68.36-53,123-96.19,148.94C627.38,827.34,672.1,774.27,688,705,702.12,643.43,690.16,583.42,660.31,542.12Z"/><path class="cls-13" d="M771.23,1083.22v18.39a10.24,10.24,0,0,0,14.49,9.31l14-6.39a10.23,10.23,0,0,0,6-9.31v-18.39a10.23,10.23,0,0,0-14.48-9.31l-14,6.39A10.22,10.22,0,0,0,771.23,1083.22Z"/><path class="cls-14" d="M1654.39,1378a13.16,13.16,0,0,0-5.46-10.75h0c-1.64-1.18-3.27-2.33-4.91-3.45l-1.07-.74c-1.61-1.1-3.23-2.19-4.83-3.24l-.58-.37q-2.29-1.5-4.59-2.92l-.71-.44q-2.49-1.54-5-3l-.55-.33q-5.18-3-10.28-5.75l-.29-.16a271.18,271.18,0,0,0-82.05-28.13h0a194,194,0,0,0-33.48-3h-1.29l-.69,0c-.92,0-2.5.16-4.64.44-1.78.24-4,.6-6.46,1.14-1.5.32-3.13.71-4.86,1.17a109.06,109.06,0,0,0-11.6,3.83q-4.24,1.65-8.9,3.89c-3.1,1.5-6.32,3.22-9.63,5.18a146.15,146.15,0,0,0-22.31,15.79l-1.27,1.15c-.81.74-1.55,1.45-2.22,2.12l-1,1c-.3.32-.59.62-.86.92a3.67,3.67,0,0,0-.53,4.25,5.31,5.31,0,0,0,.75,3,5.11,5.11,0,0,0,2.72,5.57c12.23,5.94,147.93,57.88,156.33,59s26.08.46,52.54-16c17.9-11.12,19.27-20.47,18.28-25.36A12,12,0,0,0,1654.39,1378Z"/><path class="cls-15" d="M1439.39,1367.55c12.23,5.94,147.93,57.88,156.33,59s26.08.46,52.55-16,16.79-29,16.79-29l-75.82-26.77-124.58-11s-17.93,5.82-25.24,12.94C1435.93,1360.1,1435.43,1365.63,1439.39,1367.55Z"/><path class="cls-6" d="M1439.19,1364.22c12.23,5.94,146.12,57.23,156.33,59s26.08.46,52.54-16,16.8-29,16.8-29L1589,1351.45l-124.58-11s-18.33,6.24-25.86,13.26C1434.78,1357.25,1435.07,1362.22,1439.19,1364.22Z"/><path class="cls-3" d="M1662.42,1389.18a13.13,13.13,0,0,0-2-19.58c-74.56-53.73-146.24-51.58-149.38-51.5,0,0-20.52,0-47,15.68-15,8.89-23.27,16.24-27.61,21a3.68,3.68,0,0,0,2.34,6.16c22.61,2.31,81.93,5.88,146.11,53.91a20.31,20.31,0,0,0,15.21,3.88c8.57-1.29,22.55-4.6,39.28-13.13C1650.7,1399.79,1657.88,1394,1662.42,1389.18Z"/><g class="cls-16"><path class="cls-6" d="M1477.79,1336.85c28-16.56,49.61-16.55,49.61-16.55a159.77,159.77,0,0,1,18.22.76c-20.16-3.38-33.24-3-34.54-3,0,0-20.52,0-47,15.68-15,8.89-23.27,16.24-27.61,21a3.68,3.68,0,0,0,2.34,6.16c2.51.26,5.48.53,8.85.87a3.83,3.83,0,0,1,1-2.81C1453.24,1354,1462,1346.23,1477.79,1336.85Z"/></g><g class="cls-17"><path class="cls-18" d="M1660.46,1369.6a283.11,283.11,0,0,0-43.21-25.68,72.65,72.65,0,0,1-26.94,22.4c-20.08,10-42.11,15-57.66,17.56a275.44,275.44,0,0,1,52.25,30.92,20.31,20.31,0,0,0,15.21,3.88c8.57-1.29,22.55-4.6,39.28-13.13,11.31-5.76,18.49-11.53,23-16.37A13.13,13.13,0,0,0,1660.46,1369.6Z"/></g><g class="cls-19"><path class="cls-20" d="M1666,1387.86l-.27.68a12.49,12.49,0,0,1-1,1.91,12.17,12.17,0,0,1-.92,1.29c-.36.47-.8.93-1.23,1.39-.9.95-2,2-3.22,3.16a80.83,80.83,0,0,1-9.63,7.39,113.77,113.77,0,0,1-13.69,7.67,140.61,140.61,0,0,1-17.21,7c-3.13,1-6.39,2-9.77,2.81-1.68.42-3.41.77-5.15,1.11a50.4,50.4,0,0,1-5.44.79,21.9,21.9,0,0,1-11.28-2.46,20,20,0,0,1-2.54-1.54l-2.27-1.62-4.54-3.26c-6.11-4.17-12.49-8.23-19-12s-13.21-7.35-19.9-10.63-13.39-6.24-19.95-8.9-13-5.06-19.19-7a155,155,0,0,0-17.75-4.2c-11.17-2.08-20.56-3.56-27.13-4.55l-10.33-1.48h0a.77.77,0,0,1-.65-.87.76.76,0,0,1,.84-.66l10.4,1.2c6.61.83,16.05,1.93,27.33,3.86a160.9,160.9,0,0,1,18.12,4c6.32,1.85,12.87,4.14,19.52,6.81s13.42,5.64,20.2,8.89,13.53,6.85,20.17,10.64,13,8,19.26,12.27l4.52,3.28,2.23,1.62a18.62,18.62,0,0,0,2.17,1.34,18.85,18.85,0,0,0,9.65,2.15,44.7,44.7,0,0,0,5-.71q2.55-.48,5-1,5-1.12,9.59-2.59a138.17,138.17,0,0,0,17-6.58,127,127,0,0,0,13.61-7.23,79.67,79.67,0,0,0,9.57-7,33.59,33.59,0,0,0,5.25-5.31,11.33,11.33,0,0,0,.94-1.66l.27-.61v0a.77.77,0,0,1,1-.4A.77.77,0,0,1,1666,1387.86Z"/></g><path class="cls-21" d="M1665.79,1385.22l-.27.68a13,13,0,0,1-1,1.92,13.28,13.28,0,0,1-.92,1.29c-.36.46-.8.92-1.23,1.38-.9,1-2,2-3.22,3.16a81.86,81.86,0,0,1-9.63,7.4,115.16,115.16,0,0,1-13.69,7.67,142.23,142.23,0,0,1-17.21,7c-3.13,1-6.39,2-9.77,2.81-1.68.42-3.41.78-5.15,1.11a48,48,0,0,1-5.44.79A21.89,21.89,0,0,1,1587,1418a22.59,22.59,0,0,1-2.54-1.54l-2.27-1.63-4.54-3.26c-6.1-4.17-12.49-8.22-19-12s-13.21-7.35-19.9-10.63-13.39-6.24-20-8.91-13-5.06-19.19-7a155,155,0,0,0-17.75-4.2c-11.17-2.08-20.56-3.56-27.12-4.54l-10.34-1.49h0a.77.77,0,0,1,.2-1.52l10.39,1.19c6.61.83,16.06,1.94,27.33,3.86a161,161,0,0,1,18.12,4c6.32,1.85,12.87,4.13,19.52,6.8s13.42,5.65,20.2,8.89,13.53,6.85,20.17,10.64,13,8,19.26,12.28l4.52,3.28,2.23,1.62a20,20,0,0,0,2.17,1.33,18.66,18.66,0,0,0,9.66,2.15,44.53,44.53,0,0,0,5-.71q2.55-.46,5-1c3.3-.74,6.5-1.62,9.59-2.58a140.6,140.6,0,0,0,17-6.59,125.93,125.93,0,0,0,13.6-7.23,79.67,79.67,0,0,0,9.57-7,33.59,33.59,0,0,0,5.25-5.31,11.34,11.34,0,0,0,.94-1.65l.27-.61v0a.77.77,0,0,1,1.42.59Z"/><path class="cls-22" d="M1611.65,1372.43l-8.44,4.35a4.36,4.36,0,0,0-.57,7.39l7,5.09a8.07,8.07,0,0,0,8.48.62l6.35-3.33a4.35,4.35,0,0,0,.54-7.37l-8.78-6.4A4.35,4.35,0,0,0,1611.65,1372.43Z"/><path class="cls-14" d="M1198.8,1351.27,589.92,1674.71a11.43,11.43,0,0,0,1.21,20.75l311.2,121.17a11.45,11.45,0,0,0,9.52-.56l608.88-323.43a11.44,11.44,0,0,0-1.22-20.76l-311.2-121.16A11.42,11.42,0,0,0,1198.8,1351.27Z"/><polygon class="cls-23" points="758.88 1651.57 660.83 1703.65 680.15 1721.83 778.2 1669.75 758.88 1651.57"/><path class="cls-3" d="M1281.24,1332.4,648,1662.6c-4.23,2.25-3.52,14.4,1,16.14l248.87,136.79a23.65,23.65,0,0,0,19.65-1.15l628.05-333.62c4.25-2.26,4.4-14-.08-15.7L1291.1,1331.82A11.85,11.85,0,0,0,1281.24,1332.4Z"/><ellipse class="cls-6" cx="661.99" cy="1692.22" rx="29.9" ry="34.96" transform="translate(-984.31 923.1) rotate(-43.59)"/><path class="cls-6" d="M1280.76,1324.43,647.9,1660.61a5.6,5.6,0,0,0,.6,10.17l248.87,136.78a23.58,23.58,0,0,0,19.65-1.15l628.05-333.61a5.63,5.63,0,0,0-.6-10.22l-253.86-138.72A11.87,11.87,0,0,0,1280.76,1324.43Z"/><g class="cls-24"><path class="cls-25" d="M1544.47,1462.58l-133-72.66L729.13,1715.09l168.24,92.47a23.58,23.58,0,0,0,19.65-1.15l628.05-333.61A5.63,5.63,0,0,0,1544.47,1462.58Z"/></g><path class="cls-26" d="M1301.84,1583l-191.35,101.62c-3.57,1.89-9.08,2-12.25.28l-24.7-13.5a4.19,4.19,0,0,1-1.91-1.89c-1.06,1.61-.57,3.39,1.62,4.59l24.7,13.51c3.17,1.73,8.69,1.6,12.25-.29l191.35-101.62c2.47-1.31,3.34-3.13,2.62-4.7A6.3,6.3,0,0,1,1301.84,1583Z"/><path class="cls-26" d="M1402.64,1529.47l-23,12.24c-3.57,1.89-9.08,2-12.25.28l-24.7-13.5a4.19,4.19,0,0,1-1.91-1.89c-1.06,1.61-.57,3.39,1.62,4.59l24.7,13.51c3.17,1.73,8.69,1.6,12.25-.29l23-12.24c2.46-1.31,3.33-3.13,2.61-4.7A6.22,6.22,0,0,1,1402.64,1529.47Z"/><path class="cls-26" d="M1086.84,1697.19l-29.29,15.55c-3.56,1.89-9.08,2-12.25.29l-24.7-13.5a4.25,4.25,0,0,1-1.91-1.9c-1.06,1.62-.57,3.4,1.62,4.6l24.7,13.5c3.18,1.74,8.69,1.61,12.26-.29l29.28-15.55c2.47-1.31,3.34-3.13,2.61-4.7A6.18,6.18,0,0,1,1086.84,1697.19Z"/><path class="cls-26" d="M1355.94,1554.27l-30.45,16.17c-3.57,1.9-9.08,2-12.25.29l-24.7-13.5a4.28,4.28,0,0,1-1.91-1.89c-1.06,1.61-.57,3.39,1.62,4.59l24.7,13.5c3.18,1.74,8.69,1.61,12.25-.28l30.46-16.18c2.47-1.31,3.34-3.13,2.61-4.7A6.14,6.14,0,0,1,1355.94,1554.27Z"/><path class="cls-26" d="M913.87,1739a6.12,6.12,0,0,1-2.34,2l-47.77,25.36c-3.56,1.9-9.07,2-12.25.29l-19.89-10.88a4.19,4.19,0,0,1-1.91-1.89c-1.06,1.61-.57,3.4,1.62,4.6l19.9,10.87c3.17,1.74,8.68,1.61,12.25-.28l47.76-25.37C913.71,1742.36,914.58,1740.53,913.87,1739Z"/><path class="cls-26" d="M1033.9,1725.3l-25.31,13.44c-3.56,1.9-9.07,2-12.25.29l-24.7-13.5a4.3,4.3,0,0,1-1.91-1.9c-1.06,1.62-.57,3.4,1.62,4.6l24.71,13.5c3.17,1.74,8.68,1.61,12.25-.28l25.3-13.44c2.47-1.31,3.34-3.13,2.62-4.71A6.12,6.12,0,0,1,1033.9,1725.3Z"/><path class="cls-26" d="M984.94,1751.3,962.86,1763c-3.57,1.9-9.08,2-12.26.29l-24.7-13.5a4.3,4.3,0,0,1-1.91-1.9c-1,1.62-.57,3.4,1.63,4.6l24.7,13.5c3.17,1.74,8.68,1.61,12.25-.28L984.65,1754c2.47-1.31,3.34-3.13,2.62-4.71A6,6,0,0,1,984.94,1751.3Z"/><path class="cls-26" d="M939.2,1775.6l-29.67,15.75c-3.56,1.9-9.08,2-12.25.29l-24.7-13.5a4.25,4.25,0,0,1-1.91-1.9c-1.06,1.62-.57,3.4,1.62,4.6l24.7,13.5c3.18,1.74,8.69,1.61,12.26-.28l29.67-15.76c2.46-1.31,3.33-3.13,2.61-4.7A6.22,6.22,0,0,1,939.2,1775.6Z"/><path class="cls-26" d="M1135.85,1513.87l13.83,7.56a26.54,26.54,0,0,0,6.25,2.28,12.91,12.91,0,0,0,7-1.74l24.43-13c2.47-1.31,3.34-3.13,2.62-4.7a6.3,6.3,0,0,1-2.33,2l-24.43,13a13,13,0,0,1-7,1.75,26.92,26.92,0,0,1-6.24-2.28l-13.84-7.57a4.24,4.24,0,0,1-1.91-1.89C1133.17,1510.88,1133.65,1512.67,1135.85,1513.87Z"/><path class="cls-26" d="M1086.14,1540.26l14.91,8.15a13.92,13.92,0,0,0,6.08,1.71,14.45,14.45,0,0,0,6.32-1.89l26.07-13.85c2.47-1.31,3.34-3.12,2.62-4.7a6.21,6.21,0,0,1-2.33,2l-26.07,13.85a14.47,14.47,0,0,1-6.33,1.89,14.06,14.06,0,0,1-6.07-1.71l-14.91-8.15a4.2,4.2,0,0,1-1.91-1.9C1083.46,1537.28,1084,1539.06,1086.14,1540.26Z"/><path class="cls-26" d="M1036.66,1566.54l15.08,8.24c3.17,1.74,8.69,1.61,12.25-.28l25.83-13.72c2.47-1.31,3.34-3.13,2.62-4.7a6.3,6.3,0,0,1-2.33,2l-25.83,13.71c-3.57,1.9-9.08,2-12.26.29l-15.07-8.24a4.2,4.2,0,0,1-1.91-1.9C1034,1563.56,1034.47,1565.34,1036.66,1566.54Z"/><path class="cls-26" d="M1288.9,1452.5l-26,13.78c-3.57,1.9-9.08,2-12.26.29l-15.07-8.24a4.2,4.2,0,0,1-1.91-1.9c-1.06,1.62-.57,3.4,1.62,4.6l15.08,8.24c3.17,1.74,8.69,1.61,12.25-.28l25.95-13.79c2.47-1.31,3.34-3.12,2.62-4.7A6.21,6.21,0,0,1,1288.9,1452.5Z"/><path class="cls-26" d="M1183.66,1488.47l15,8.22a11.61,11.61,0,0,0,6.38,1.34s2.35.3,5.91-1.6l28-14.88c2.46-1.31,3.34-3.13,2.61-4.71a6,6,0,0,1-2.33,2l-28,14.89c-3.56,1.89-5.89,1.6-5.9,1.6A11.86,11.86,0,0,1,1199,1494l-15-8.22a4.16,4.16,0,0,1-1.9-1.89C1181,1485.49,1181.46,1487.28,1183.66,1488.47Z"/><path class="cls-26" d="M1342.13,1468.13l-28.55,15.17c-3.57,1.89-9.08,2-12.26.28l-19.67-10.75a4.21,4.21,0,0,1-1.9-1.89c-1.06,1.61-.57,3.4,1.62,4.59l19.67,10.76c3.17,1.73,8.68,1.6,12.25-.29l28.56-15.17c2.47-1.31,3.34-3.13,2.61-4.7A6.14,6.14,0,0,1,1342.13,1468.13Z"/><path class="cls-26" d="M1003.63,1513.92l6.81,3.72c3.17,1.73,8.69,1.6,12.25-.29l32-17c2.47-1.31,3.34-3.13,2.62-4.71a6.12,6.12,0,0,1-2.33,2l-32,17c-3.57,1.89-9.08,2-12.26.28l-6.8-3.72a4.19,4.19,0,0,1-1.91-1.89C1001,1510.93,1001.44,1512.72,1003.63,1513.92Z"/><path class="cls-26" d="M1161.21,1430.23,1168,1434c3.18,1.73,8.69,1.6,12.25-.29l32.65-17.34c2.47-1.31,3.34-3.13,2.62-4.7a6.3,6.3,0,0,1-2.33,2L1180.56,1431c-3.56,1.89-9.08,2-12.25.28l-6.81-3.72a4.24,4.24,0,0,1-1.91-1.89C1158.53,1427.24,1159,1429,1161.21,1430.23Z"/><path class="cls-26" d="M1266.74,1374.18l6.81,3.72c3.17,1.74,8.69,1.61,12.25-.28l29.65-15.75c2.47-1.31,3.34-3.13,2.62-4.7a6.3,6.3,0,0,1-2.33,2l-29.65,15.74c-3.57,1.9-9.08,2-12.25.29l-6.81-3.72a4.2,4.2,0,0,1-1.91-1.9C1264.06,1371.2,1264.55,1373,1266.74,1374.18Z"/><path class="cls-26" d="M1217.52,1400.33l6.8,3.72c3.18,1.73,8.69,1.6,12.25-.29l25.58-13.58c2.47-1.31,3.34-3.13,2.62-4.71a6.12,6.12,0,0,1-2.33,2l-25.58,13.59c-3.56,1.89-9.08,2-12.25.28l-6.81-3.72a4.24,4.24,0,0,1-1.91-1.89C1214.83,1397.34,1215.32,1399.13,1217.52,1400.33Z"/><path class="cls-26" d="M1109.89,1457.48l6.81,3.72c3.17,1.74,8.69,1.61,12.25-.28l27.67-14.7c2.47-1.31,3.34-3.13,2.62-4.7a6.3,6.3,0,0,1-2.33,2l-27.68,14.7c-3.56,1.89-9.07,2-12.25.28l-6.8-3.72a4.19,4.19,0,0,1-1.91-1.89C1107.21,1454.5,1107.7,1456.28,1109.89,1457.48Z"/><path class="cls-26" d="M1059.26,1484.37l6.81,3.72c3.18,1.74,8.69,1.61,12.25-.29l27-14.32c2.46-1.31,3.33-3.13,2.61-4.7a6.22,6.22,0,0,1-2.33,2l-27,14.32c-3.56,1.89-9.08,2-12.25.29l-6.81-3.72a4.3,4.3,0,0,1-1.91-1.9C1056.58,1481.39,1057.07,1483.17,1059.26,1484.37Z"/><path class="cls-26" d="M1470.81,1443.94l-89,47.24c-3.56,1.9-6.18,1.67-6.27,1.61a14.87,14.87,0,0,1-6.43-1.64l-19.37-10.59a4.25,4.25,0,0,1-1.91-1.9c-1.06,1.62-.57,3.4,1.62,4.6l19.38,10.59a14.65,14.65,0,0,0,6.43,1.64c.08.06,2.7.29,6.27-1.6l89-47.25c2.47-1.31,3.34-3.13,2.62-4.7A6.21,6.21,0,0,1,1470.81,1443.94Z"/><path class="cls-26" d="M895,1704.8a6,6,0,0,1-2.33,2l-69.43,36.88a18.85,18.85,0,0,1-6.94,2,10,10,0,0,1-5.74-1.47l-19.72-10.78a4.24,4.24,0,0,1-1.91-1.89c-1.05,1.62-.57,3.4,1.63,4.6L810.32,1747a10.16,10.16,0,0,0,5.73,1.47,19.13,19.13,0,0,0,6.94-2l69.43-36.87C894.89,1708.21,895.76,1706.38,895,1704.8Z"/><path class="cls-26" d="M1353,1379.52l-60.2,32c-3.56,1.89-9,2-12.17.12l-15.42-9a4.32,4.32,0,0,1-1.87-2c-1,1.63-.55,3.44,1.59,4.68l15.42,9c3.12,1.83,8.6,1.78,12.17-.12l60.19-32c2.47-1.31,3.34-3.13,2.62-4.7A6.21,6.21,0,0,1,1353,1379.52Z"/><path class="cls-26" d="M1429.85,1421.55l-10.21,5.42c-3.57,1.89-9.08,2-12.25.29l-27.72-15.16c-3.18-1.73-6.51-3.62-8.76-3.14s-4.46,2.35-8,4.25c0,0-5.2,2.57-7.62,2.3s-3-.4-6.15-2.14l-14.21-7.77a4.19,4.19,0,0,1-1.91-1.89c-1.06,1.61-.57,3.4,1.62,4.59l14.21,7.77c3.17,1.74,3.73,1.88,6.15,2.15s7.63-2.31,7.63-2.31c3.56-1.89,5.78-3.76,8-4.25s5.59,1.41,8.76,3.14L1407.1,1430c3.17,1.73,8.69,1.6,12.25-.29l10.21-5.42c2.47-1.31,3.34-3.13,2.62-4.7A6.3,6.3,0,0,1,1429.85,1421.55Z"/><path class="cls-26" d="M747.25,1650.08l6.8,3.72c3.18,1.73,8.69,1.61,12.26-.29L794,1638.82c2.46-1.31,3.34-3.13,2.61-4.71a6,6,0,0,1-2.33,2l-27.67,14.7c-3.56,1.89-9.08,2-12.25.29l-6.81-3.72a4.22,4.22,0,0,1-1.9-1.9C744.57,1647.1,745.05,1648.88,747.25,1650.08Z"/><path class="cls-26" d="M775.38,1685.51a6.3,6.3,0,0,1-2.33,2l-27.13,14.4c-3.56,1.9-9.07,2-12.25.29l-16.16-8.84a4.19,4.19,0,0,1-1.91-1.89c-1.06,1.61-.57,3.4,1.62,4.6l16.16,8.83c3.18,1.74,8.69,1.61,12.26-.29l27.12-14.4C775.23,1688.9,776.1,1687.08,775.38,1685.51Z"/><path class="cls-26" d="M798.57,1622.82l6.81,3.72c3.17,1.74,8.69,1.61,12.25-.29l27.67-14.69c2.47-1.31,3.34-3.13,2.62-4.7a6.3,6.3,0,0,1-2.33,2l-27.67,14.69c-3.57,1.9-9.08,2-12.26.29l-6.8-3.72a4.2,4.2,0,0,1-1.91-1.9C795.89,1619.84,796.38,1621.62,798.57,1622.82Z"/><path class="cls-26" d="M986.9,1593l15.08,8.24c3.17,1.74,8.69,1.61,12.25-.29l26.11-13.86c2.46-1.31,3.34-3.13,2.61-4.7a6.22,6.22,0,0,1-2.33,2l-26.1,13.86c-3.57,1.89-9.08,2-12.26.29l-15.07-8.25a4.19,4.19,0,0,1-1.91-1.89C984.22,1590,984.71,1591.77,986.9,1593Z"/><path class="cls-26" d="M843.53,1688.27a6.3,6.3,0,0,1-2.33,2l-59.13,31.4c-3.57,1.89-9.08,2-12.26.29l-15.07-8.24a4.25,4.25,0,0,1-1.91-1.9c-1.06,1.62-.57,3.4,1.62,4.6l15.08,8.24c3.17,1.74,8.69,1.61,12.25-.29l59.13-31.4C843.38,1691.66,844.25,1689.84,843.53,1688.27Z"/><path class="cls-26" d="M952.54,1541.05l6.81,3.72c3.17,1.73,8.69,1.61,12.25-.29L999,1529.91c2.46-1.31,3.34-3.13,2.61-4.7a6.14,6.14,0,0,1-2.33,2l-27.43,14.57c-3.57,1.89-9.08,2-12.25.29l-6.81-3.72a4.25,4.25,0,0,1-1.91-1.9C949.86,1538.07,950.35,1539.85,952.54,1541.05Z"/><path class="cls-26" d="M849.89,1595.56l6.81,3.72c3.18,1.74,8.69,1.61,12.25-.28l27.67-14.7c2.47-1.31,3.34-3.13,2.62-4.7a6.22,6.22,0,0,1-2.33,2l-27.67,14.7c-3.56,1.89-9.08,2-12.25.28l-6.81-3.72a4.24,4.24,0,0,1-1.91-1.89C847.21,1592.58,847.7,1594.36,849.89,1595.56Z"/><path class="cls-26" d="M901.22,1568.31,908,1572c3.17,1.73,8.68,1.6,12.25-.29L948,1557c2.46-1.3,3.34-3.12,2.61-4.7a6.05,6.05,0,0,1-2.33,2L920.56,1569c-3.56,1.89-9.07,2-12.25.28l-6.81-3.72a4.21,4.21,0,0,1-1.9-1.89C898.54,1565.32,899,1567.11,901.22,1568.31Z"/><path class="cls-26" d="M746,1662.72a1.71,1.71,0,0,0-.4-1.4,9.44,9.44,0,0,1-2.91,2.19l-34,18c-3.56,1.89-9.08,2-12.25.29l-6.81-3.73a4.21,4.21,0,0,1-1.9-1.89c-1.06,1.62-.58,3.4,1.62,4.6l6.8,3.72c3.18,1.73,8.69,1.61,12.26-.29l34-18C746,1664.32,746,1662.75,746,1662.72Z"/><path class="cls-26" d="M960.8,1714.8l-25.62,13.6c-3.56,1.9-9.08,2-12.25.29L903,1717.81a4.21,4.21,0,0,1-1.9-1.89c-1.06,1.62-.58,3.4,1.62,4.6l19.89,10.87c3.18,1.74,8.69,1.61,12.26-.28l25.62-13.61c2.46-1.31,3.34-3.13,2.61-4.7A6.14,6.14,0,0,1,960.8,1714.8Z"/><path class="cls-26" d="M884.16,1686.49l19.66,10.75c3.18,1.74,8.69,1.61,12.26-.29l25.76-13.68c2.47-1.31,3.34-3.13,2.62-4.7a6.22,6.22,0,0,1-2.33,2l-25.77,13.68c-3.56,1.89-9.07,2-12.25.29l-19.67-10.75a4.22,4.22,0,0,1-1.9-1.9C881.48,1683.51,882,1685.29,884.16,1686.49Z"/><path class="cls-26" d="M837.63,1672.25l15.07,8.24c3.18,1.73,8.69,1.6,12.26-.29l26.1-13.86c2.47-1.31,3.34-3.13,2.62-4.71a6.12,6.12,0,0,1-2.33,2l-26.11,13.87c-3.56,1.89-9.08,2-12.25.28l-15.08-8.24a4.24,4.24,0,0,1-1.91-1.89C835,1669.26,835.43,1671.05,837.63,1672.25Z"/><path class="cls-26" d="M1010.56,1688.37l-26.11,13.87a18,18,0,0,1-7,2,13,13,0,0,1-5.3-1.79l-19.83-10.84a4.24,4.24,0,0,1-1.91-1.89c-1.06,1.62-.57,3.4,1.62,4.6l19.83,10.84a13.3,13.3,0,0,0,5.31,1.79,18.25,18.25,0,0,0,7-2l26.12-13.87c2.46-1.31,3.34-3.13,2.61-4.7A6.14,6.14,0,0,1,1010.56,1688.37Z"/><path class="cls-26" d="M822.8,1661.08,796.7,1675c-3.56,1.89-9.08,2-12.25.28l-16.17-8.83a4.22,4.22,0,0,1-1.9-1.9c-1.06,1.62-.58,3.4,1.62,4.6l16.16,8.83c3.18,1.74,8.69,1.61,12.25-.28l26.11-13.87c2.46-1.31,3.34-3.12,2.61-4.7A6.05,6.05,0,0,1,822.8,1661.08Z"/><path class="cls-26" d="M867.46,1616.37l15.61,9c3.15,1.8,8.63,1.72,12.2-.17L922,1610.93c2.46-1.31,3.33-3.13,2.61-4.7a6.22,6.22,0,0,1-2.33,2l-26.77,14.22c-3.56,1.89-9,2-12.19.16l-15.62-8.95a4.2,4.2,0,0,1-1.88-2C864.83,1613.33,865.3,1615.13,867.46,1616.37Z"/><path class="cls-26" d="M840,1653.24a15.89,15.89,0,0,0,6.17-2l26.12-13.87c2.46-1.31,3.34-3.13,2.61-4.71a6.14,6.14,0,0,1-2.33,2l-26.11,13.86a15.88,15.88,0,0,1-6.18,2,14.57,14.57,0,0,1-6.13-1.77L818,1640a4.24,4.24,0,0,1-1.91-1.89c-1,1.61-.57,3.39,1.63,4.59l16.1,8.8A14.53,14.53,0,0,0,840,1653.24Z"/><path class="cls-26" d="M1060.32,1661.94l-26.1,13.87c-3.57,1.89-9.08,2-12.26.28l-19.89-10.87a4.2,4.2,0,0,1-1.91-1.9c-1.06,1.62-.57,3.4,1.62,4.6l19.9,10.88c3.17,1.73,8.69,1.6,12.25-.29l26.11-13.86c2.46-1.31,3.33-3.13,2.61-4.71A6,6,0,0,1,1060.32,1661.94Z"/><path class="cls-26" d="M1308.59,1530.09l-25.94,13.78c-3.57,1.89-9.08,2-12.26.29l-19.89-10.88a4.19,4.19,0,0,1-1.91-1.89c-1.06,1.61-.57,3.39,1.62,4.59l19.9,10.88c3.17,1.74,8.69,1.61,12.25-.29l26-13.78c2.47-1.31,3.34-3.13,2.61-4.7A6.14,6.14,0,0,1,1308.59,1530.09Z"/><path class="cls-26" d="M1358.27,1503.71l-26,13.82c-3.57,1.89-9.08,2-12.25.28l-19.9-10.87a4.25,4.25,0,0,1-1.91-1.9c-1.06,1.62-.57,3.4,1.62,4.6l19.9,10.88c3.17,1.73,8.69,1.6,12.25-.29l26-13.82c2.46-1.31,3.33-3.13,2.61-4.7A6.22,6.22,0,0,1,1358.27,1503.71Z"/><path class="cls-26" d="M1440.54,1491.31l21.31-11.31a13.18,13.18,0,0,1,2.62-1,2.62,2.62,0,0,0,0-2.27,6.3,6.3,0,0,1-2.36,2l-21.46,11.39c-2.86,1.52-7.28,1.62-9.82.23l-5.83-3.18a4.44,4.44,0,0,1-2.08-2.12c-1,1.7-.51,3.56,1.8,4.82l5.82,3.19a11.4,11.4,0,0,0,7.9.5A3.75,3.75,0,0,1,1440.54,1491.31Z"/><path class="cls-26" d="M917.27,1589.82l16.16,8.83a12.75,12.75,0,0,0,6,1.64,15.16,15.16,0,0,0,6.27-1.92l26.1-13.86c2.47-1.31,3.34-3.13,2.62-4.71a6.12,6.12,0,0,1-2.33,2L946,1595.67a15.1,15.1,0,0,1-6.26,1.92,12.75,12.75,0,0,1-6-1.64l-16.16-8.83a4.2,4.2,0,0,1-1.91-1.9C914.59,1586.84,915.08,1588.62,917.27,1589.82Z"/><path class="cls-26" d="M1109.81,1635.66,1084,1649.38c-3.56,1.9-9.07,2-12.25.29l-19.89-10.88a4.19,4.19,0,0,1-1.91-1.89c-1.06,1.61-.57,3.4,1.62,4.6l19.9,10.87c3.17,1.74,8.68,1.61,12.25-.29l25.83-13.71c2.47-1.31,3.34-3.13,2.61-4.71A6,6,0,0,1,1109.81,1635.66Z"/><path class="cls-26" d="M1159.51,1609.27l-26,13.83c-3.57,1.89-9.08,2-12.25.29l-19.9-10.88a4.24,4.24,0,0,1-1.91-1.89c-1.05,1.61-.57,3.4,1.63,4.6l19.89,10.87c3.17,1.74,8.69,1.61,12.25-.29l26-13.83c2.47-1.31,3.34-3.13,2.62-4.7A6.3,6.3,0,0,1,1159.51,1609.27Z"/><path class="cls-26" d="M1207.32,1583.88l-24.31,12.9a11.08,11.08,0,0,1-6.81,1.43,15.06,15.06,0,0,1-6.18-1.7l-19-10.39a4.3,4.3,0,0,1-1.91-1.9c-1,1.62-.57,3.4,1.63,4.6l19,10.39a15.09,15.09,0,0,0,6.18,1.7,11.14,11.14,0,0,0,6.82-1.42l24.3-12.91c2.47-1.31,3.34-3.13,2.62-4.7A6.3,6.3,0,0,1,1207.32,1583.88Z"/><path class="cls-26" d="M1259,1556.43l-28,14.88c-3.56,1.9-9.08,2-12.25.29l-19.9-10.87a4.27,4.27,0,0,1-1.9-1.9c-1.06,1.62-.58,3.4,1.62,4.6l19.89,10.87c3.18,1.74,8.69,1.61,12.25-.28l28-14.88c2.46-1.31,3.34-3.13,2.61-4.71A6.05,6.05,0,0,1,1259,1556.43Z"/><path class="cls-26" d="M937.14,1619.39l14.67,8c3.17,1.73,4,1.7,5.88,1.77s3.16.09,6.73-1.8l26.16-13.89c2.46-1.31,3.34-3.13,2.61-4.71a6.05,6.05,0,0,1-2.33,2l-26.16,13.9c-3.56,1.89-4.84,1.88-6.72,1.8s-2.71,0-5.89-1.77l-14.66-8a4.19,4.19,0,0,1-1.91-1.89C934.46,1616.41,935,1618.19,937.14,1619.39Z"/><path class="cls-26" d="M1140.83,1575l-26.32,14c-3.57,1.89-4.49,1.92-6.73,1.89s-3.33-.7-6.5-2.44l-18.42-10.06a4.27,4.27,0,0,1-1.9-1.9c-1.06,1.62-.57,3.4,1.62,4.6l18.41,10.07c3.18,1.73,4.27,2.41,6.51,2.43s3.16,0,6.72-1.89l26.33-14c2.46-1.31,3.34-3.13,2.61-4.7A6.14,6.14,0,0,1,1140.83,1575Z"/><path class="cls-26" d="M1188.64,1549.65l-24.15,12.83c-3.57,1.89-9.08,2-12.26.28L1132.57,1552a4.19,4.19,0,0,1-1.91-1.89c-1.06,1.61-.57,3.39,1.62,4.59l19.67,10.76c3.17,1.73,8.69,1.6,12.25-.29l24.16-12.83c2.46-1.31,3.34-3.13,2.61-4.7A6.14,6.14,0,0,1,1188.64,1549.65Z"/><path class="cls-26" d="M1289.92,1495.86l-26,13.78c-3.56,1.89-9.08,2-12.25.29l-19.67-10.75a4.22,4.22,0,0,1-1.9-1.9c-1.06,1.62-.58,3.4,1.62,4.6l19.66,10.75c3.18,1.74,8.69,1.61,12.26-.29l26-13.78c2.46-1.31,3.33-3.13,2.61-4.7A6.22,6.22,0,0,1,1289.92,1495.86Z"/><path class="cls-26" d="M1091.13,1601.43l-25.83,13.72c-3.56,1.9-9.08,2-12.25.29l-19.67-10.75a4.3,4.3,0,0,1-1.91-1.9c-1.06,1.62-.57,3.4,1.63,4.6l19.66,10.75c3.18,1.74,8.69,1.61,12.26-.28l25.83-13.72c2.46-1.31,3.33-3.13,2.61-4.71A6,6,0,0,1,1091.13,1601.43Z"/><path class="cls-26" d="M1240.27,1522l-29.06,14.59c-3.59,1.8-9.12,1.86-12.3.12l-18.53-10.13a4.23,4.23,0,0,1-1.91-1.89c-1.06,1.61-.57,3.39,1.62,4.59l18.54,10.13c3.17,1.74,8.71,1.69,12.29-.12l29.07-14.59c2.51-1.26,3.39-3,2.63-4.62A6.09,6.09,0,0,1,1240.27,1522Z"/><path class="cls-26" d="M1041.65,1627.71l-26.11,13.87c-3.56,1.89-9.08,2-12.25.28l-19.67-10.75a4.16,4.16,0,0,1-1.9-1.89c-1.06,1.61-.58,3.4,1.62,4.6l19.66,10.75c3.18,1.73,8.69,1.6,12.26-.29l26.1-13.86c2.47-1.31,3.34-3.13,2.62-4.71A6.12,6.12,0,0,1,1041.65,1627.71Z"/><path class="cls-26" d="M887.38,1645.82l15.08,8.24c3.18,1.74,8.69,1.61,12.26-.29l26.1-13.86c2.47-1.31,3.34-3.13,2.62-4.7a6.3,6.3,0,0,1-2.33,2L915,1651.07c-3.56,1.9-9.08,2-12.25.29l-15.08-8.24a4.3,4.3,0,0,1-1.91-1.9C884.7,1642.84,885.19,1644.62,887.38,1645.82Z"/><path class="cls-26" d="M991.89,1654.14l-26.47,14.06c-3.57,1.89-6.7,1.9-6.89,1.69a36.1,36.1,0,0,1-6.5-2.42l-18.17-9.93a4.26,4.26,0,0,1-1.9-1.89c-1.06,1.61-.57,3.39,1.62,4.59l18.17,9.93a35.52,35.52,0,0,0,6.5,2.42c.18.21,3.32.2,6.88-1.69l26.47-14.06c2.47-1.31,3.34-3.13,2.62-4.7A6.3,6.3,0,0,1,991.89,1654.14Z"/><path class="cls-26" d="M1215.31,1431.54l16,8.77,5.84,3.2s3-1.52,6.51-3.41l26-13.83c2.47-1.31,3.34-3.13,2.62-4.7a6.22,6.22,0,0,1-2.33,2l-26,13.83c-3.56,1.89-6.49,3.43-6.51,3.41l-5.84-3.2-16.05-8.77a4.25,4.25,0,0,1-1.91-1.9C1212.63,1428.56,1213.11,1430.34,1215.31,1431.54Z"/><path class="cls-26" d="M1016.51,1537.11l16.17,8.84c3.17,1.74,8.69,1.61,12.25-.29l26-13.83c2.46-1.31,3.34-3.13,2.61-4.7a6.14,6.14,0,0,1-2.33,2l-26,13.83c-3.57,1.89-9.08,2-12.26.29l-16.16-8.84a4.24,4.24,0,0,1-1.91-1.89C1013.83,1534.13,1014.32,1535.92,1016.51,1537.11Z"/><path class="cls-26" d="M1396,1439.53l-30.2,16c-3.57,1.89-9.08,2-12.25.28l-19.67-10.75a4.19,4.19,0,0,1-1.91-1.89c-1.06,1.61-.57,3.4,1.62,4.59l19.67,10.76c3.17,1.73,8.69,1.6,12.25-.29l30.2-16c2.47-1.31,3.34-3.12,2.61-4.7A6.09,6.09,0,0,1,1396,1439.53Z"/><path class="cls-26" d="M1114,1485.33l16.16,8.83c3.18,1.74,8.69,1.61,12.25-.28l28-14.88c2.47-1.31,3.34-3.13,2.62-4.71a6.13,6.13,0,0,1-2.33,2l-28,14.88c-3.56,1.9-9.08,2-12.25.29l-16.17-8.84a4.21,4.21,0,0,1-1.9-1.89C1111.35,1482.35,1111.83,1484.13,1114,1485.33Z"/><path class="cls-26" d="M1066.22,1510.72l16.16,8.84c3.17,1.73,8.69,1.6,12.25-.29l24.16-12.83c2.47-1.31,3.34-3.13,2.62-4.7a6.3,6.3,0,0,1-2.33,2l-24.16,12.83c-3.57,1.89-9.08,2-12.25.28L1066.5,1508a4.22,4.22,0,0,1-1.9-1.9C1063.54,1507.74,1064,1509.52,1066.22,1510.72Z"/><path class="cls-26" d="M967,1563.39l15.84,8.66a15.61,15.61,0,0,0,6.2,1.81,14,14,0,0,0,6.33-1.89l25.88-13.74c2.46-1.31,3.34-3.13,2.61-4.71a6,6,0,0,1-2.33,2l-25.87,13.75a14.11,14.11,0,0,1-6.33,1.89,15.57,15.57,0,0,1-6.2-1.81l-15.84-8.66a4.19,4.19,0,0,1-1.91-1.89C964.35,1560.41,964.84,1562.2,967,1563.39Z"/><path class="cls-26" d="M1165.7,1457.88l16.17,8.84c3.17,1.74,8.68,1.61,12.25-.29l26-13.78c2.46-1.31,3.34-3.13,2.61-4.7a6.14,6.14,0,0,1-2.33,2l-25.95,13.78c-3.56,1.89-9.07,2-12.25.29l-16.16-8.84a4.19,4.19,0,0,1-1.91-1.89C1163,1454.9,1163.51,1456.69,1165.7,1457.88Z"/><path class="cls-26" d="M1284.93,1434.69l15.08,8.24c3.18,1.73,8.69,1.61,12.25-.29l26-13.82c2.46-1.31,3.34-3.13,2.61-4.7a6.22,6.22,0,0,1-2.33,2l-26,13.82c-3.57,1.89-9.08,2-12.25.29l-15.08-8.25a4.24,4.24,0,0,1-1.91-1.89C1282.25,1431.7,1282.74,1433.49,1284.93,1434.69Z"/><path class="cls-26" d="M1405.51,1511.66c-3.33,1.77-3.63,4.55-.66,6.17l3.41,1.86c3.24,1.77,8.87,1.64,12.51-.29l20.33-10.8c3-1.6,3.28-4.11.6-5.57l-3.92-2.15c-3.25-1.77-8.88-1.64-12.52.3Z"/><path class="cls-26" d="M1440.65,1493.12c-2.67,1.42-2.91,3.65-.53,5l4.11,2.25c3.44,1.88,9.41,1.74,13.27-.31l21.31-11.32c2.67-1.42,2.91-3.65.53-5l-4.11-2.25c-3.44-1.88-9.41-1.74-13.28.31Z"/><path class="cls-26" d="M1483.35,1480.63c3.28,1.79,9,1.66,12.66-.3l19.69-10.45c2.16-1.15,2.36-3,.43-4l-5.23-2.86c-3.28-1.8-9-1.66-12.66.29L1478,1474.09c-1.83,1-2,2.5-.37,3.39Z"/><path class="cls-25" d="M1405.4,1509.79c-3.33,1.77-3.63,4.54-.66,6.16l3.4,1.87c3.25,1.77,8.88,1.64,12.52-.3l20.33-10.79c3-1.6,3.28-4.11.59-5.57l-3.92-2.15c-3.24-1.77-8.87-1.64-12.51.29Z"/><path class="cls-25" d="M1074.24,1664.81c-3.56,1.9-3.88,4.87-.7,6.6l24.7,13.5c3.17,1.74,8.68,1.61,12.25-.28L1301.84,1583c3.56-1.9,3.88-4.87.7-6.6l-24.7-13.5c-3.17-1.74-8.68-1.61-12.25.28Z"/><path class="cls-25" d="M1343.35,1521.89c-3.56,1.9-3.88,4.87-.7,6.6l24.7,13.5c3.17,1.74,8.68,1.61,12.25-.28l23-12.24c3.56-1.89,3.88-4.86.71-6.6l-24.7-13.5c-3.18-1.74-8.69-1.61-12.25.29Z"/><path class="cls-25" d="M1021.31,1692.93c-3.57,1.89-3.89,4.86-.71,6.6l24.7,13.5c3.17,1.73,8.69,1.61,12.25-.29l29.29-15.55c3.56-1.89,3.88-4.86.7-6.6l-24.7-13.5c-3.17-1.74-8.68-1.61-12.25.29Z"/><path class="cls-25" d="M1289.25,1550.65c-3.57,1.88-3.89,4.84-.71,6.58l24.7,13.5c3.17,1.74,8.68,1.61,12.25-.29l30.45-16.17c3.57-1.89,3.89-4.86.71-6.6l-24.49-13.39c-3.18-1.73-8.69-1.62-12.26.26Z"/><path class="cls-25" d="M893,1723.24c-3.14-1.79-8.63-1.71-12.2.18l-48.43,25.73c-3.57,1.89-3.89,4.86-.71,6.59l19.89,10.88c3.18,1.73,8.69,1.61,12.25-.29L911.53,1741c3.56-1.9,3.89-4.88.73-6.64Z"/><path class="cls-25" d="M972.35,1718.93c-3.57,1.89-3.88,4.86-.71,6.6l24.7,13.5c3.18,1.73,8.69,1.61,12.25-.29l25.31-13.44c3.56-1.89,3.88-4.86.71-6.59l-24.7-13.51c-3.18-1.73-8.69-1.6-12.26.29Z"/><path class="cls-25" d="M926.61,1743.22c-3.56,1.89-3.88,4.86-.71,6.6l24.7,13.5c3.18,1.74,8.69,1.61,12.26-.29l22.08-11.73c3.56-1.89,3.88-4.86.71-6.59L961,1731.2c-3.18-1.73-8.69-1.6-12.25.29Z"/><path class="cls-25" d="M873.29,1771.54c-3.57,1.89-3.89,4.86-.71,6.6l24.7,13.5c3.17,1.73,8.69,1.61,12.25-.29l29.67-15.75c3.57-1.9,3.88-4.87.71-6.6l-24.7-13.5c-3.17-1.74-8.69-1.61-12.25.28Z"/><path class="cls-25" d="M1168.77,1489.68c-2.37-.1-3.89,0-7.45,1.89l-24.48,13c-3.56,1.89-3.88,4.86-.71,6.59l13.84,7.57a26.92,26.92,0,0,0,6.24,2.28,13,13,0,0,0,7-1.75l24.43-13c3.56-1.89,3.88-4.86.71-6.6l-13.71-7.49C1171.44,1490.46,1171.14,1489.79,1168.77,1489.68Z"/><path class="cls-25" d="M1440.54,1491.31c-2.67,1.42-2.91,3.65-.53,5l4.11,2.25c3.44,1.88,9.41,1.74,13.27-.31l21.31-11.31c2.67-1.42,2.91-3.65.53-5l-4.11-2.24c-3.44-1.88-9.41-1.74-13.27.31Z"/><path class="cls-25" d="M1087.14,1531c-3.57,1.89-3.88,4.86-.71,6.6l14.91,8.15a14.06,14.06,0,0,0,6.07,1.71,14.47,14.47,0,0,0,6.33-1.89l26.07-13.85c3.56-1.89,3.88-4.86.71-6.6l-15.08-8.24c-3.17-1.73-8.69-1.61-12.25.29Z"/><path class="cls-25" d="M1070,1541.47a15,15,0,0,0-6.46,2l-25.91,13.75c-3.56,1.89-3.88,4.86-.7,6.6l15.07,8.24c3.18,1.74,8.69,1.61,12.26-.29l25.83-13.71c3.56-1.9,3.88-4.87.7-6.6l-14.56-8A19.51,19.51,0,0,0,1070,1541.47Z"/><path class="cls-25" d="M1288.9,1452.5c3.56-1.89,3.88-4.86.7-6.6l-15.07-8.24c-3.18-1.73-8.69-1.6-12.25.29l-26,13.78c-3.57,1.89-3.89,4.86-.71,6.6l15.07,8.24c3.18,1.74,8.69,1.61,12.26-.29Z"/><path class="cls-25" d="M1220.61,1462.37c-1.54-.33-3.95-.2-7.51,1.7l-28.45,15.1c-3.56,1.9-3.88,4.87-.71,6.6l15,8.22a11.86,11.86,0,0,0,6.39,1.34s2.34.29,5.91-1.6l28-14.88c3.57-1.9,3.89-4.87.71-6.6l-13.41-7.34C1223.41,1463.18,1222.15,1462.7,1220.61,1462.37Z"/><path class="cls-25" d="M1483.22,1478.49c3.28,1.79,9,1.66,12.66-.3l19.69-10.46c2.16-1.15,2.36-3,.43-4l-5.23-2.86c-3.28-1.79-9-1.66-12.66.3L1477.82,1472c-1.83,1-2,2.49-.37,3.38Z"/><path class="cls-25" d="M1282.36,1466.23c-3.56,1.9-3.88,4.87-.71,6.6l19.67,10.75c3.18,1.74,8.69,1.61,12.26-.28l28.55-15.17c3.57-1.89,3.89-4.86.71-6.6l-19.66-10.75c-3.18-1.73-8.69-1.61-12.26.29Z"/><path class="cls-25" d="M1055,1497.66c3.56-1.89,3.88-4.86.7-6.59l-6.8-3.72c-3.18-1.74-8.69-1.61-12.25.28l-32,17c-3.57,1.89-3.89,4.86-.71,6.59l6.8,3.72c3.18,1.74,8.69,1.61,12.26-.28Z"/><path class="cls-25" d="M1213.21,1413.62c3.56-1.89,3.88-4.86.71-6.6l-6.81-3.72c-3.18-1.73-8.69-1.61-12.25.29l-32.65,17.34c-3.57,1.89-3.88,4.86-.71,6.59l6.81,3.72c3.17,1.74,8.69,1.61,12.25-.28Z"/><path class="cls-25" d="M1315.74,1359.17c3.56-1.9,3.88-4.86.7-6.6l-6.8-3.72c-3.18-1.74-8.69-1.61-12.25.29l-29.65,15.74c-3.57,1.89-3.89,4.86-.71,6.6l6.81,3.72c3.17,1.73,8.68,1.61,12.25-.29Z"/><path class="cls-25" d="M1262.44,1387.47c3.56-1.89,3.88-4.86.7-6.59l-6.8-3.72c-3.18-1.74-8.69-1.61-12.26.28L1218.51,1391c-3.56,1.89-3.88,4.86-.71,6.59l6.81,3.72c3.17,1.74,8.69,1.61,12.25-.28Z"/><path class="cls-25" d="M1156.91,1443.52c3.56-1.89,3.88-4.86.7-6.6l-6.8-3.72c-3.18-1.73-8.69-1.61-12.25.29l-27.68,14.69c-3.56,1.9-3.88,4.87-.7,6.6l6.8,3.72c3.18,1.74,8.69,1.61,12.26-.28Z"/><path class="cls-25" d="M1105.58,1470.78c3.57-1.9,3.88-4.86.71-6.6l-6.81-3.72c-3.17-1.74-8.69-1.61-12.25.29l-27,14.32c-3.57,1.89-3.88,4.86-.71,6.6l6.81,3.72c3.17,1.73,8.69,1.6,12.25-.29Z"/><path class="cls-25" d="M1369.15,1491.15a14.87,14.87,0,0,0,6.43,1.64c.09.06,2.71.29,6.27-1.61l89-47.24c3.56-1.89,3.88-4.86.71-6.6l-19.9-10.87c-3.17-1.74-8.69-1.61-12.25.28L1350.49,1474c-3.57,1.89-3.89,4.86-.71,6.6Z"/><path class="cls-25" d="M892.71,1706.81c3.56-1.89,3.89-4.87.72-6.61l-19.56-10.78c-3.17-1.75-8.68-1.63-12.24.26l-70,37.2c-3.56,1.89-3.88,4.86-.71,6.59l19.72,10.78a10,10,0,0,0,5.74,1.47,18.85,18.85,0,0,0,6.94-2Z"/><path class="cls-25" d="M1280.6,1411.61c3.13,1.83,8.61,1.77,12.17-.12l60.2-32c3.56-1.89,3.88-4.86.71-6.6l-16.17-8.83c-3.17-1.74-8.69-1.61-12.25.28L1266,1395.86c-3.57,1.89-3.92,4.93-.79,6.76Z"/><path class="cls-25" d="M1349.11,1413.37c3.17,1.74,3.73,1.88,6.15,2.14s7.62-2.3,7.62-2.3c3.57-1.9,5.78-3.76,8-4.25s5.58,1.41,8.76,3.14l27.72,15.16c3.17,1.73,8.68,1.6,12.25-.29l10.21-5.42c3.56-1.89,3.88-4.86.7-6.6l-55.81-30.51c-3.17-1.74-8.69-1.61-12.25.29L1335.6,1399c-3.56,1.9-3.88,4.87-.7,6.6Z"/><path class="cls-25" d="M794.26,1636.11c3.57-1.89,3.89-4.86.71-6.59l-6.81-3.72c-3.17-1.74-8.68-1.61-12.25.28l-27.67,14.7c-3.56,1.89-3.88,4.86-.71,6.6l6.81,3.72c3.17,1.73,8.69,1.6,12.25-.29Z"/><path class="cls-25" d="M757.59,1672.07c-3.17-1.73-8.69-1.6-12.25.29l-27.12,14.41c-3.57,1.89-3.89,4.86-.71,6.59l16.16,8.84c3.17,1.73,8.69,1.61,12.25-.29l27.13-14.4c3.56-1.9,3.88-4.86.7-6.6Z"/><path class="cls-25" d="M845.59,1608.86c3.56-1.9,3.88-4.86.7-6.6l-6.8-3.72c-3.18-1.74-8.69-1.61-12.25.28l-27.68,14.7c-3.56,1.89-3.88,4.86-.7,6.6l6.8,3.72c3.18,1.73,8.69,1.61,12.26-.29Z"/><path class="cls-25" d="M987.9,1583.67c-3.57,1.89-3.89,4.86-.71,6.59l15.07,8.25c3.18,1.73,8.69,1.6,12.26-.29l26.1-13.86c3.57-1.9,3.89-4.86.71-6.6l-15.08-8.24c-3.17-1.74-8.68-1.61-12.25.28Z"/><path class="cls-25" d="M826.83,1675.43c-3.18-1.74-8.69-1.61-12.25.29l-59.13,31.4c-3.57,1.89-3.89,4.86-.71,6.6l15.07,8.24c3.18,1.73,8.69,1.6,12.26-.29l59.13-31.4c3.56-1.89,3.88-4.86.7-6.6Z"/><path class="cls-25" d="M999.32,1527.21c3.57-1.89,3.89-4.86.71-6.6l-6.81-3.72c-3.17-1.73-8.68-1.61-12.25.29l-27.43,14.57c-3.57,1.89-3.89,4.86-.71,6.6l6.81,3.72c3.17,1.73,8.68,1.6,12.25-.29Z"/><path class="cls-25" d="M896.91,1581.6c3.56-1.89,3.88-4.86.71-6.6l-6.81-3.72c-3.17-1.73-8.69-1.61-12.25.29l-27.67,14.69c-3.56,1.9-3.88,4.86-.71,6.6l6.81,3.72c3.17,1.74,8.69,1.61,12.25-.29Z"/><path class="cls-25" d="M948.23,1554.34c3.57-1.89,3.89-4.86.71-6.59l-6.8-3.73c-3.18-1.73-8.69-1.6-12.26.29L902.21,1559c-3.56,1.89-3.88,4.86-.71,6.59l6.81,3.72c3.18,1.74,8.69,1.61,12.25-.28Z"/><path class="cls-25" d="M746.27,1660s.45-1.55-2.72-3.29l-6.71-3.67c-3.17-1.73-8.69-1.6-12.25.29l-34.25,18.19c-3.56,1.89-3.88,4.86-.71,6.59l6.81,3.73c3.17,1.73,8.69,1.6,12.25-.29l34-18C746.24,1661.62,746.24,1660.05,746.27,1660Z"/><path class="cls-25" d="M936.08,1695.46a15.78,15.78,0,0,0-6.61,2.09l-25.73,13.67c-3.56,1.89-3.88,4.86-.71,6.59l19.9,10.88c3.17,1.74,8.69,1.61,12.25-.29l25.62-13.6c3.57-1.9,3.89-4.87.71-6.6l-19.13-10.46A25.25,25.25,0,0,0,936.08,1695.46Z"/><path class="cls-25" d="M942.13,1680.57c3.56-1.9,3.88-4.87.71-6.6l-19.67-10.75c-3.17-1.74-8.69-1.61-12.25.28l-25.77,13.69c-3.56,1.89-3.88,4.86-.71,6.6l19.67,10.75c3.18,1.73,8.69,1.6,12.25-.29Z"/><path class="cls-25" d="M878.05,1649.38a26.24,26.24,0,0,0-6.18-2.28,14,14,0,0,0-6.93,1.87l-26.32,14c-3.56,1.89-3.88,4.86-.71,6.59l15.08,8.24c3.17,1.74,8.69,1.61,12.25-.28l26.11-13.87c3.56-1.89,3.88-4.86.71-6.59Z"/><path class="cls-25" d="M953,1685.05c-3.57,1.89-3.88,4.86-.71,6.59l19.83,10.84a13,13,0,0,0,5.3,1.79,18,18,0,0,0,7-2l26.11-13.87c3.57-1.89,3.89-4.86.71-6.6l-19.89-10.87c-3.18-1.74-8.69-1.61-12.26.28Z"/><path class="cls-25" d="M801.47,1644a14.34,14.34,0,0,0-6.31,1.94L769,1659.8c-3.56,1.89-3.88,4.86-.71,6.6l16.17,8.83c3.17,1.74,8.69,1.61,12.25-.28l26.1-13.87c3.57-1.89,3.89-4.86.71-6.6l-15.68-8.57A18.31,18.31,0,0,0,801.47,1644Z"/><path class="cls-25" d="M922.32,1608.23c3.57-1.89,3.88-4.86.71-6.6l-16.16-8.83c-3.18-1.74-8.69-1.61-12.26.28L868.51,1607c-3.57,1.89-3.91,4.91-.77,6.71l15.62,8.95c3.14,1.8,8.63,1.73,12.19-.16Z"/><path class="cls-25" d="M840.27,1650.54a15.88,15.88,0,0,0,6.18-2l26.11-13.86c3.57-1.9,3.89-4.87.71-6.6l-16.16-8.84c-3.18-1.73-8.69-1.6-12.25.29l-26.11,13.86c-3.56,1.9-3.88,4.86-.71,6.6l16.1,8.8A14.57,14.57,0,0,0,840.27,1650.54Z"/><path class="cls-25" d="M1002.78,1658.62c-3.57,1.89-3.89,4.86-.71,6.6l19.89,10.87c3.18,1.74,8.69,1.61,12.26-.28l26.1-13.87c3.57-1.89,3.88-4.86.71-6.59l-19.89-10.88c-3.18-1.73-8.69-1.61-12.26.29Z"/><path class="cls-25" d="M1251.21,1526.68c-3.57,1.9-3.89,4.87-.71,6.6l19.89,10.88c3.18,1.73,8.69,1.6,12.26-.29l25.95-13.78c3.56-1.89,3.88-4.86.7-6.6l-19.89-10.87c-3.18-1.74-8.69-1.61-12.25.28Z"/><path class="cls-25" d="M1300.81,1500.34c-3.57,1.89-3.88,4.86-.71,6.6l19.9,10.87c3.17,1.74,8.68,1.61,12.25-.28l26-13.82c3.57-1.9,3.88-4.86.71-6.6l-19.9-10.88c-3.17-1.73-8.68-1.6-12.25.29Z"/><path class="cls-25" d="M1425.77,1480.15c-3.81,2-4.15,5.19-.76,7l5.83,3.18c2.54,1.39,7,1.29,9.82-.23l21.46-11.39c3.59-1.91,3.92-4.91.71-6.66l-7.94-4.34a7.19,7.19,0,0,0-6.06.14Z"/><path class="cls-25" d="M939.71,1597.59a15.1,15.1,0,0,0,6.26-1.92l26.11-13.87c3.56-1.89,3.88-4.86.71-6.59l-16.17-8.84c-3.17-1.73-8.68-1.61-12.25.29l-26.1,13.86c-3.57,1.89-3.89,4.86-.71,6.6l16.16,8.83A12.75,12.75,0,0,0,939.71,1597.59Z"/><path class="cls-25" d="M1052.54,1632.2c-3.57,1.89-3.89,4.86-.71,6.59l19.89,10.88c3.18,1.73,8.69,1.61,12.25-.29l25.84-13.72c3.56-1.89,3.88-4.86.7-6.59l-19.89-10.88c-3.18-1.73-8.69-1.61-12.25.29Z"/><path class="cls-25" d="M1102,1605.91c-3.56,1.9-3.88,4.87-.71,6.6l19.9,10.88c3.17,1.73,8.68,1.6,12.25-.29l26-13.83c3.56-1.89,3.88-4.86.7-6.6l-19.89-10.87c-3.17-1.74-8.69-1.61-12.25.28Z"/><path class="cls-25" d="M1182.05,1564.76a14.08,14.08,0,0,0-6.15,1.92l-24.18,12.84c-3.56,1.89-3.88,4.86-.71,6.6l19,10.39a15.06,15.06,0,0,0,6.18,1.7,11.08,11.08,0,0,0,6.81-1.43l24.31-12.9c3.56-1.9,3.88-4.87.71-6.6l-19.72-10.78A14.72,14.72,0,0,0,1182.05,1564.76Z"/><path class="cls-25" d="M1233.88,1537.53c-.08-.06-2.69-.21-6.26,1.68l-28.09,14.92c-3.56,1.89-3.88,4.86-.71,6.59l19.9,10.88c3.17,1.74,8.69,1.61,12.25-.29l28-14.88c3.57-1.89,3.89-4.86.71-6.59l-19.4-10.61A15.29,15.29,0,0,0,1233.88,1537.53Z"/><path class="cls-25" d="M971,1594.08a16.76,16.76,0,0,0-6.65,2.12l-26.17,13.89c-3.57,1.9-3.89,4.86-.71,6.6l14.66,8c3.18,1.73,4,1.7,5.89,1.77s3.16.09,6.72-1.8l26.16-13.9c3.57-1.89,3.89-4.86.71-6.59l-14.61-8A20.25,20.25,0,0,0,971,1594.08Z"/><path class="cls-25" d="M1107.78,1590.91c2.24,0,3.16,0,6.73-1.89l26.32-14c3.57-1.89,3.89-4.86.71-6.6l-19.67-10.75c-3.17-1.74-8.68-1.61-12.25.29l-26,13.83c-3.56,1.89-3.88,4.86-.71,6.6l18.42,10.06C1104.45,1590.21,1105.54,1590.89,1107.78,1590.91Z"/><path class="cls-25" d="M1188.64,1549.65c3.57-1.9,3.89-4.87.71-6.6l-19.67-10.75c-3.17-1.74-8.68-1.61-12.25.28l-24.15,12.83c-3.57,1.9-3.89,4.87-.71,6.6l19.66,10.75c3.18,1.74,8.69,1.61,12.26-.28Z"/><path class="cls-25" d="M1289.92,1495.86c3.57-1.89,3.88-4.86.71-6.6L1271,1478.51c-3.17-1.73-8.69-1.61-12.25.29l-26,13.78c-3.56,1.89-3.88,4.86-.71,6.6l19.67,10.75c3.17,1.73,8.69,1.6,12.25-.29Z"/><path class="cls-25" d="M1091.13,1601.43c3.57-1.89,3.88-4.86.71-6.59l-19.67-10.76c-3.17-1.73-8.69-1.6-12.25.29l-25.83,13.72c-3.57,1.89-3.88,4.86-.71,6.6l19.67,10.75c3.17,1.73,8.69,1.61,12.25-.29Z"/><path class="cls-25" d="M1240.27,1522c3.59-1.8,3.93-4.7.76-6.43l-19.67-10.76c-3.17-1.73-8.69-1.6-12.25.29l-28,14.88c-3.57,1.9-3.89,4.86-.71,6.6l18.53,10.13c3.18,1.74,8.71,1.68,12.3-.12Z"/><path class="cls-25" d="M1041.65,1627.71c3.56-1.89,3.88-4.86.71-6.59l-17.47-9.55c-3.18-1.74-4.44-2.72-6.52-2.91s-3.65-.28-7.21,1.61l-26.83,14.25c-3.56,1.89-3.88,4.86-.71,6.59l19.67,10.75c3.17,1.74,8.69,1.61,12.25-.28Z"/><path class="cls-25" d="M888.38,1636.52c-3.57,1.89-3.88,4.86-.71,6.6l15.08,8.24c3.17,1.73,8.69,1.61,12.25-.29l26.11-13.86c3.56-1.89,3.88-4.86.7-6.6l-15.07-8.24c-3.18-1.74-8.69-1.61-12.25.29Z"/><path class="cls-25" d="M958.53,1669.89c.19.21,3.32.2,6.89-1.69l26.47-14.06c3.56-1.89,3.88-4.86.71-6.6l-19.67-10.75c-3.17-1.73-8.69-1.61-12.25.29l-26.11,13.86c-3.56,1.89-3.88,4.86-.71,6.6l18.17,9.93A36.1,36.1,0,0,0,958.53,1669.89Z"/><path class="cls-25" d="M1237.48,1440.81s3-1.52,6.51-3.41l26-13.83c3.56-1.9,3.88-4.86.71-6.6l-16.16-8.84c-3.18-1.73-8.69-1.6-12.26.29l-26,13.82c-3.56,1.89-3.88,4.86-.71,6.6l16.05,8.77Z"/><path class="cls-25" d="M1071.26,1529.13c3.57-1.89,3.89-4.86.71-6.6l-16.16-8.84c-3.17-1.73-8.69-1.6-12.25.29l-26,13.83c-3.57,1.9-3.88,4.87-.71,6.6l16.16,8.84c3.18,1.73,8.69,1.6,12.26-.29Z"/><path class="cls-25" d="M1353.54,1455.85c3.17,1.74,8.68,1.61,12.25-.28l30.2-16c3.56-1.89,3.88-4.86.7-6.6L1377,1422.18c-3.18-1.73-8.69-1.61-12.26.29l-30.19,16c-3.57,1.89-3.89,4.86-.71,6.59Z"/><path class="cls-25" d="M1170.75,1476.29c3.56-1.89,3.88-4.86.71-6.59l-15.09-8.26a24.2,24.2,0,0,0-6.23-2.2,13.31,13.31,0,0,0-6.89,1.79L1115,1476c-3.56,1.89-3.88,4.86-.71,6.59l16.17,8.84c3.17,1.74,8.69,1.61,12.25-.29Z"/><path class="cls-25" d="M1119.08,1503.74c3.56-1.9,3.88-4.87.7-6.6l-15.38-8.41a18.63,18.63,0,0,0-5.9-2,14.42,14.42,0,0,0-7,1.82l-24.27,12.89c-3.56,1.89-3.88,4.86-.71,6.6l16.17,8.83c3.17,1.74,8.68,1.61,12.25-.28Z"/><path class="cls-25" d="M989.36,1571.16a14.11,14.11,0,0,0,6.33-1.89l25.87-13.75c3.57-1.89,3.89-4.86.71-6.59l-16.16-8.84c-3.18-1.73-8.69-1.61-12.25.29L968,1554.1c-3.57,1.89-3.89,4.86-.71,6.59l15.84,8.66A15.57,15.57,0,0,0,989.36,1571.16Z"/><path class="cls-25" d="M1220.35,1450c3.57-1.89,3.89-4.86.71-6.6l-16.16-8.83c-3.18-1.74-8.69-1.61-12.25.28l-26,13.78c-3.57,1.9-3.89,4.87-.71,6.6l16.16,8.84c3.18,1.73,8.69,1.6,12.25-.29Z"/><path class="cls-25" d="M1338.57,1426.12c3.57-1.89,3.89-4.86.71-6.6l-15.08-8.24c-3.17-1.74-8.68-1.61-12.25.29l-26,13.82c-3.57,1.89-3.88,4.86-.71,6.59l15.08,8.25c3.17,1.73,8.68,1.6,12.25-.29Z"/><g class="cls-27"><path class="cls-28" d="M905.27,1764l-10.72,5.69a1.38,1.38,0,0,0-.25,2.3l4.23,2.32a1,1,0,0,0,.9,0l10.72-5.7a1.38,1.38,0,0,0,.25-2.3l-4.23-2.31A.93.93,0,0,0,905.27,1764Z"/><path class="cls-28" d="M1328.64,1373.6l-10.72,5.7a1.38,1.38,0,0,0-.25,2.3l4.24,2.31a.91.91,0,0,0,.89,0l10.73-5.69a1.38,1.38,0,0,0,.24-2.3l-4.23-2.32A1,1,0,0,0,1328.64,1373.6Z"/><path class="cls-28" d="M1363.84,1395.73l-10.73,5.7a1.37,1.37,0,0,0-.24,2.29l4.23,2.32a.93.93,0,0,0,.9,0l10.72-5.7a1.37,1.37,0,0,0,.25-2.29l-4.24-2.32A.91.91,0,0,0,1363.84,1395.73Z"/><path class="cls-28" d="M828.85,1723.87l-10.73,5.69a1.38,1.38,0,0,0-.24,2.3l4.23,2.31a.93.93,0,0,0,.9,0l10.72-5.69a1.38,1.38,0,0,0,.25-2.3l-4.24-2.32A.94.94,0,0,0,828.85,1723.87Z"/><path class="cls-28" d="M791.13,1703.12l-10.73,5.69a1.38,1.38,0,0,0-.24,2.3l4.23,2.32a1,1,0,0,0,.9,0l10.72-5.7a1.38,1.38,0,0,0,.25-2.3L792,1703.1A.91.91,0,0,0,791.13,1703.12Z"/><path class="cls-28" d="M723.34,1660.77l-10.73,5.7a1.37,1.37,0,0,0-.24,2.29l4.23,2.32a.93.93,0,0,0,.9,0l10.72-5.7a1.38,1.38,0,0,0,.25-2.3l-4.24-2.31A.91.91,0,0,0,723.34,1660.77Z"/><path class="cls-28" d="M776.19,1632.45l-10.72,5.69a1.38,1.38,0,0,0-.25,2.3l4.24,2.32a.94.94,0,0,0,.89,0l10.73-5.7a1.38,1.38,0,0,0,.24-2.3l-4.23-2.31A.93.93,0,0,0,776.19,1632.45Z"/><path class="cls-28" d="M829.05,1604.12l-10.72,5.7a1.38,1.38,0,0,0-.25,2.3l4.23,2.31a.93.93,0,0,0,.9,0l10.72-5.69a1.38,1.38,0,0,0,.25-2.3L830,1604.1A1,1,0,0,0,829.05,1604.12Z"/><path class="cls-28" d="M877.27,1577.24l-10.72,5.69a1.38,1.38,0,0,0-.25,2.3l4.24,2.31a.91.91,0,0,0,.89,0l10.73-5.69a1.38,1.38,0,0,0,.24-2.3l-4.23-2.32A1,1,0,0,0,877.27,1577.24Z"/><path class="cls-28" d="M929.5,1549.59l-10.73,5.69a1.38,1.38,0,0,0-.24,2.3l4.23,2.31a.93.93,0,0,0,.9,0l10.72-5.69a1.38,1.38,0,0,0,.25-2.3l-4.24-2.32A.94.94,0,0,0,929.5,1549.59Z"/><path class="cls-28" d="M981,1523.27,970.3,1529a1.38,1.38,0,0,0-.25,2.3l4.23,2.32a.93.93,0,0,0,.9,0l10.72-5.7a1.38,1.38,0,0,0,.25-2.3l-4.23-2.31A.93.93,0,0,0,981,1523.27Z"/><path class="cls-28" d="M1033.24,1495.62l-10.72,5.7a1.37,1.37,0,0,0-.25,2.29l4.24,2.32a.91.91,0,0,0,.89,0l10.73-5.7a1.38,1.38,0,0,0,.24-2.3l-4.23-2.31A.93.93,0,0,0,1033.24,1495.62Z"/><path class="cls-28" d="M1085,1467.33l-10.73,5.69a1.38,1.38,0,0,0-.24,2.3l4.23,2.31a.93.93,0,0,0,.9,0l10.72-5.69a1.38,1.38,0,0,0,.25-2.3l-4.24-2.31A.91.91,0,0,0,1085,1467.33Z"/><path class="cls-28" d="M1135.38,1441l-10.73,5.69a1.38,1.38,0,0,0-.24,2.3l4.23,2.32a1,1,0,0,0,.9,0l10.72-5.7a1.38,1.38,0,0,0,.25-2.3l-4.24-2.31A.91.91,0,0,0,1135.38,1441Z"/><path class="cls-28" d="M1190.55,1412l-10.73,5.69a1.38,1.38,0,0,0-.24,2.3l4.23,2.32a1,1,0,0,0,.9,0l10.72-5.7a1.38,1.38,0,0,0,.25-2.3l-4.24-2.31A.91.91,0,0,0,1190.55,1412Z"/><path class="cls-28" d="M1243.4,1383.68l-10.72,5.69a1.38,1.38,0,0,0-.25,2.3l4.24,2.31a.93.93,0,0,0,.9,0l10.72-5.69a1.39,1.39,0,0,0,.25-2.3l-4.24-2.32A1,1,0,0,0,1243.4,1383.68Z"/><path class="cls-28" d="M1295.07,1356l-10.73,5.7a1.37,1.37,0,0,0-.24,2.29l4.23,2.32a.93.93,0,0,0,.9,0l10.72-5.7a1.38,1.38,0,0,0,.25-2.3L1296,1356A.91.91,0,0,0,1295.07,1356Z"/><path class="cls-28" d="M871.13,1745.15l-10.72,5.7a1.38,1.38,0,0,0-.25,2.3l4.24,2.31a.91.91,0,0,0,.89,0l10.73-5.69a1.38,1.38,0,0,0,.24-2.3l-4.23-2.32A1,1,0,0,0,871.13,1745.15Z"/><path class="cls-29" d="M951.66,1750.22c-.9.48-1,1.23-.18,1.68l5,2.75a3.22,3.22,0,0,0,1.34.45,4.49,4.49,0,0,0,1.78-.51l6.63-3.53c.91-.48,1-1.23.18-1.67l-5.05-2.76a3.69,3.69,0,0,0-3.11.07Z"/><path class="cls-29" d="M1000.31,1724.64c-.91.48-1,1.23-.18,1.67l5,2.75a3.42,3.42,0,0,0,1.35.46,4.7,4.7,0,0,0,1.78-.52l6.63-3.52c.9-.48,1-1.24.18-1.68l-5.05-2.76a3.68,3.68,0,0,0-3.11.07Z"/><path class="cls-29" d="M1049.72,1697.06c-.9.48-1,1.23-.18,1.67l5,2.76a3.22,3.22,0,0,0,1.34.45,4.61,4.61,0,0,0,1.78-.52l6.63-3.52c.91-.48,1-1.23.18-1.67l-5-2.77a3.69,3.69,0,0,0-3.11.08Z"/><path class="cls-29" d="M1319.06,1555.31c-.91.48-1,1.24-.18,1.68l5,2.75a3.28,3.28,0,0,0,1.35.45,4.38,4.38,0,0,0,1.78-.51l6.63-3.52c.9-.48,1-1.24.18-1.68l-5-2.76a3.68,3.68,0,0,0-3.11.07Z"/><path class="cls-29" d="M1369.44,1527.87c-.91.49-1,1.24-.18,1.68l5,2.75a3.64,3.64,0,0,0,1.35.46,4.7,4.7,0,0,0,1.78-.52l6.63-3.52c.91-.48,1-1.24.18-1.68l-5-2.76a3.68,3.68,0,0,0-3.11.07Z"/><path class="cls-29" d="M1441.76,1441.47c-.91.48-1,1.23-.18,1.67l5,2.75a3.42,3.42,0,0,0,1.35.46,4.7,4.7,0,0,0,1.78-.52l6.63-3.52c.91-.48,1-1.24.18-1.68l-5-2.76a3.68,3.68,0,0,0-3.11.07Z"/><path class="cls-29" d="M1124.13,1606.94c-.73.39-.8,1-.14,1.36l4.09,2.24a3.07,3.07,0,0,0,1.09.37,3.76,3.76,0,0,0,1.45-.42l5.39-2.87c.73-.39.8-1,.14-1.36l-4.1-2.24a3,3,0,0,0-2.53.06Z"/><path class="cls-29" d="M925.91,1712c-.74.39-.81,1-.15,1.36l4.09,2.24a2.64,2.64,0,0,0,1.1.37,3.73,3.73,0,0,0,1.44-.42l5.39-2.86c.73-.39.8-1,.15-1.36l-4.11-2.25a3,3,0,0,0-2.53.06Z"/><path class="cls-29" d="M975.74,1685.73c-.73.39-.8,1-.14,1.36l4.09,2.24a3.07,3.07,0,0,0,1.09.37,3.76,3.76,0,0,0,1.45-.42l5.39-2.87c.73-.39.8-1,.14-1.36l-4.1-2.24a3,3,0,0,0-2.53.06Z"/><path class="cls-29" d="M1025.58,1659.46c-.73.39-.8,1-.14,1.36l4.09,2.23a2.63,2.63,0,0,0,1.09.37,3.8,3.8,0,0,0,1.45-.42l5.38-2.86c.74-.39.81-1,.15-1.36l-4.1-2.24a3,3,0,0,0-2.53.06Z"/><path class="cls-29" d="M1075.42,1633.18c-.74.39-.8,1-.15,1.36l4.09,2.24a2.69,2.69,0,0,0,1.1.37,3.73,3.73,0,0,0,1.44-.42l5.39-2.86c.74-.39.8-1,.15-1.36l-4.11-2.25a3,3,0,0,0-2.52.06Z"/><path class="cls-29" d="M1175.1,1580.64c-.74.39-.81,1-.15,1.36l4.09,2.24a2.73,2.73,0,0,0,1.09.36,3.45,3.45,0,0,0,1.45-.41l5.39-2.87c.73-.39.8-1,.14-1.36l-4.1-2.24a3,3,0,0,0-2.53.06Z"/><path class="cls-29" d="M1224.93,1554.37c-.73.39-.8,1-.14,1.36l4.09,2.23a2.63,2.63,0,0,0,1.09.37,3.8,3.8,0,0,0,1.45-.42l5.39-2.86c.73-.39.8-1,.14-1.36l-4.1-2.24a3,3,0,0,0-2.53,0Z"/><path class="cls-29" d="M1274.77,1528.09c-.73.39-.8,1-.15,1.36l4.1,2.24a2.63,2.63,0,0,0,1.09.37,3.8,3.8,0,0,0,1.45-.42l5.38-2.86c.74-.39.81-1,.15-1.36l-4.1-2.25a3,3,0,0,0-2.53.06Z"/><path class="cls-29" d="M1324.61,1501.82c-.74.39-.8,1-.15,1.36l4.09,2.24a2.69,2.69,0,0,0,1.1.37,3.73,3.73,0,0,0,1.44-.42l5.39-2.86c.74-.39.8-1,.15-1.37l-4.11-2.24a3,3,0,0,0-2.52.06Z"/><path class="cls-29" d="M1107.05,1572.51c-.74.39-.8,1-.15,1.36l4.09,2.24a2.75,2.75,0,0,0,1.1.36,3.35,3.35,0,0,0,1.44-.42l5.39-2.86c.74-.39.8-1,.15-1.36l-4.11-2.24a3,3,0,0,0-2.53.06Z"/><path class="cls-29" d="M908.82,1677.57c-.73.39-.8,1-.15,1.36l4.1,2.24a3.07,3.07,0,0,0,1.09.37,3.8,3.8,0,0,0,1.45-.42l5.38-2.87c.74-.39.8-1,.15-1.36l-4.1-2.24a3,3,0,0,0-2.53.06Z"/><path class="cls-29" d="M958.66,1651.3c-.74.39-.8,1-.15,1.36l4.09,2.23a2.69,2.69,0,0,0,1.1.37,3.73,3.73,0,0,0,1.44-.42l5.39-2.86c.74-.39.8-1,.15-1.36l-4.11-2.24a3,3,0,0,0-2.52.06Z"/><path class="cls-29" d="M1008.5,1625c-.74.39-.8,1-.15,1.37l4.09,2.23a2.64,2.64,0,0,0,1.1.37,3.73,3.73,0,0,0,1.44-.42l5.39-2.86c.73-.39.8-1,.15-1.36l-4.11-2.25a3,3,0,0,0-2.53.06Z"/><path class="cls-29" d="M1058.33,1598.75c-.73.39-.8,1-.14,1.36l4.09,2.24a2.63,2.63,0,0,0,1.09.37,3.76,3.76,0,0,0,1.45-.42l5.39-2.86c.73-.39.8-1,.14-1.36l-4.1-2.25a3,3,0,0,0-2.53.06Z"/><path class="cls-29" d="M1158,1546.21c-.74.39-.8,1-.15,1.36l4.09,2.23a2.69,2.69,0,0,0,1.1.37,3.73,3.73,0,0,0,1.44-.42l5.39-2.86c.74-.39.8-1,.15-1.36l-4.11-2.24a3,3,0,0,0-2.52.06Z"/><path class="cls-29" d="M1207.85,1519.93c-.74.39-.8,1-.15,1.36l4.09,2.24a2.69,2.69,0,0,0,1.1.37,3.73,3.73,0,0,0,1.44-.42l5.39-2.86c.74-.39.8-1,.15-1.36l-4.11-2.25a3,3,0,0,0-2.53.06Z"/><path class="cls-29" d="M1257.69,1493.66c-.74.39-.81,1-.15,1.36l4.09,2.24a2.64,2.64,0,0,0,1.1.37,3.78,3.78,0,0,0,1.44-.42l5.39-2.86c.73-.39.8-1,.14-1.36l-4.1-2.25a3,3,0,0,0-2.53.06Z"/><path class="cls-29" d="M1307.52,1467.39c-.73.39-.8,1-.14,1.36l4.09,2.24a3.07,3.07,0,0,0,1.09.37,3.8,3.8,0,0,0,1.45-.42l5.39-2.87c.73-.39.8-1,.14-1.36l-4.1-2.24a3,3,0,0,0-2.53.06Z"/><path class="cls-29" d="M1360.94,1439.05c-.73.39-.8,1-.15,1.36l4.1,2.24a2.63,2.63,0,0,0,1.09.37,3.8,3.8,0,0,0,1.45-.42l5.38-2.86c.74-.39.81-1,.15-1.36l-4.1-2.25a3,3,0,0,0-2.53.06Z"/><path class="cls-29" d="M1058.24,1557.31c-.74.39-.8,1-.15,1.36l4.09,2.23a2.64,2.64,0,0,0,1.1.37,3.53,3.53,0,0,0,1.44-.42l5.39-2.86c.74-.39.8-1,.15-1.36l-4.11-2.24a3,3,0,0,0-2.53.06Z"/><path class="cls-29" d="M860,1662.37c-.74.39-.8,1-.15,1.36L864,1666a3.14,3.14,0,0,0,1.1.37,3.73,3.73,0,0,0,1.44-.42l5.39-2.87c.74-.39.8-1,.15-1.36l-4.11-2.24a3,3,0,0,0-2.52.06Z"/><path class="cls-29" d="M909.85,1636.1c-.74.39-.8,1-.15,1.36l4.09,2.23a2.64,2.64,0,0,0,1.1.37,3.73,3.73,0,0,0,1.44-.42l5.39-2.86c.74-.39.8-1,.15-1.36l-4.11-2.24a3,3,0,0,0-2.53.06Z"/><path class="cls-29" d="M959.69,1609.82c-.74.39-.81,1-.15,1.36l4.09,2.24a2.63,2.63,0,0,0,1.09.37,3.76,3.76,0,0,0,1.45-.42l5.39-2.86c.73-.39.8-1,.14-1.36l-4.1-2.25a3,3,0,0,0-2.53.06Z"/><path class="cls-29" d="M1009.52,1583.55c-.73.39-.8,1-.14,1.36l4.09,2.24a2.63,2.63,0,0,0,1.09.37,3.8,3.8,0,0,0,1.45-.42l5.39-2.86c.73-.39.8-1,.14-1.36l-4.1-2.25a3,3,0,0,0-2.53.06Z"/><path class="cls-29" d="M1109.2,1531c-.74.39-.8,1-.15,1.36l4.09,2.23a2.69,2.69,0,0,0,1.1.37,3.73,3.73,0,0,0,1.44-.42l5.39-2.86c.74-.39.8-1,.15-1.36l-4.11-2.24a3,3,0,0,0-2.53.05Z"/><path class="cls-29" d="M1159,1504.73c-.74.39-.8,1-.15,1.36l4.09,2.24a2.64,2.64,0,0,0,1.1.37,3.73,3.73,0,0,0,1.44-.42l5.39-2.86c.73-.39.8-1,.15-1.36l-4.11-2.25a3,3,0,0,0-2.53.06Z"/><path class="cls-29" d="M1208.87,1478.46c-.73.39-.8,1-.14,1.36l4.09,2.24a2.63,2.63,0,0,0,1.09.37,3.76,3.76,0,0,0,1.45-.42l5.39-2.86c.73-.39.8-1,.14-1.37l-4.1-2.24a3,3,0,0,0-2.53.06Z"/><path class="cls-29" d="M1258.71,1452.19c-.73.39-.8,1-.14,1.36l4.09,2.24a2.69,2.69,0,0,0,1.09.36,3.41,3.41,0,0,0,1.45-.42l5.38-2.86c.74-.39.81-1,.15-1.36l-4.1-2.24a3,3,0,0,0-2.53.06Z"/><path class="cls-29" d="M1306.5,1425.23c-.74.39-.8,1-.15,1.36l4.09,2.24a2.69,2.69,0,0,0,1.1.37,3.73,3.73,0,0,0,1.44-.42l5.39-2.86c.74-.39.8-1,.15-1.36l-4.11-2.25a3,3,0,0,0-2.53.06Z"/><path class="cls-29" d="M938,1581.43c-.74.39-.8,1-.15,1.36L942,1585a3.14,3.14,0,0,0,1.1.37,3.73,3.73,0,0,0,1.44-.42l5.39-2.87c.74-.39.8-1,.15-1.36l-4.11-2.24a3,3,0,0,0-2.52.06Z"/><path class="cls-29" d="M739.81,1686.49c-.73.39-.8,1-.14,1.36l4.09,2.24a2.63,2.63,0,0,0,1.09.37,3.8,3.8,0,0,0,1.45-.42l5.38-2.86c.74-.39.81-1,.15-1.37l-4.1-2.24a3,3,0,0,0-2.53.06Z"/><path class="cls-29" d="M789.65,1660.22c-.74.39-.8,1-.15,1.36l4.09,2.24a2.75,2.75,0,0,0,1.1.36,3.35,3.35,0,0,0,1.44-.42l5.39-2.86c.74-.39.8-1,.15-1.36l-4.11-2.24a3,3,0,0,0-2.52.06Z"/><path class="cls-29" d="M839.49,1634c-.74.39-.8,1-.15,1.36l4.09,2.23a2.64,2.64,0,0,0,1.1.37,3.73,3.73,0,0,0,1.44-.42l5.39-2.86c.74-.39.8-1,.15-1.36L847.4,1631a3,3,0,0,0-2.53,0Z"/><path class="cls-29" d="M889.32,1607.67c-.73.39-.8,1-.14,1.36l4.09,2.24a2.63,2.63,0,0,0,1.09.37,3.76,3.76,0,0,0,1.45-.42l5.39-2.86c.73-.39.8-1,.14-1.36l-4.1-2.25a3,3,0,0,0-2.53.06Z"/><path class="cls-29" d="M989,1555.13c-.73.39-.8,1-.15,1.36l4.1,2.24a2.69,2.69,0,0,0,1.09.36,3.41,3.41,0,0,0,1.45-.42l5.38-2.86c.74-.39.8-1,.15-1.36l-4.11-2.24a3,3,0,0,0-2.52.06Z"/><path class="cls-29" d="M1038.84,1528.86c-.74.39-.8,1-.15,1.36l4.09,2.23a2.69,2.69,0,0,0,1.1.37,3.73,3.73,0,0,0,1.44-.42l5.39-2.86c.74-.39.8-1,.15-1.36l-4.11-2.24a3,3,0,0,0-2.53,0Z"/><path class="cls-29" d="M1088.68,1502.58c-.74.39-.8,1-.15,1.36l4.09,2.24a2.64,2.64,0,0,0,1.1.37,3.73,3.73,0,0,0,1.44-.42l5.39-2.86c.73-.39.8-1,.15-1.36l-4.11-2.25a3,3,0,0,0-2.53.06Z"/><path class="cls-29" d="M1138.51,1476.31c-.73.39-.8,1-.14,1.36l4.09,2.24a2.83,2.83,0,0,0,1.09.37,3.76,3.76,0,0,0,1.45-.42l5.39-2.86c.73-.4.8-1,.14-1.37l-4.1-2.24a3,3,0,0,0-2.53.06Z"/><path class="cls-29" d="M1186.3,1449.36c-.73.39-.8,1-.15,1.36l4.1,2.23a2.63,2.63,0,0,0,1.09.37,3.8,3.8,0,0,0,1.45-.42l5.38-2.86c.74-.39.8-1,.15-1.36l-4.11-2.24a3,3,0,0,0-2.52,0Z"/><path class="cls-29" d="M1236.77,1422.41c-.74.39-.8,1-.15,1.36l4.09,2.24a3.14,3.14,0,0,0,1.1.37,3.73,3.73,0,0,0,1.44-.42l5.39-2.87c.74-.39.8-1,.15-1.36l-4.11-2.24a3,3,0,0,0-2.52.06Z"/><path class="cls-29" d="M1443.42,1476.75l4.12,1.7c.38.16.34.8-.07,1l-3.79,2a.41.41,0,0,1-.6-.36l-.34-3.68C1442.7,1477,1443.08,1476.62,1443.42,1476.75Z"/><path class="cls-29" d="M1455.74,1488.32l3.2-2a.39.39,0,0,1,.6.22l.94,3.28c.12.4-.24.85-.59.74l-4.16-1.25C1455.36,1489.17,1455.36,1488.56,1455.74,1488.32Z"/><path class="cls-29" d="M1422,1507.14a.83.83,0,0,1,1.22-.2l1.77,1.39c.39.31.32.67-.16.8l-4.2,1.15c-.48.13-.65-.1-.37-.52Z"/><path class="cls-29" d="M1494.12,1469c-.49.11-.57.45-.17.76l1.76,1.38a.93.93,0,0,0,1.29-.15l2-2.48c.32-.39.17-.62-.32-.52Z"/></g><ellipse class="cls-30" cx="656.54" cy="1696" rx="20.48" ry="23.96" transform="translate(-988.42 920.4) rotate(-43.59)"/><g class="cls-31"><path class="cls-32" d="M651.78,1673.67c-12,.75-19.56,11.35-16.93,23.68a27.39,27.39,0,0,0,16.23,19.2c3.06-13.13,6.8-29,9.74-41.56A22.82,22.82,0,0,0,651.78,1673.67Z"/></g><ellipse class="cls-12" cx="927.88" cy="672.03" rx="113.93" ry="90.61" transform="translate(135.99 1499.98) rotate(-82.19)"/><path class="cls-12" d="M989.8,560.13c26.66,30.32,34.65,85.81,16.82,142-17.78,56.05-56.13,96.72-95.27,106.28,56.46,2.33,108.38-50.19,118.18-121.61C1036.56,635.53,1020,587.78,989.8,560.13Z"/><path class="cls-12" d="M826.8,645.13C847.76,579,897.3,534.34,943,536.78c-.93-.16-1.86-.3-2.8-.43C880.64,528.18,824,582.3,813.72,657.23A164.25,164.25,0,0,0,818.55,726C815.42,701.29,817.86,673.3,826.8,645.13Z"/><path class="cls-33" d="M917,777.93c-39.84-8.67-63.78-62.42-53.47-120,9.11-51,41.94-87.88,77-89.77-39.12-6.75-78.47,32.53-88.59,89.09-10.31,57.63,13.63,111.38,53.47,120a51.6,51.6,0,0,0,13.85,1.11C918.43,778.23,917.69,778.09,917,777.93Z"/><ellipse class="cls-34" cx="1583.31" cy="1366.79" rx="10.98" ry="38.34" transform="translate(-159.7 2523.04) rotate(-74.36)"/><path class="cls-35" d="M1445.24,1175.85l-27.69,44.28a8.74,8.74,0,0,1-3.43,3.15c-6.43,3.33-25.66,14.33-30.06,29-2.21,7.4,5.69,13.78,12.54,10.19l35.92-18.86a8.81,8.81,0,0,0,3.85-4l25.67-54.15a8.79,8.79,0,0,0-2.22-10.44l-1.42-1.21A8.78,8.78,0,0,0,1445.24,1175.85Z"/><path class="cls-35" d="M1427.07,1170.22l-29.09,23a6.28,6.28,0,0,1-3,1.28c-5.09.69-20.57,3.44-27,12.23a6.23,6.23,0,0,0,5.94,9.81l28.52-4a6.29,6.29,0,0,0,3.54-1.76l30.1-30.06a6.25,6.25,0,0,0,1-7.51l-.66-1.15A6.23,6.23,0,0,0,1427.07,1170.22Z"/><path class="cls-36" d="M1393.24,1257c2.9-15.09,20.93-28,27-31.91a8.8,8.8,0,0,0,3.09-3.48l23.12-46.83c.13-.27.28-.53.43-.78a9.3,9.3,0,0,0-1.61,1.9l-27.69,44.28a8.74,8.74,0,0,1-3.43,3.15c-6.43,3.33-25.66,14.33-30.06,29a8.78,8.78,0,0,0,10.39,11A8.45,8.45,0,0,1,1393.24,1257Z"/><path class="cls-36" d="M1373.32,1209.52c5.73-9.28,20.94-13.27,26-14.37a6.19,6.19,0,0,0,2.93-1.53l25.85-24a5.51,5.51,0,0,0-1,.63l-29.09,23a6.28,6.28,0,0,1-3,1.28c-5.09.69-20.57,3.44-27,12.23a6.23,6.23,0,0,0,5.82,9.82A6.08,6.08,0,0,1,1373.32,1209.52Z"/><path class="cls-35" d="M953.45,575.79l227,87.57a39.6,39.6,0,0,1,20,17.06c14.33,24.67,33.8,78.89-53.11,102a40,40,0,0,1-11.57,1.31l-205.21-7a39.67,39.67,0,0,1-26.08-11c-24.75-23.66-70.9-86.29,4-178.13A39.6,39.6,0,0,1,953.45,575.79Z"/><path class="cls-37" d="M928.38,771.36c-25.77-22.54-74.64-83.06-3.91-178.13a39.48,39.48,0,0,1,33.15-15.83l-4.17-1.61a39.6,39.6,0,0,0-44.94,11.81c-74.88,91.84-28.73,154.47-4,178.13a39.67,39.67,0,0,0,26.08,11l6,.21A40,40,0,0,1,928.38,771.36Z"/><path class="cls-37" d="M1036.91,780.32l98.91,3.36a40,40,0,0,0,11.57-1.31c3.93-1,7.63-2.15,11.13-3.31Z"/><path class="cls-35" d="M1322.91,895.73l-95.78-113.32a24.16,24.16,0,0,1-5.71-15c-.44-17.4,5-52.1,58.26-39a24.51,24.51,0,0,1,6.58,2.69L1394,795a24.2,24.2,0,0,1,10.73,13.5c6.31,19.91,12.65,66.92-54.3,94.11A24.13,24.13,0,0,1,1322.91,895.73Z"/><path class="cls-37" d="M1273.12,739.14a22.78,22.78,0,0,1,6.39,1.59L1355.15,772l-68.89-40.83a24.51,24.51,0,0,0-6.58-2.69c-53.23-13.12-58.7,21.58-58.26,39a24,24,0,0,0,2.77,10.61C1222.56,761.23,1227,734.59,1273.12,739.14Z"/><path class="cls-37" d="M1404.7,808.47a24,24,0,0,0-4.16-7.78c7.85,19.5,13.77,57.79-39.43,88.91A22.38,22.38,0,0,1,1335,887l-77.85-69.06,65.79,77.83a24.13,24.13,0,0,0,27.49,6.85C1417.35,875.39,1411,828.38,1404.7,808.47Z"/><path class="cls-35" d="M1430.38,1082.76,1396.13,919a27,27,0,0,1,1.68-17.07c7.48-15.71,28.08-42.89,69.7,3.89a34.21,34.21,0,0,1,4.66,6.73l67.32,127.71a31.09,31.09,0,0,1,3.47,19.07c-3.38,21.81-19,67.69-91.13,47.62C1441.43,1104.09,1432.78,1094.27,1430.38,1082.76Z"/><path class="cls-37" d="M1407.1,922a26.9,26.9,0,0,1,4.28-16.6c6.9-10.13,21.11-24.87,40.76-14.34-31.45-25-47.83-2.71-54.33,10.93a27,27,0,0,0-1.68,17.07L1410.55,988Z"/><path class="cls-37" d="M1539.49,1040.29l-50-94.92,40.71,118.42a31.12,31.12,0,0,1,.51,19.38,82.79,82.79,0,0,1-6.15,14.48c12.32-11.62,16.81-27.76,18.44-38.29A31.09,31.09,0,0,0,1539.49,1040.29Z"/><path class="cls-36" d="M1253.79,728.13l-45.86-23.64-23.64,45.85L1230.15,774a25.79,25.79,0,1,0,23.64-45.85Z"/><path class="cls-35" d="M1244.43,723.23l-45.86-23.65-23.64,45.86,45.86,23.64a25.79,25.79,0,1,0,23.64-45.85Z"/><path class="cls-36" d="M1422.15,879.68l-23.62-25.59-25.59,23.62,23.62,25.59a17.41,17.41,0,0,0,25.59-23.62Z"/><path class="cls-35" d="M1417.42,874.45l-23.63-25.58-25.59,23.62,23.63,25.59a17.42,17.42,0,0,0,25.59-23.63Z"/><path class="cls-35" d="M1499.39,1118.74c-43.4.45-79,27.51-84.44,62.22,21.69,6,46.94,9.39,73.89,9.11,36.17-.38,69.17-7.21,94.48-18.21C1573.7,1141,1539.67,1118.32,1499.39,1118.74Z"/><path class="cls-36" d="M1499.57,1119l1.51-.2c-.61,0-1.23,0-1.85,0-43.4.45-79,27.51-84.44,62.22,3.36.94,6.81,1.8,10.32,2.6C1430.24,1151.94,1460.12,1124.76,1499.57,1119Z"/><path class="cls-35" d="M1545.87,1174.38l23.82,94.31a16.46,16.46,0,0,1-.18,8.67c-3.83,12.93-13.84,53,.28,77.85,7.1,12.52,25.87,10.11,29.86-3.72l21-72.6a16.41,16.41,0,0,0-.43-10.36l-39.69-104.32a16.38,16.38,0,0,0-16.9-10.47l-3.46.34A16.36,16.36,0,0,0,1545.87,1174.38Z"/><path class="cls-36" d="M1620.18,1268.53l-2.57-6.77a17,17,0,0,1-.59,3.38l-21,72.6c-4,13.83-22.76,16.23-29.86,3.72a47.64,47.64,0,0,1-2.77-5.81,56.68,56.68,0,0,0,6.36,19.56c7.1,12.52,25.87,10.11,29.86-3.72l21-72.6A16.41,16.41,0,0,0,1620.18,1268.53Z"/><path class="cls-36" d="M1216.71,708.82l-12.24-6.31-23.65,45.86L1203.36,760C1219.58,744,1220.69,725.08,1216.71,708.82Z"/><path class="cls-38" d="M1200.23,680.42a39.65,39.65,0,0,0-20-17.06l-18.08-7c9,36.86,12.83,86.05-13.18,125.48C1233.74,758.54,1214.46,704.92,1200.23,680.42Z"/><path class="cls-35" d="M1471.76,1178.66l-16.63,57.27a10.21,10.21,0,0,1-2.78,4.53c-6,5.65-23.74,23.72-24,41.26-.12,8.82,10.55,13.37,16.94,7.29l33.59-31.9a10,10,0,0,0,3-5.62l11.34-67.47a10,10,0,0,0-5.69-10.78l-1.94-.89A10,10,0,0,0,1471.76,1178.66Z"/><path class="cls-37" d="M1441.64,1285.87c-1.91-17.44,13.44-37.54,18.74-43.89a10.15,10.15,0,0,0,2.2-4.84l9.49-58.87a8.49,8.49,0,0,1,.22-1,9.71,9.71,0,0,0-.53,1.39l-16.63,57.27a10.21,10.21,0,0,1-2.78,4.53c-6,5.65-23.74,23.72-24,41.26-.11,8,8.58,12.45,15,8.76A9.79,9.79,0,0,1,1441.64,1285.87Z"/><path class="cls-36" d="M1510.17,1120.75l-3.27-20.26-20.26,3.27,3.27,20.26a10.26,10.26,0,1,0,20.26-3.27Z"/><path class="cls-35" d="M1509.45,1117.31l-3.27-20.26-20.26,3.27,3.27,20.26a10.26,10.26,0,1,0,20.26-3.27Z"/><path class="cls-36" d="M1547.85,1184.58l-32.28,60.88-50.65,34.33h0c-19.23-6.09-23.4-31.44-7.14-43.36l31.62-19.49,40.78-52.25h0C1542.43,1159.94,1554,1173,1547.85,1184.58Z"/><path class="cls-35" d="M1549.7,1179.88l-28.29,62.85-48.33,37.52h0c-19.58-4.83-25.37-29.85-9.91-42.8l26.63-22.3,41-54h0C1542.7,1155.65,1555.09,1167.9,1549.7,1179.88Z"/><circle class="cls-39" cx="1237.45" cy="746.45" r="7.81"/><circle class="cls-39" cx="1409" cy="887.71" r="7.81"/><circle class="cls-39" cx="1499.21" cy="1118" r="5.53"/><path class="cls-38" d="M1540,1040.29l-4.36-8.28a33.19,33.19,0,0,1,.6,12.71c-3.7,23.85-20.37,73.19-95.43,55.63a28.14,28.14,0,0,0,11.53,6.63c72.13,20.07,87.75-25.81,91.13-47.63A31.06,31.06,0,0,0,1540,1040.29Z"/><path class="cls-38" d="M1547.14,1130.06c-35.73,36.56-85.38,49.22-122.4,53.26a274.75,274.75,0,0,0,64.09,6.63c36.17-.38,69.18-7.21,94.49-18.21C1577.91,1154.35,1564.77,1139.58,1547.14,1130.06Z"/><path class="cls-40" d="M1488.76,1183.12c-26.33.28-51-2.91-72.41-8.71a63,63,0,0,0-1.4,6.55c21.69,6,46.94,9.39,73.89,9.11,36.16-.38,69.17-7.21,94.48-18.21a64,64,0,0,0-2.23-6C1556.08,1176.29,1523.91,1182.76,1488.76,1183.12Z"/><path class="cls-37" d="M1404.15,860.08l-10.36-11.21-25.59,23.62,13.53,14.64C1392.81,878.6,1399.86,869.31,1404.15,860.08Z"/><path class="cls-38" d="M1404.7,808.47a24.17,24.17,0,0,0-2.43-5.32c-13.9,62.89-55.67,86.29-77.64,94.41a24.12,24.12,0,0,0,25.77,5C1417.35,875.39,1411,828.38,1404.7,808.47Z"/><ellipse class="cls-12" cx="555.05" cy="675.08" rx="148.05" ry="117.75" transform="translate(-189.2 1133.24) rotate(-82.19)"/><ellipse class="cls-34" cx="1043.52" cy="1690.46" rx="10.98" ry="38.34" transform="translate(-865.66 2239.65) rotate(-74.36)"/><ellipse class="cls-41" cx="958.06" cy="1616.97" rx="18.01" ry="62.9" transform="translate(-857.31 2103.67) rotate(-74.36)"/><path class="cls-33" d="M539.73,809.58c-53.66-13-84.08-81.81-68-153.73C486.11,592,532.34,547.13,580.1,547c-52.53-9.94-106.87,37.27-122.62,107.52-16.13,71.92,14.29,140.75,67.95,153.74a75.56,75.56,0,0,0,18.05,2.12C542.23,810.14,541,809.89,539.73,809.58Z"/><path class="cls-35" d="M959.59,1431.87l-47.79,39.91a10.47,10.47,0,0,1-5,2.3c-8.53,1.38-34.39,6.72-44.83,21.77-5.25,7.57,1.34,17.73,10.42,16.19l47.7-8a10.53,10.53,0,0,0,5.86-3.12L975.06,1449a10.46,10.46,0,0,0,1.35-12.65l-1.15-1.9A10.49,10.49,0,0,0,959.59,1431.87Z"/><path class="cls-35" d="M941.09,1418.75,899.61,1434a7.31,7.31,0,0,1-3.93.33c-6-1.11-24.59-3.73-35.16,3.84a7.42,7.42,0,0,0,3.1,13.31l33.8,6a7.44,7.44,0,0,0,4.66-.69l45.26-22.9a7.43,7.43,0,0,0,3.92-8.13l-.32-1.55A7.44,7.44,0,0,0,941.09,1418.75Z"/><path class="cls-36" d="M870.6,1504.49c8.88-16,34.08-23.92,42.43-26.15a10.5,10.5,0,0,0,4.79-2.8l43.56-44.49a10.55,10.55,0,0,1,.78-.72,10.76,10.76,0,0,0-2.53,1.55l-47.8,39.91a10.43,10.43,0,0,1-5.05,2.3c-8.52,1.38-34.39,6.72-44.83,21.77-4.71,6.79.11,15.65,7.7,16.3A10.06,10.06,0,0,1,870.6,1504.49Z"/><path class="cls-36" d="M865.62,1443.36c9.93-8.39,28.65-7.28,34.75-6.65a7.5,7.5,0,0,0,3.88-.65l38.2-17.66a8.24,8.24,0,0,0-1.36.35L899.61,1434a7.31,7.31,0,0,1-3.93.33c-6-1.11-24.59-3.73-35.16,3.84a7.42,7.42,0,0,0,3,13.28A7.24,7.24,0,0,1,865.62,1443.36Z"/><path class="cls-35" d="M624.8,569.6,849.59,753A47.21,47.21,0,0,1,866,779.75c7.09,33.27,9,101.93-98,95.83a47.61,47.61,0,0,1-13.6-2.8l-229.94-84a47.3,47.3,0,0,1-25.49-22.1c-19.26-36-48.33-124.06,70.56-200.37A47.2,47.2,0,0,1,624.8,569.6Z"/><path class="cls-37" d="M523.89,781.92c-20.84-35.1-53.79-121.8,61.61-203.31A47,47,0,0,1,628.92,573l-4.12-3.37a47.2,47.2,0,0,0-55.3-3.28c-118.89,76.31-89.82,164.39-70.56,200.37a47.3,47.3,0,0,0,25.49,22.1l6.75,2.47A47.4,47.4,0,0,1,523.89,781.92Z"/><path class="cls-37" d="M643.54,832.3l110.83,40.48a47.61,47.61,0,0,0,13.6,2.8c4.84.28,9.44.39,13.84.37Z"/><path class="cls-35" d="M924.83,1069.11,858.31,905.19a28.8,28.8,0,0,1-.91-19.1c6-19.87,25-57.16,80.46-22.56a28.77,28.77,0,0,1,6.46,5.49l98.39,112.26a28.82,28.82,0,0,1,7.15,19.28c-.23,24.89-10.48,80.51-96.42,86.5A28.78,28.78,0,0,1,924.83,1069.11Z"/><path class="cls-37" d="M926.46,873.21a26.9,26.9,0,0,1,6.65,4.18l74.14,63.43L944.32,869a28.77,28.77,0,0,0-6.46-5.49c-55.45-34.6-74.51,2.69-80.46,22.56a28.76,28.76,0,0,0-.8,13.06C861,879.5,875.9,851,926.46,873.21Z"/><path class="cls-37" d="M1049.86,1000.56a28.69,28.69,0,0,0-1.83-10.37c1.67,25-5.82,70.6-77.64,86.13a26.68,26.68,0,0,1-28.64-12.68L879.14,956.52l45.69,112.59a28.79,28.79,0,0,0,28.62,18C1039.38,1081.07,1049.63,1025.45,1049.86,1000.56Z"/><path class="cls-35" d="M977.26,1320.88l21.9-198.23a32.15,32.15,0,0,1,8.23-18.71c14.31-15,47.72-38.19,77.54,30.25a40.7,40.7,0,0,1,2.78,9.34l28.94,169.68a37.19,37.19,0,0,1-3.13,22.89c-11.92,23.47-46.64,69.66-120.92,20.18C981.88,1349.14,975.73,1334.81,977.26,1320.88Z"/><path class="cls-37" d="M1010.5,1130.05a32.17,32.17,0,0,1,11-17.23c11.58-8.91,33.14-20.35,51.5-1.13-26.36-40-53.19-20.81-65.61-7.75a32.09,32.09,0,0,0-8.23,18.71l-9.22,83.46Z"/><path class="cls-37" d="M1116.65,1313.21l-21.51-126.11,2.23,149.28a37.17,37.17,0,0,1-6.61,22.14,98.18,98.18,0,0,1-12.34,14.14c18.27-8.6,29.34-25.23,35.1-36.56A37.19,37.19,0,0,0,1116.65,1313.21Z"/><path class="cls-36" d="M908.65,853.57l-43.2-43.79L821.66,853l43.2,43.79a30.75,30.75,0,0,0,43.79-43.19Z"/><path class="cls-35" d="M899.86,844.54l-43.2-43.79L812.87,844l43.2,43.79a30.76,30.76,0,0,0,43.79-43.2Z"/><path class="cls-36" d="M1043.24,1087.71,1026,1050l-37.75,17.28,17.28,37.75a20.76,20.76,0,1,0,37.76-17.28Z"/><path class="cls-35" d="M1039.81,1080l-17.28-37.76-37.76,17.28,17.28,37.76a20.76,20.76,0,0,0,37.76-17.28Z"/><path class="cls-35" d="M1042.13,1387.23c-49.35-15.58-99.72,1.88-118.75,39.2,22.33,14.9,49.71,28,80.34,37.72,41.13,13,81.07,17.47,113.82,14.39C1118.1,1440,1087.92,1401.69,1042.13,1387.23Z"/><path class="cls-36" d="M1042.26,1387.54c.6.1,1.18.23,1.78.34-.7-.24-1.39-.48-2.09-.7-49.35-15.58-99.72,1.88-118.75,39.2,3.45,2.3,7,4.56,10.73,6.77C951.46,1399.22,995.39,1379.5,1042.26,1387.54Z"/><path class="cls-35" d="M1074.16,1467.51l-8,115.7a19.45,19.45,0,0,1-3.42,9.75c-9.13,13.24-35.31,54.89-28.54,88.33,3.41,16.81,25.57,21,35.22,6.85l50.66-74.49a19.53,19.53,0,0,0,3.36-11.9l-6.31-132.93a19.49,19.49,0,0,0-15.27-18.12l-4-.9A19.52,19.52,0,0,0,1074.16,1467.51Z"/><path class="cls-36" d="M1123.47,1601.75l-.41-8.63a20.17,20.17,0,0,1-1.92,3.61l-50.66,74.5c-9.65,14.18-31.81,10-35.22-6.86a56.76,56.76,0,0,1-1-7.61,67.43,67.43,0,0,0,0,24.53c3.41,16.81,25.57,21,35.22,6.85l50.66-74.49A19.53,19.53,0,0,0,1123.47,1601.75Z"/><path class="cls-36" d="M873.79,817.94l-11.54-11.69-43.79,43.2L839.69,871C864,858.82,872.26,837.84,873.79,817.94Z"/><path class="cls-38" d="M865.65,779.65a47.28,47.28,0,0,0-16.37-26.75l-17.9-14.61c-3.47,45.11-17.37,102.27-61.45,137.3C874.65,880.59,872.69,812.68,865.65,779.65Z"/><path class="cls-35" d="M988.6,1444.89l-40.07,58.72a12,12,0,0,1-4.83,4.1c-8.94,4.18-35.69,18.09-42.47,37.87-3.41,10,7,19.06,16.5,14.54l49.88-23.7a11.91,11.91,0,0,0,5.46-5.25l37.87-72.26a12,12,0,0,0-2.46-14.32l-1.86-1.72A12,12,0,0,0,988.6,1444.89Z"/><path class="cls-37" d="M914.72,1555.2c4.31-20.47,29.15-37.55,37.51-42.79a12,12,0,0,0,4.29-4.66l32.58-63.19a12.07,12.07,0,0,1,.62-1,11.63,11.63,0,0,0-1.12,1.38l-40.07,58.72a12,12,0,0,1-4.83,4.1c-8.94,4.18-35.69,18.09-42.47,37.87-3.08,9,5.11,17.29,13.73,15.48A11.62,11.62,0,0,1,914.72,1555.2Z"/><path class="cls-36" d="M1053.6,1393.51l3.81-24.17-24.17-3.8-3.81,24.16a12.23,12.23,0,1,0,24.17,3.81Z"/><path class="cls-35" d="M1054.05,1389.34l3.81-24.16-24.17-3.81-3.81,24.17a12.23,12.23,0,0,0,24.17,3.8Z"/><path class="cls-36" d="M1072.63,1479.8l-59.15,57-70.12,20.12h0c-19.54-14-14.86-44.29,8-51.77l43-10.37,65.58-44.09h0C1075.63,1449.87,1083.92,1468.92,1072.63,1479.8Z"/><path class="cls-35" d="M1076.46,1475.17l-55.35,60.72-68.67,24.61h0c-20.4-12.74-17.69-43.25,4.63-52.19l38.45-15.39,66.44-46h0C1077.52,1445.11,1087,1463.58,1076.46,1475.17Z"/><circle class="cls-39" cx="883.34" cy="868.27" r="9.32"/><circle class="cls-39" cx="1025.35" cy="1091.93" r="9.32"/><circle class="cls-39" cx="1042.2" cy="1386.32" r="6.59"/><path class="cls-38" d="M1117.19,1313.38l-1.87-11a39.49,39.49,0,0,1-4,14.62c-13,25.65-50.21,75.39-128.76,27.65a33.62,33.62,0,0,0,10.61,11.79c74.29,49.48,109,3.29,120.92-20.18A37,37,0,0,0,1117.19,1313.38Z"/><path class="cls-38" d="M1092,1417.77c-54,28.18-115,24.12-158.44,15a327.44,327.44,0,0,0,70.17,31.27c41.12,13,81.06,17.47,113.81,14.39C1117.9,1456.69,1108.49,1435.09,1092,1417.77Z"/><path class="cls-40" d="M1006.22,1456.25c-30-9.45-56.77-22.24-78.82-36.72a69.71,69.71,0,0,0-4,6.9c22.33,14.9,49.71,28,80.34,37.72,41.13,13,81.07,17.47,113.82,14.39a75.33,75.33,0,0,0-.3-7.66C1085,1473.46,1046.18,1468.87,1006.22,1456.25Z"/><path class="cls-37" d="M1030.1,1058.83l-7.57-16.55-37.76,17.28,9.89,21.61C1010.39,1075.61,1021.82,1067.7,1030.1,1058.83Z"/><path class="cls-38" d="M1049.86,1000.56a29.17,29.17,0,0,0-.78-6.93c-39.07,66.1-95.08,77.13-123,78.19a28.76,28.76,0,0,0,27.34,15.24C1039.38,1081.07,1049.63,1025.45,1049.86,1000.56Z"/></svg>