<svg xmlns="http://www.w3.org/2000/svg" viewBox="0 0 1285.66 1455.18"><defs><style>.cls-1{fill:#191919;}.cls-2{fill:#ee4856;}</style></defs><title>Asset 2</title><g id="Layer_2" data-name="Layer 2"><g id="Layer_1-2" data-name="Layer 1"><path class="cls-1" d="M814.22,528.8V456.19q0-132.82-131.36-169.68a79.77,79.77,0,0,0-20.43-3v62.15q55.1,19,56.92,104.36v77.36q0,82.83,65.32,116.4-65.31,33.2-65.32,115.67V836q-.73,44.88-15,70.24t-42,35.58v59.59a48,48,0,0,0,20.43-.84Q748.54,982,781.38,940.4t32.84-109.1V753.94q1.46-72.62,65-72.61V605.8Q814.23,605.8,814.22,528.8Z"/><path class="cls-1" d="M1097.26,906.29q-14.23-25.37-15-70.24V759.42a185.43,185.43,0,0,0-1.13-20.75h0c0-125.16-158.7-131-158.7-131v73.69q63.49,0,65,72.61V831.3q0,67.5,32.84,109.1t98.52,60.21a48,48,0,0,0,20.43.84V941.86Q1111.48,931.64,1097.26,906.29Z"/><path class="cls-2" d="M583.36,906.29q-14.23-25.37-15-70.24V759.42a185.43,185.43,0,0,0-1.13-20.75h0c0-125.16-158.7-131-158.7-131v73.69q63.49,0,65,72.61V831.3q0,67.5,32.84,109.1t98.52,60.21a48,48,0,0,0,20.43.84V941.86Q597.58,931.64,583.36,906.29Z"/><path class="cls-2" d="M188.4,906.29q14.23-25.37,15-70.24V759.42a185.43,185.43,0,0,1,1.13-20.75h0c0-125.16,158.7-131,158.7-131v73.69q-63.49,0-65,72.61V831.3q0,67.5-32.84,109.1t-98.52,60.21a48,48,0,0,1-20.43.84V941.86Q174.17,931.64,188.4,906.29Z"/><circle class="cls-2" cx="43.44" cy="976.59" r="38"/><circle class="cls-2" cx="1240.97" cy="976.59" r="38"/><path class="cls-1" d="M1196.51,1053.75v142.76H89.14V1055.19A90.49,90.49,0,0,1,0,1053.86v231.79H1285.66V1055.3a90.51,90.51,0,0,1-89.14-1.55Z"/><path class="cls-1" d="M89.14,896.41V89.14H1196.51v808.7a90.51,90.51,0,0,1,89.14-1.55V0H0V897.74a90.49,90.49,0,0,1,89.14-1.33Z"/><path class="cls-2" d="M78,1453.79l-46-60.42v60.42H2.41v-108.6H30l46,60.73v-60.73h29.44v108.6Z"/><path class="cls-1" d="M254.36,1399.41c0,31.91-25.1,55.77-59.18,55.77S136,1431.48,136,1399.41c0-31.91,25.1-55.15,59.18-55.15S254.36,1367.65,254.36,1399.41Zm-85.36.16c0,16.42,12.39,28.66,26.65,28.66s25.72-12.24,25.72-28.66-11.46-28.35-25.72-28.35C181.24,1371.21,169,1383.14,169,1399.56Z"/><path class="cls-1" d="M334.19,1424.5h-17v29.28H284.92v-108.6h50.66c29.12,0,45.86,13.94,45.86,38.58,0,16.11-6.51,27.89-18.28,34.55l22,35.48H348.59Zm1.39-24.79c9.6,0,15.18-5.27,15.18-15,0-9.45-5.58-14.72-15.18-14.72H317.15v29.75Z"/><path class="cls-1" d="M463.28,1345.18c35.17,0,58.41,21.53,58.41,54.22s-23.7,54.38-59.49,54.38H415.72v-108.6Zm-15.34,83.35h16.27c14.72,0,24.63-11.46,24.63-28.82,0-17.51-10.69-29.13-26.18-29.13H447.94Z"/><path class="cls-1" d="M552.25,1453.79v-108.6h32.22v108.6Z"/><path class="cls-1" d="M718.36,1363.47l-18.59,22c-6.82-8.68-16.89-14.41-25.87-14.41-14.72,0-25.87,11.93-25.87,27.89s11.15,28,25.87,28c8.37,0,18.44-5,25.87-12.55l18.59,19.83c-11.77,12.7-29.59,20.91-46,20.91-33,0-57.32-23.86-57.32-55.93,0-31.6,24.79-55,58.41-55C689.86,1344.26,707.36,1351.69,718.36,1363.47Z"/><path class="cls-2" d="M839.78,1453.79v-40.43H801.2v40.43H769v-108.6H801.2v43.22h38.58v-43.22H872v108.6Z"/><path class="cls-1" d="M938,1436.43l-6.51,17.35H898.38l46.32-108.6h33.15l44.77,108.6H988.24l-6.35-17.35Zm22.31-59L947,1412.89h26.34Z"/><path class="cls-1" d="M1144.2,1363.47l-18.59,22c-6.82-8.68-16.89-14.41-25.87-14.41-14.72,0-25.87,11.93-25.87,27.89s11.15,28,25.87,28c8.37,0,18.44-5,25.87-12.55l18.59,19.83c-11.77,12.7-29.59,20.91-46,20.91-33,0-57.32-23.86-57.32-55.93,0-31.6,24.79-55,58.41-55C1115.7,1344.26,1133.2,1351.69,1144.2,1363.47Z"/><path class="cls-1" d="M1216.9,1414.13l-12.24,13.63v26h-32.22v-108.6h32.22V1387l36.41-41.83h37.18l-39.35,44.15,41.83,64.45h-38.58Z"/></g></g></svg>