<svg xmlns="http://www.w3.org/2000/svg" viewBox="0 0 1858.18 399.87"><defs><style>.cls-1{fill:#fff;}.cls-2{fill:#ee4856;}</style></defs><title>Asset 11</title><g id="Layer_2" data-name="Layer 2"><g id="Layer_1-2" data-name="Layer 1"><path class="cls-1" d="M253.24,164.47V141.89q0-41.31-40.86-52.77a24.81,24.81,0,0,0-6.36-.95V107.5q17.14,5.9,17.7,32.46V164q0,25.76,20.31,36.2-20.31,10.33-20.31,36V260q-.23,14-4.65,21.85A24,24,0,0,1,206,292.94v18.53a14.93,14.93,0,0,0,6.36-.26q20.43-5.79,30.64-18.73t10.21-33.93V234.49q.45-22.59,20.2-22.58V188.42Q253.24,188.42,253.24,164.47Z"/><path class="cls-1" d="M341.27,281.87Q336.84,274,336.62,260V236.2a57.67,57.67,0,0,0-.35-6.45h0c0-38.93-49.36-40.76-49.36-40.76v22.92q19.75,0,20.2,22.58v24.06q0,21,10.21,33.93T348,311.21a14.93,14.93,0,0,0,6.36.26V292.94A24,24,0,0,1,341.27,281.87Z"/><path class="cls-2" d="M181.44,281.87Q177,274,176.78,260V236.2a57.67,57.67,0,0,0-.35-6.45h0c0-38.93-49.36-40.76-49.36-40.76v22.92q19.75,0,20.2,22.58v24.06q0,21,10.21,33.93t30.64,18.73a14.93,14.93,0,0,0,6.36.26V292.94A24,24,0,0,1,181.44,281.87Z"/><path class="cls-2" d="M58.6,281.87Q63,274,63.25,260V236.2a57.67,57.67,0,0,1,.35-6.45h0C63.6,190.82,113,189,113,189v22.92q-19.75,0-20.2,22.58v24.06q0,21-10.21,33.93T51.9,311.21a14.93,14.93,0,0,1-6.36.26V292.94A24,24,0,0,0,58.6,281.87Z"/><circle class="cls-2" cx="13.51" cy="303.74" r="11.82"/><circle class="cls-2" cx="385.97" cy="303.74" r="11.82"/><path class="cls-1" d="M372.14,327.74v44.4H27.73v-44A28.14,28.14,0,0,1,0,327.77v72.09H399.87V328.22a28.15,28.15,0,0,1-27.73-.48Z"/><path class="cls-1" d="M27.73,278.8V27.73H372.14V279.25a28.15,28.15,0,0,1,27.73-.48V0H0V279.22a28.14,28.14,0,0,1,27.73-.41Z"/><path class="cls-2" d="M554.53,258.54,504.65,193v65.49H472.58V140.82h29.89l49.87,65.83V140.82h31.91V258.54Z"/><path class="cls-1" d="M745.67,199.6c0,34.59-27.2,60.45-64.15,60.45s-64.15-25.69-64.15-60.45c0-34.59,27.2-59.78,64.15-59.78S745.67,165.17,745.67,199.6Zm-92.53.17c0,17.8,13.43,31.07,28.88,31.07s27.87-13.27,27.87-31.07S697.48,169,682,169C666.41,169,653.14,182,653.14,199.77Z"/><path class="cls-1" d="M832.2,226.8H813.72v31.74H778.8V140.82h54.91c31.57,0,49.71,15.11,49.71,41.81,0,17.46-7.05,30.23-19.81,37.45l23.85,38.45H847.81Zm1.51-26.87c10.41,0,16.46-5.71,16.46-16.29,0-10.24-6-16-16.46-16h-20v32.24Z"/><path class="cls-1" d="M972.12,140.82c38.12,0,63.31,23.34,63.31,58.77s-25.69,58.94-64.48,58.94H920.57V140.82ZM955.5,231.17h17.63c16,0,26.7-12.43,26.7-31.23,0-19-11.59-31.57-28.38-31.57h-16Z"/><path class="cls-1" d="M1068.56,258.54V140.82h34.93V258.54Z"/><path class="cls-1" d="M1248.61,160.64l-20.15,23.84c-7.39-9.4-18.3-15.62-28-15.62-16,0-28,12.93-28,30.23s12.09,30.39,28,30.39c9.07,0,20-5.37,28-13.6l20.15,21.49c-12.76,13.77-32.07,22.67-49.87,22.67-35.77,0-62.13-25.86-62.13-60.62,0-34.26,26.87-59.61,63.31-59.61C1217.72,139.82,1236.69,147.88,1248.61,160.64Z"/><path class="cls-2" d="M1380.22,258.54V214.71h-41.81v43.83h-34.93V140.82h34.93v46.85h41.81V140.82h34.93V258.54Z"/><path class="cls-1" d="M1486.73,239.73l-7.05,18.81h-35.94l50.21-117.71h35.94l48.53,117.71h-37.28l-6.88-18.81Zm24.18-64-14.44,38.45H1525Z"/><path class="cls-1" d="M1710.19,160.64,1690,184.48c-7.39-9.4-18.3-15.62-28-15.62-16,0-28,12.93-28,30.23s12.09,30.39,28,30.39c9.07,0,20-5.37,28-13.6l20.15,21.49c-12.76,13.77-32.07,22.67-49.87,22.67-35.77,0-62.13-25.86-62.13-60.62,0-34.26,26.87-59.61,63.31-59.61C1679.29,139.82,1698.27,147.88,1710.19,160.64Z"/><path class="cls-1" d="M1789,215.55l-13.27,14.78v28.21H1740.8V140.82h34.93v45.34l39.46-45.34h40.3l-42.65,47.86,45.34,69.86h-41.81Z"/></g></g></svg>