<svg id="Layer_1" data-name="Layer 1" xmlns="http://www.w3.org/2000/svg" viewBox="0 0 2000 565.07"><defs><style>.cls-1{fill:#2f2f30;}.cls-2{fill:#fff;}</style></defs><title>Artboard 3</title><path class="cls-1" d="M7.63,330.63V26.14H98V330.63Z"/><path class="cls-1" d="M412.77,332.68l-.44-180.27L351.09,302.7H292L230.77,152.41V332.68H151.28V28.18h96.86l73.41,168.54L395,28.18h96.86v304.5Z"/><path class="cls-1" d="M657.92,284l-18.25,48.65H546.72L676.59,28.18h93l125.53,304.5H798.65L780.84,284Zm62.54-165.5L683.11,218H757Z"/><path class="cls-1" d="M1201.62,175V297.49c-33,22.59-86.88,39.1-130.31,39.1-94.26,0-163.76-66.46-163.76-155.94,0-89.05,71.67-155.07,169.84-155.07,46.48,0,96.43,17.81,128.57,46l-51.25,62.12c-20.85-20-51.26-33-77.75-33-43.88,0-76.89,34.32-76.89,79.93,0,46.48,33.45,80.36,77.75,80.36,12.6,0,29.54-4.35,46-11.73V175Z"/><path class="cls-1" d="M1610.17,332.68l-129-169.41V332.68h-83V28.18h77.31l129,170.28V28.18h82.53v304.5Z"/><path class="cls-1" d="M1828.66,97.68v47.78h143.77V215H1828.66v48.22h162.89v69.5H1738.31V28.18H1987.2v69.5Z"/><path class="cls-1" d="M96.57,422.06V537.55H51.45V422.06H7.63V386.23h133v35.83Z"/><path class="cls-1" d="M303.8,461.78c0,44.47-35,77.71-82.46,77.71s-82.46-33-82.46-77.71c0-44.47,35-76.85,82.46-76.85S303.8,417.53,303.8,461.78ZM184.86,462c0,22.88,17.27,39.93,37.13,39.93s35.83-17.05,35.83-39.93-16-39.51-35.83-39.51C201.91,422.49,184.86,439.12,184.86,462Z"/><path class="cls-1" d="M450.59,537.55,450.38,448l-30.44,74.69H390.58L360.14,448v89.58h-39.5V386.23h48.14L405.26,470l36.48-83.76h48.14V537.55Z"/><path class="cls-1" d="M671.64,461.78c0,44.47-35,77.71-82.46,77.71s-82.46-33-82.46-77.71c0-44.47,35-76.85,82.46-76.85S671.64,417.53,671.64,461.78ZM552.7,462c0,22.88,17.27,39.93,37.13,39.93s35.83-17.05,35.83-39.93-16-39.51-35.83-39.51C569.75,422.49,552.7,439.12,552.7,462Z"/><path class="cls-1" d="M757.13,496.75H733.38v40.8h-44.9V386.23h70.59c40.58,0,63.9,19.43,63.9,53.75,0,22.45-9.07,38.86-25.48,48.14l30.66,49.43H777.2Zm1.94-34.54c13.38,0,21.15-7.34,21.15-20.93,0-13.17-7.77-20.51-21.15-20.51H733.38v41.44Z"/><path class="cls-1" d="M913.63,496.75H889.89v40.8H845V386.23h70.59c40.58,0,63.89,19.43,63.89,53.75,0,22.45-9.07,38.86-25.47,48.14l30.65,49.43H933.71Zm2-34.54c13.38,0,21.15-7.34,21.15-20.93,0-13.17-7.77-20.51-21.15-20.51H889.89v41.44Z"/><path class="cls-1" d="M1157.78,461.78c0,44.47-35,77.71-82.46,77.71s-82.46-33-82.46-77.71c0-44.47,35-76.85,82.46-76.85S1157.78,417.53,1157.78,461.78Zm-118.94.22c0,22.88,17.27,39.93,37.12,39.93s35.84-17.05,35.84-39.93-16-39.51-35.84-39.51C1055.89,422.49,1038.84,439.12,1038.84,462Z"/><path class="cls-1" d="M1303.27,537.55l-24.17-96.49-24.61,96.49h-46.2l-49.21-151.32H1207l25.9,104.69,25.26-104.48,43.82-.21,25.9,104.69,25.26-104.69h46l-49.65,151.32Z"/><path class="cls-2" d="M1450.18,384.25c14.32,0,23.45,6.21,23.45,16,0,6.75-4.2,12.13-11,14,8,1.55,13.14,7.84,13.14,16.14,0,10.86-9.49,17.7-24.54,17.7H1420V384.25Zm-14,25.55h13.14c4.74,0,7.75-2.56,7.75-6.66s-3-6.48-7.75-6.48h-13.14Zm0,25.81h13.14c6,0,9.76-2.64,9.76-7.2,0-4.29-3.74-6.94-9.76-6.94h-13.14Z"/><path class="cls-2" d="M1518.15,448.11H1502V428l-23.62-43.7h16.23L1510,412.08l15.06-27.83h16.23l-23.17,43.25Z"/><path class="cls-2" d="M1603.09,448.11V423.3h-26.46v24.81H1560.4V384.25h16.23v26.28h26.46V384.25h16.24v63.86Z"/><path class="cls-2" d="M1646.61,436.34,1642,448.11h-16.7l27.55-63.86h16.7l26.91,63.86h-17.33l-4.56-11.77Zm14.05-35.94-9.3,23.63h18.42Z"/><path class="cls-2" d="M1756.27,394.47l-9.39,11.13c-4.2-5.11-10.4-8.3-16.06-8.3-10.13,0-17.79,8-17.79,18.52,0,10.67,7.66,18.79,17.79,18.79,5.38,0,11.59-2.92,16.06-7.48l9.48,10c-6.84,7-17,11.67-26.36,11.67-19.25,0-33.57-14.14-33.57-32.84,0-18.43,14.68-32.29,34.12-32.29A37.06,37.06,0,0,1,1756.27,394.47Z"/><path class="cls-2" d="M1788.48,423l-8.48,9.39v15.69h-16.24V384.25H1780V411.9l24.45-27.65h18.79l-23.72,26.46,25.27,37.4h-19.43Z"/><path class="cls-2" d="M1831.91,448.11V384.25h16.24v63.86Z"/><path class="cls-2" d="M1905.53,448.11l-29.37-39.32v39.32h-15.24V384.25h14.33l29.46,39.41V384.25h15.15v63.86Z"/><path class="cls-2" d="M1989.1,415.64v24.9c-6.84,4.84-17.6,8.3-26.54,8.3-19.44,0-34.12-14-34.12-32.66s15-32.47,35.21-32.47c9.49,0,19.52,3.64,26.09,9.48l-9.12,11a26.19,26.19,0,0,0-17.06-6.93c-10.49,0-18.52,8.21-18.52,18.88,0,10.86,8.12,19.07,18.7,19.07a27.18,27.18,0,0,0,11.31-3.1V415.64Z"/><path class="cls-2" d="M1455.29,487.36v50.81h-16.24V487.36H1420V474.22h54.55v13.14Z"/><path class="cls-2" d="M1543.06,506.15c0,18.61-14.78,32.75-34.58,32.75s-34.48-14-34.48-32.75,14.77-32.39,34.48-32.39S1543.06,487.63,1543.06,506.15Zm-52.46.09c0,10.77,8.3,19.07,18.06,19.07s17.7-8.3,17.7-19.07-7.84-18.88-17.7-18.88S1490.6,495.48,1490.6,506.24Z"/><path class="cls-2" d="M1579.1,474.31c20.07,0,33.93,13,33.93,31.93s-14,31.93-34.57,31.93h-26.82V474.31Zm-11.22,50.91h11.58c10,0,17.06-7.67,17.06-18.89s-7.48-19.06-17.79-19.06h-10.85Z"/><path class="cls-2" d="M1634.39,526.4l-4.66,11.77H1613l27.55-63.86h16.7l26.91,63.86h-17.33l-4.57-11.77Zm14-35.94-9.31,23.63h18.43Z"/><path class="cls-2" d="M1718.14,538.17H1702V518l-23.63-43.7h16.24L1710,502.14l15-27.83h16.24l-23.17,43.24Z"/><path class="cls-1" d="M1301.1,211.65h0A32.57,32.57,0,0,1,1268.89,184l-12.1-79.32a32.37,32.37,0,0,1-.37-4.91V58.16A32.57,32.57,0,0,1,1289,25.58h23.85a32.58,32.58,0,0,1,32.58,32.58V99.83a33.07,33.07,0,0,1-.35,4.77l-11.76,79.25A32.56,32.56,0,0,1,1301.1,211.65Z"/><circle class="cls-1" cx="1300.92" cy="284.82" r="43.97"/></svg>