<svg id="Layer_1" data-name="Layer 1" xmlns="http://www.w3.org/2000/svg" viewBox="0 0 2000 565.07"><defs><style>.cls-1{fill:#2f2f30;}.cls-2{fill:#fff;}</style></defs><title>Artboard 3</title><path class="cls-1" d="M77.51,325.37v-283h84v283Z"/><path class="cls-1" d="M454.11,327.28l-.41-167.57L396.77,299.42H341.86L284.93,159.71V327.28H211v-283h90L369.31,200.9,437.55,44.23h90v283Z"/><path class="cls-1" d="M682,282.05l-17,45.23H578.62l120.73-283h86.4l116.69,283H812.81l-16.56-45.23Zm58.14-153.83L705.4,220.68h68.65Z"/><path class="cls-1" d="M1187.39,180.71V294.57c-30.69,21-80.76,36.34-121.13,36.34C978.64,330.91,914,269.13,914,186c0-82.78,66.63-144.15,157.88-144.15,43.2,0,89.64,16.56,119.51,42.8l-47.64,57.74c-19.38-18.57-47.65-30.69-72.27-30.69-40.79,0-71.47,31.9-71.47,74.3,0,43.2,31.09,74.7,72.27,74.7,11.71,0,27.46-4,42.8-10.91v-69Z"/><path class="cls-1" d="M1567.16,327.28,1447.24,169.81V327.28h-77.12v-283H1442l119.92,158.28V44.23h76.71v283Z"/><path class="cls-1" d="M1770.26,108.84v44.41H1903.9v64.61H1770.26v44.81h151.41v64.61h-235.4v-283h231.36v64.61Z"/><path class="cls-1" d="M160.18,410.37V517.72H118.24V410.37H77.51V377.06h123.6v33.31Z"/><path class="cls-1" d="M352.81,447.29c0,41.33-32.5,72.24-76.65,72.24s-76.65-30.71-76.65-72.24c0-41.34,32.51-71.44,76.65-71.44S352.81,406.15,352.81,447.29Zm-110.56.2c0,21.27,16.06,37.12,34.52,37.12s33.3-15.85,33.3-37.12-14.84-36.72-33.3-36.72C258.1,410.77,242.25,426.22,242.25,447.49Z"/><path class="cls-1" d="M489.27,517.72l-.21-83.27-28.29,69.42H433.48l-28.29-69.42v83.27H368.47V377.06h44.75l33.91,77.85L481,377.06h44.75V517.72Z"/><path class="cls-1" d="M694.74,447.29c0,41.33-32.5,72.24-76.65,72.24s-76.65-30.71-76.65-72.24c0-41.34,32.51-71.44,76.65-71.44S694.74,406.15,694.74,447.29Zm-110.56.2c0,21.27,16.05,37.12,34.51,37.12S652,468.76,652,447.49s-14.85-36.72-33.31-36.72C600,410.77,584.18,426.22,584.18,447.49Z"/><path class="cls-1" d="M774.21,479.79H752.13v37.93H710.4V377.06H776c37.73,0,59.4,18.06,59.4,50,0,20.87-8.43,36.12-23.68,44.75l28.49,46H792.87Zm1.8-32.1c12.44,0,19.67-6.82,19.67-19.46,0-12.24-7.23-19.07-19.67-19.07H752.13v38.53Z"/><path class="cls-1" d="M919.69,479.79H897.62v37.93H855.88V377.06h65.61c37.73,0,59.4,18.06,59.4,50,0,20.87-8.43,36.12-23.68,44.75l28.49,46H938.35Zm1.8-32.1c12.44,0,19.67-6.82,19.67-19.46,0-12.24-7.23-19.07-19.67-19.07H897.62v38.53Z"/><path class="cls-1" d="M1146.63,447.29c0,41.33-32.5,72.24-76.65,72.24s-76.65-30.71-76.65-72.24c0-41.34,32.51-71.44,76.65-71.44S1146.63,406.15,1146.63,447.29Zm-110.56.2c0,21.27,16,37.12,34.51,37.12s33.31-15.85,33.31-37.12-14.84-36.72-33.31-36.72C1051.92,410.77,1036.07,426.22,1036.07,447.49Z"/><path class="cls-1" d="M1281.88,517.72,1259.41,428l-22.88,89.7h-42.94l-45.75-140.66h44.55l24.08,97.32,23.47-97.12,40.74-.2,24.08,97.32,23.47-97.32H1371l-46.15,140.66Z"/><path class="cls-2" d="M1418.44,375.22c13.31,0,21.8,5.77,21.8,14.84,0,6.28-3.91,11.28-10.18,13.06,7.46,1.44,12.21,7.29,12.21,15,0,10.09-8.82,16.45-22.81,16.45h-29.09V375.22ZM1405.38,399h12.21c4.41,0,7.21-2.38,7.21-6.2s-2.8-6-7.21-6h-12.21Zm0,24h12.21c5.6,0,9.08-2.46,9.08-6.7,0-4-3.48-6.44-9.08-6.44h-12.21Z"/><path class="cls-2" d="M1481.62,434.58h-15V415.84l-22-40.62h15.09l14.33,25.87,14-25.87h15.09l-21.54,40.2Z"/><path class="cls-2" d="M1560.58,434.58V411.52H1536v23.06h-15.09V375.22H1536v24.42h24.6V375.22h15.09v59.36Z"/><path class="cls-2" d="M1601,423.64l-4.32,10.94h-15.52l25.61-59.36h15.52l25,59.36h-16.11L1627,423.64Zm13.06-33.41-8.65,22h17.13Z"/><path class="cls-2" d="M1703,384.72l-8.74,10.34c-3.9-4.74-9.66-7.71-14.92-7.71-9.41,0-16.54,7.46-16.54,17.21,0,9.92,7.13,17.47,16.54,17.47,5,0,10.77-2.71,14.92-6.95l8.82,9.33c-6.36,6.53-15.77,10.85-24.5,10.85-17.9,0-31.21-13.14-31.21-30.53,0-17.13,13.65-30,31.71-30A34.48,34.48,0,0,1,1703,384.72Z"/><path class="cls-2" d="M1732.91,411.26,1725,420v14.58h-15.09V375.22H1725v25.7l22.73-25.7h17.47l-22,24.59,23.49,34.77H1748.6Z"/><path class="cls-2" d="M1773.28,434.58V375.22h15.09v59.36Z"/><path class="cls-2" d="M1841.72,434.58,1814.41,398v36.55h-14.16V375.22h13.31L1841,411.85V375.22H1855v59.36Z"/><path class="cls-2" d="M1919.4,404.39v23.15a46.61,46.61,0,0,1-24.68,7.72c-18.06,0-31.72-13.06-31.72-30.36s14-30.19,32.74-30.19c8.82,0,18.15,3.39,24.25,8.82l-8.48,10.26a24.37,24.37,0,0,0-15.86-6.44c-9.75,0-17.21,7.63-17.21,17.55,0,10.09,7.55,17.72,17.38,17.72a25.21,25.21,0,0,0,10.52-2.88V404.39Z"/><path class="cls-2" d="M1423.19,471.06V518.3h-15.1V471.06h-17.72V458.85h50.71v12.21Z"/><path class="cls-2" d="M1504.77,488.53c0,17.3-13.74,30.44-32.14,30.44s-32.05-13.05-32.05-30.44,13.73-30.11,32.05-30.11S1504.77,471.32,1504.77,488.53Zm-48.76.09c0,10,7.72,17.72,16.79,17.72s16.45-7.72,16.45-17.72-7.29-17.56-16.45-17.56S1456,478.61,1456,488.62Z"/><path class="cls-2" d="M1538.27,458.93c18.66,0,31.55,12.05,31.55,29.69s-13.06,29.68-32.14,29.68h-24.93V458.93Zm-10.43,47.32h10.77c9.25,0,15.86-7.12,15.86-17.55s-7-17.72-16.53-17.72h-10.1Z"/><path class="cls-2" d="M1589.67,507.36l-4.33,10.94h-15.51l25.61-59.37H1611l25,59.37h-16.11l-4.24-10.94Zm13.06-33.42-8.65,22h17.13Z"/><path class="cls-2" d="M1667.52,518.3h-15V499.55l-22-40.62h15.09L1660,484.8l14-25.87h15.09l-21.54,40.2Z"/><path class="cls-1" d="M1279.86,214.78h0a30.28,30.28,0,0,1-29.94-25.72l-11.25-73.73a30.33,30.33,0,0,1-.34-4.56V72.1a30.28,30.28,0,0,1,30.28-30.29h22.17a30.29,30.29,0,0,1,30.29,30.29v38.73a30,30,0,0,1-.33,4.44l-10.93,73.67A30.28,30.28,0,0,1,1279.86,214.78Z"/><circle class="cls-1" cx="1279.7" cy="282.79" r="40.87"/></svg>