<svg xmlns="http://www.w3.org/2000/svg" viewBox="0 0 2302.46 546.59"><defs><style>.cls-1{fill:#fff;}</style></defs><title>Artboard 3</title><g id="Layer_1" data-name="Layer 1"><path class="cls-1" d="M345.17,230.78V203.71q0-49.53-49-63.27a29.68,29.68,0,0,0-7.62-1.14v23.18q20.55,7.08,21.23,38.91v28.85q0,30.88,24.35,43.4Q309.81,286,309.8,316.77v28.57q-.27,16.74-5.58,26.2a28.77,28.77,0,0,1-15.65,13.26V407a18,18,0,0,0,7.62-.31q24.49-6.94,36.74-22.45t12.24-40.69V314.73q.56-27.08,24.22-27.08V259.49Q345.18,259.49,345.17,230.78Z"/><path class="cls-1" d="M450.71,371.54q-5.31-9.46-5.58-26.2V316.77a69,69,0,0,0-.42-7.74h0c0-46.67-59.17-48.86-59.17-48.86v27.47q23.67,0,24.22,27.08v28.84q0,25.19,12.24,40.69t36.74,22.45a18,18,0,0,0,7.62.31V384.8A28.77,28.77,0,0,1,450.71,371.54Z"/><path class="cls-1" d="M259.09,371.54q-5.31-9.46-5.58-26.2V316.77a69,69,0,0,0-.42-7.74h0c0-46.67-59.17-48.86-59.17-48.86v27.47q23.67,0,24.21,27.08v28.84q0,25.19,12.25,40.69t36.74,22.45a18,18,0,0,0,7.62.31V384.8A28.77,28.77,0,0,1,259.09,371.54Z"/><path class="cls-1" d="M111.82,371.54q5.31-9.46,5.58-26.2V316.77a69,69,0,0,1,.42-7.74h0c0-46.67,59.17-48.86,59.17-48.86v27.47q-23.67,0-24.22,27.08v28.84q0,25.19-12.24,40.69t-36.74,22.45a18,18,0,0,1-7.62.31V384.8A28.77,28.77,0,0,0,111.82,371.54Z"/><circle class="cls-1" cx="57.77" cy="397.75" r="14.17"/><circle class="cls-1" cx="504.3" cy="397.75" r="14.17"/><path class="cls-1" d="M487.72,426.52v53.23H74.81V427.06a33.75,33.75,0,0,1-33.24-.5V513H521V427.1a33.76,33.76,0,0,1-33.24-.58Z"/><path class="cls-1" d="M74.81,367.85v-301H487.72V368.39a33.76,33.76,0,0,1,33.24-.58V33.6H41.57V368.35a33.75,33.75,0,0,1,33.24-.5Z"/><path class="cls-1" d="M706.38,343.56,646.59,265v78.52H608.13V202.43H644l59.79,78.92V202.43H742V343.56Z"/><path class="cls-1" d="M935.54,272.89c0,41.48-32.62,72.48-76.91,72.48s-76.9-30.8-76.9-72.48c0-41.47,32.61-71.66,76.9-71.66S935.54,231.62,935.54,272.89Zm-110.93.21c0,21.34,16.1,37.24,34.63,37.24s33.41-15.9,33.41-37.24-14.89-36.85-33.41-36.85C840.51,236.25,824.61,251.76,824.61,273.1Z"/><path class="cls-1" d="M1039.27,305.51h-22.15v38.05H975.25V202.43h65.83c37.85,0,59.59,18.12,59.59,50.13,0,20.94-8.45,36.24-23.75,44.9l28.58,46.1H1058Zm1.81-32.21c12.48,0,19.73-6.85,19.73-19.53,0-12.28-7.25-19.13-19.73-19.13h-24V273.3Z"/><path class="cls-1" d="M1207,202.43c45.7,0,75.9,28,75.9,70.46s-30.8,70.67-77.31,70.67h-60.39V202.43Zm-19.93,108.31h21.14c19.13,0,32-14.89,32-37.44,0-22.75-13.89-37.85-34-37.85h-19.13Z"/><path class="cls-1" d="M1322.63,343.56V202.43h41.88V343.56Z"/><path class="cls-1" d="M1538.5,226.19l-24.16,28.59c-8.85-11.28-21.94-18.73-33.62-18.73-19.12,0-33.62,15.5-33.62,36.24s14.5,36.44,33.62,36.44c10.87,0,24-6.44,33.62-16.31l24.16,25.77c-15.3,16.51-38.45,27.18-59.79,27.18-42.88,0-74.49-31-74.49-72.68,0-41.07,32.21-71.46,75.9-71.46C1501.46,201.23,1524.21,210.89,1538.5,226.19Z"/><path class="cls-1" d="M1696.28,343.56V291h-50.13v52.55h-41.87V202.43h41.87V258.6h50.13V202.43h41.88V343.56Z"/><path class="cls-1" d="M1824,321l-8.45,22.55h-43.09l60.2-141.13h43.08l58.18,141.13H1889.2L1881,321Zm29-76.7-17.31,46.1h34.22Z"/><path class="cls-1" d="M2091.88,226.19l-24.16,28.59c-8.86-11.28-21.95-18.73-33.62-18.73-19.13,0-33.62,15.5-33.62,36.24s14.49,36.44,33.62,36.44c10.87,0,24-6.44,33.62-16.31l24.16,25.77c-15.3,16.51-38.46,27.18-59.8,27.18-42.88,0-74.48-31-74.48-72.68,0-41.07,32.21-71.46,75.89-71.46C2054.83,201.23,2077.58,210.89,2091.88,226.19Z"/><path class="cls-1" d="M2186.35,292l-15.91,17.72v33.82h-41.87V202.43h41.87v54.36l47.31-54.36h48.32l-51.13,57.38,54.35,83.75h-50.13Z"/></g></svg>