<svg xmlns="http://www.w3.org/2000/svg" viewBox="0 0 1850.33 398.18"><defs><style>.cls-1{fill:#191919;}.cls-2{fill:#ee4856;}</style></defs><title>Asset 2</title><g id="Layer_2" data-name="Layer 2"><g id="Layer_1-2" data-name="Layer 1"><path class="cls-1" d="M252.17,163.78V141.29q0-41.13-40.68-52.55a24.71,24.71,0,0,0-6.33-.94V107q17.07,5.88,17.63,32.32v24q0,25.65,20.23,36.05-20.23,10.28-20.23,35.82v23.73q-.23,13.9-4.63,21.75a23.9,23.9,0,0,1-13,11v18.45a14.87,14.87,0,0,0,6.33-.26q20.34-5.76,30.51-18.65t10.17-33.79v-24Q252.63,211,272.29,211V187.62Q252.17,187.62,252.17,163.78Z"/><path class="cls-1" d="M339.83,280.68q-4.41-7.86-4.63-21.75V235.2a57.43,57.43,0,0,0-.35-6.43h0c0-38.76-49.15-40.58-49.15-40.58V211q19.66,0,20.12,22.49v24q0,20.91,10.17,33.79T346.5,309.9a14.87,14.87,0,0,0,6.33.26V291.7A23.9,23.9,0,0,1,339.83,280.68Z"/><path class="cls-2" d="M180.67,280.68q-4.41-7.86-4.63-21.75V235.2a57.43,57.43,0,0,0-.35-6.43h0c0-38.76-49.15-40.58-49.15-40.58V211q19.66,0,20.12,22.49v24q0,20.91,10.17,33.79t30.51,18.65a14.87,14.87,0,0,0,6.33.26V291.7A23.9,23.9,0,0,1,180.67,280.68Z"/><path class="cls-2" d="M58.35,280.68q4.41-7.86,4.63-21.75V235.2a57.43,57.43,0,0,1,.35-6.43h0c0-38.76,49.15-40.58,49.15-40.58V211q-19.66,0-20.12,22.49v24q0,20.91-10.17,33.79T51.68,309.9a14.87,14.87,0,0,1-6.33.26V291.7A23.9,23.9,0,0,0,58.35,280.68Z"/><circle class="cls-2" cx="13.45" cy="302.46" r="11.77"/><circle class="cls-2" cx="384.34" cy="302.46" r="11.77"/><path class="cls-1" d="M370.57,326.36v44.21h-343V326.8A28,28,0,0,1,0,326.39v71.79H398.18V326.84a28,28,0,0,1-27.61-.48Z"/><path class="cls-1" d="M27.61,277.62v-250h343V278.07a28,28,0,0,1,27.61-.48V0H0V278a28,28,0,0,1,27.61-.41Z"/><path class="cls-2" d="M552.19,257.45l-49.66-65.21v65.21H470.59V140.23h29.76L550,205.78V140.23h31.77V257.45Z"/><path class="cls-1" d="M742.52,198.75c0,34.45-27.09,60.2-63.88,60.2s-63.88-25.58-63.88-60.2c0-34.45,27.09-59.53,63.88-59.53S742.52,164.48,742.52,198.75Zm-92.14.17c0,17.72,13.38,30.93,28.76,30.93s27.76-13.21,27.76-30.93-12.37-30.6-27.76-30.6C663.6,168.32,650.39,181.2,650.39,198.92Z"/><path class="cls-1" d="M828.68,225.84H810.29v31.6H775.51V140.23h54.68c31.44,0,49.5,15,49.5,41.64,0,17.39-7,30.1-19.73,37.29l23.74,38.29H844.23Zm1.5-26.75c10.37,0,16.39-5.68,16.39-16.22,0-10.2-6-15.89-16.39-15.89h-19.9v32.11Z"/><path class="cls-1" d="M968,140.23c38,0,63,23.24,63,58.53s-25.58,58.69-64.21,58.69H916.68V140.23Zm-16.55,90H969c15.89,0,26.59-12.37,26.59-31.1,0-18.9-11.54-31.44-28.26-31.44H951.46Z"/><path class="cls-1" d="M1064,257.45V140.23h34.78V257.45Z"/><path class="cls-1" d="M1243.34,160l-20.07,23.74c-7.36-9.36-18.23-15.55-27.92-15.55-15.89,0-27.93,12.88-27.93,30.1s12,30.27,27.93,30.27c9,0,19.9-5.35,27.92-13.54l20.07,21.4c-12.71,13.71-31.94,22.57-49.66,22.57-35.62,0-61.87-25.75-61.87-60.36,0-34.11,26.75-59.36,63-59.36C1212.57,139.23,1231.47,147.25,1243.34,160Z"/><path class="cls-2" d="M1374.39,257.45V213.8h-41.64v43.64H1298V140.23h34.78v46.65h41.64V140.23h34.78V257.45Z"/><path class="cls-1" d="M1480.45,238.72l-7,18.73h-35.78l50-117.22h35.78l48.32,117.22h-37.12l-6.86-18.73ZM1504.53,175l-14.38,38.29h28.43Z"/><path class="cls-1" d="M1703,160l-20.07,23.74c-7.36-9.36-18.23-15.55-27.92-15.55-15.89,0-27.93,12.88-27.93,30.1s12,30.27,27.93,30.27c9,0,19.9-5.35,27.92-13.54l20.07,21.4C1690.26,250.09,1671,259,1653.31,259c-35.62,0-61.87-25.75-61.87-60.36,0-34.11,26.75-59.36,63-59.36C1672.2,139.23,1691.1,147.25,1703,160Z"/><path class="cls-1" d="M1781.44,214.64l-13.21,14.72v28.09h-34.78V140.23h34.78v45.15l39.3-45.15h40.13l-42.47,47.66,45.15,69.56h-41.64Z"/></g></g></svg>