<svg xmlns="http://www.w3.org/2000/svg" viewBox="0 0 1285.66 1285.65"><defs><style>.cls-1{fill:#191919;}.cls-2{fill:#ee4856;}</style></defs><title>Asset 3</title><g id="Layer_2" data-name="Layer 2"><g id="Layer_1-2" data-name="Layer 1"><path class="cls-1" d="M814.22,528.8V456.19q0-132.82-131.36-169.68a79.77,79.77,0,0,0-20.43-3v62.15q55.1,19,56.92,104.36v77.36q0,82.83,65.32,116.4-65.31,33.2-65.32,115.67V836q-.73,44.88-15,70.24t-42,35.58v59.59a48,48,0,0,0,20.43-.84Q748.54,982,781.38,940.4t32.84-109.1V753.94q1.46-72.62,65-72.61V605.8Q814.23,605.8,814.22,528.8Z"/><path class="cls-1" d="M1097.26,906.29q-14.23-25.37-15-70.24V759.42a185.43,185.43,0,0,0-1.13-20.75h0c0-125.16-158.7-131-158.7-131v73.69q63.49,0,65,72.61V831.3q0,67.5,32.84,109.1t98.52,60.21a48,48,0,0,0,20.43.84V941.86Q1111.48,931.64,1097.26,906.29Z"/><path class="cls-2" d="M583.36,906.29q-14.23-25.37-15-70.24V759.42a185.43,185.43,0,0,0-1.13-20.75h0c0-125.16-158.7-131-158.7-131v73.69q63.49,0,65,72.61V831.3q0,67.5,32.84,109.1t98.52,60.21a48,48,0,0,0,20.43.84V941.86Q597.58,931.64,583.36,906.29Z"/><path class="cls-2" d="M188.4,906.29q14.23-25.37,15-70.24V759.42a185.43,185.43,0,0,1,1.13-20.75h0c0-125.16,158.7-131,158.7-131v73.69q-63.49,0-65,72.61V831.3q0,67.5-32.84,109.1t-98.52,60.21a48,48,0,0,1-20.43.84V941.86Q174.17,931.64,188.4,906.29Z"/><circle class="cls-2" cx="43.44" cy="976.59" r="38"/><circle class="cls-2" cx="1240.97" cy="976.59" r="38"/><path class="cls-1" d="M1196.51,1053.75v142.76H89.14V1055.19A90.49,90.49,0,0,1,0,1053.86v231.79H1285.66V1055.3a90.51,90.51,0,0,1-89.14-1.55Z"/><path class="cls-1" d="M89.14,896.41V89.14H1196.51v808.7a90.51,90.51,0,0,1,89.14-1.55V0H0V897.74a90.49,90.49,0,0,1,89.14-1.33Z"/></g></g></svg>