<svg xmlns="http://www.w3.org/2000/svg" viewBox="0 0 587.15 664.57"><defs><style>.cls-1{fill:#fff;}.cls-2{fill:#ee4856;}</style></defs><title>Asset 5</title><g id="Layer_2" data-name="Layer 2"><g id="Layer_1-2" data-name="Layer 1"><path class="cls-1" d="M371.85,241.5V208.34q0-60.66-60-77.49a36.43,36.43,0,0,0-9.33-1.39v28.38q25.16,8.67,26,47.66v35.33q0,37.83,29.83,53.16-29.83,15.16-29.83,52.83v35q-.33,20.5-6.83,32.08a35.24,35.24,0,0,1-19.16,16.25v27.21a21.92,21.92,0,0,0,9.33-.38q30-8.5,45-27.5t15-49.83V344.32q.67-33.16,29.66-33.16v-34.5Q371.85,276.66,371.85,241.5Z"/><path class="cls-1" d="M501.11,413.89q-6.5-11.58-6.83-32.08v-35a84.69,84.69,0,0,0-.52-9.47h0c0-57.16-72.48-59.84-72.48-59.84v33.66q29,0,29.66,33.16v35.33q0,30.83,15,49.83t45,27.5a21.92,21.92,0,0,0,9.33.38V430.14A35.24,35.24,0,0,1,501.11,413.89Z"/><path class="cls-2" d="M266.41,413.89q-6.5-11.58-6.83-32.08v-35a84.69,84.69,0,0,0-.52-9.47h0c0-57.16-72.48-59.84-72.48-59.84v33.66q29,0,29.66,33.16v35.33q0,30.83,15,49.83t45,27.5a21.92,21.92,0,0,0,9.33.38V430.14A35.24,35.24,0,0,1,266.41,413.89Z"/><path class="cls-2" d="M86,413.89q6.5-11.58,6.83-32.08v-35a84.69,84.69,0,0,1,.52-9.47h0c0-57.16,72.48-59.84,72.48-59.84v33.66q-29,0-29.66,33.16v35.33q0,30.83-15,49.83t-45,27.5a21.92,21.92,0,0,1-9.33.38V430.14A35.24,35.24,0,0,0,86,413.89Z"/><circle class="cls-2" cx="19.84" cy="446" r="17.35"/><circle class="cls-2" cx="566.74" cy="446" r="17.35"/><path class="cls-1" d="M546.44,481.24v65.2H40.71V481.9A41.32,41.32,0,0,1,0,481.29V587.15H587.15V481.95a41.34,41.34,0,0,1-40.71-.71Z"/><path class="cls-1" d="M40.71,409.38V40.71H546.44V410a41.34,41.34,0,0,1,40.71-.71V0H0V410a41.32,41.32,0,0,1,40.71-.61Z"/><path class="cls-2" d="M35.63,663.93l-21-27.59v27.59H1.1v-49.6H13.7l21,27.73V614.33H48.15v49.6Z"/><path class="cls-1" d="M116.16,639.1c0,14.57-11.46,25.47-27,25.47s-27-10.82-27-25.47,11.46-25.19,27-25.19S116.16,624.59,116.16,639.1Zm-39,.07c0,7.5,5.66,13.09,12.17,13.09s11.74-5.59,11.74-13.09-5.24-12.95-11.74-12.95S77.18,631.67,77.18,639.17Z"/><path class="cls-1" d="M152.62,650.56h-7.78v13.37H130.12v-49.6h23.14c13.3,0,20.94,6.37,20.94,17.62,0,7.36-3,12.74-8.35,15.78l10,16.2H159.2Zm.64-11.32c4.39,0,6.93-2.41,6.93-6.86s-2.55-6.72-6.93-6.72h-8.42v13.58Z"/><path class="cls-1" d="M211.58,614.33c16.06,0,26.67,9.83,26.67,24.76s-10.82,24.83-27.17,24.83H189.85v-49.6Zm-7,38.06H212c6.72,0,11.25-5.24,11.25-13.16s-4.88-13.3-12-13.3h-6.72Z"/><path class="cls-1" d="M252.21,663.93v-49.6h14.72v49.6Z"/><path class="cls-1" d="M328.07,622.68l-8.49,10c-3.11-4-7.71-6.58-11.82-6.58-6.72,0-11.82,5.45-11.82,12.74s5.09,12.81,11.82,12.81c3.82,0,8.42-2.26,11.82-5.73l8.49,9.06c-5.38,5.8-13.51,9.55-21,9.55-15.07,0-26.18-10.9-26.18-25.54,0-14.43,11.32-25.12,26.67-25.12A29.16,29.16,0,0,1,328.07,622.68Z"/><path class="cls-2" d="M383.52,663.93V645.46H365.9v18.47H351.19v-49.6H365.9v19.74h17.62V614.33h14.72v49.6Z"/><path class="cls-1" d="M428.4,656l-3,7.92H410.28l21.15-49.6h15.14L467,663.93H451.32l-2.9-7.92Zm10.19-27-6.08,16.2h12Z"/><path class="cls-1" d="M522.55,622.68l-8.49,10c-3.11-4-7.71-6.58-11.82-6.58-6.72,0-11.82,5.45-11.82,12.74s5.09,12.81,11.82,12.81c3.82,0,8.42-2.26,11.82-5.73l8.49,9.06c-5.38,5.8-13.51,9.55-21,9.55-15.07,0-26.18-10.9-26.18-25.54,0-14.43,11.32-25.12,26.67-25.12A29.16,29.16,0,0,1,522.55,622.68Z"/><path class="cls-1" d="M555.75,645.82,550.16,652v11.89H535.44v-49.6h14.72v19.1l16.63-19.1h17l-18,20.16,19.1,29.43H567.28Z"/></g></g></svg>