<svg id="Layer_1" data-name="Layer 1" xmlns="http://www.w3.org/2000/svg" viewBox="0 0 2000 2000"><defs><style>.cls-1{fill:#2f2f30;}.cls-2,.cls-9{fill:#38b299;}.cls-12,.cls-2,.cls-4,.cls-5,.cls-6,.cls-7{fill-rule:evenodd;}.cls-3,.cls-7{fill:#454545;}.cls-4,.cls-8{fill:#115447;}.cls-5{fill:#a5b2af;}.cls-6{fill:#1e806c;}.cls-10,.cls-13{fill:none;stroke-miterlimit:22.93;}.cls-10{stroke:#808d8b;stroke-width:4.8px;}.cls-11{fill:#d7e5e2;}.cls-12,.cls-14{fill:#808d8b;}.cls-13{stroke:#d7e5e2;stroke-width:1.2px;}.cls-15{fill:#f4a017;}.cls-16{fill:#531037;}.cls-17{fill:#d88580;}.cls-18{fill:#e99f96;}.cls-19{fill:#c6d0df;}.cls-20{fill:#fff;}.cls-21{fill:#f1ecd7;}.cls-22{fill:#2b2a2a;}.cls-23{fill:#e54218;}.cls-24{fill:#5db466;}.cls-25{fill:#417795;}.cls-26{fill:#5a7c8d;opacity:0.22;}.cls-27{fill:#f3f2f3;}</style></defs><title>Artboard 2</title><path class="cls-1" d="M980.23,499.28q.91-2.25,1.78-4.51H968a148.12,148.12,0,0,1-32,47.6A161.4,161.4,0,0,0,888.7,655.66h13.11a147.32,147.32,0,0,1,43.43-104A160.75,160.75,0,0,0,980.23,499.28Z"/><path class="cls-1" d="M1111.67,594.74a160.9,160.9,0,0,0-35-52.37,148.15,148.15,0,0,1-32-47.6h-14q.85,2.26,1.78,4.51a160.44,160.44,0,0,0,35,52.36,147.31,147.31,0,0,1,43.42,104h13.11A160.68,160.68,0,0,0,1111.67,594.74Z"/><path class="cls-1" d="M765,517.16a138.24,138.24,0,0,0,30.14,45.11l74.7,74.7h20.74L805.52,551.9a123.33,123.33,0,0,1-35.25-70.77H755.48A138.52,138.52,0,0,0,765,517.16Z"/><path class="cls-1" d="M1236.6,517.16a138.56,138.56,0,0,1-30.14,45.11l-74.7,74.7H1111l85.07-85.07a123.45,123.45,0,0,0,35.25-70.77h14.78A138.5,138.5,0,0,1,1236.6,517.16Z"/><path class="cls-1" d="M1675.83,874.44a136.16,136.16,0,0,0-61.37-50.32l-45.57-18.85a135.84,135.84,0,0,0-52.23-10.38H1287.34V809.3h229.32a121.63,121.63,0,0,1,46.73,9.28L1609,837.43a121.86,121.86,0,0,1,75.52,113v122.38a121.41,121.41,0,0,1-35.81,86.43l-136.87,136.88a136.64,136.64,0,0,0-40,96.62v194.57h14.41V1392.69a121.4,121.4,0,0,1,35.8-86.43l136.87-136.88a136.7,136.7,0,0,0,40-96.62V950.38A136.16,136.16,0,0,0,1675.83,874.44Z"/><path class="cls-2" d="M661.53,622.3h55c14.53,0,21.5,2,26.48,26.45,23.26,114.32,130.33,201.38,260.26,201.38,130.3,0,238.69-87.35,260.46-202.38,3.73-19.72,15.92-25.45,24.17-25.45h57.13a28.93,28.93,0,0,1,28.85,28.85V918.2a28.93,28.93,0,0,1-28.85,28.86H661.53a28.94,28.94,0,0,1-28.85-28.86V651.15A28.93,28.93,0,0,1,661.53,622.3Z"/><rect class="cls-3" x="600.07" y="576.56" width="806.45" height="73.69"/><polygon class="cls-4" points="1373.9 650.25 1373.9 918.2 1360.32 984.15 1003.29 1091.65 647.56 985.27 632.68 918.2 632.68 650.25 1373.9 650.25"/><path class="cls-5" d="M943.14,650.25h114.17L1224,709.84c-36.48,72.2-121.51,122.82-220.59,122.82-102.34,0-189.68-54-224-130Z"/><path class="cls-2" d="M1358.59,993,1313,1142.24c-20.84,68.24-65.87,80.14-90.15,80.14H785.67c-31.86,0-72.06-20.87-90.16-80.14l-48-157c-4.62-15.14,2-24.34,21.87-24.34h670.41C1356.58,960.93,1364.22,974.53,1358.59,993Z"/><path class="cls-6" d="M792.6,1190c-36.5,0-45.71-5-60.38-48.62l-43.64-129.77c-3.75-11.15,1.34-18.32,14.69-18.32h600c13.35,0,18.44,7.17,14.7,18.32l-43.65,129.77C1259.69,1185,1245.3,1190,1214,1190Z"/><path class="cls-7" d="M799.18,1190c-17.79,0-49.37-2.65-56.07-37.81l-19.24-100.89c-1.71-9,1.07-14.24,11.66-14.24h535.52c10.6,0,13.38,5.26,11.66,14.24l-19.24,100.89c-6.7,35.16-38.51,37.81-56.07,37.81Z"/><path class="cls-2" d="M661.53,630.35h55c14.53,0,21.5,2,26.48,26.45,23.26,114.32,130.33,193.33,260.26,193.33,130.3,0,238.69-79.31,260.46-194.33,3.73-19.73,15.92-25.45,24.17-25.45h57.13a28.93,28.93,0,0,1,28.85,28.85v259a28.93,28.93,0,0,1-28.85,28.86H661.53a28.94,28.94,0,0,1-28.85-28.86v-259A28.93,28.93,0,0,1,661.53,630.35Z"/><path class="cls-6" d="M717.8,630.35c13.68.13,20.4,2.71,25.23,26.45,23.26,114.32,130.33,193.33,260.26,193.33,130.3,0,238.69-79.31,260.46-194.33,3.73-19.73,15.92-25.45,24.17-25.45h.86c-9.13,140.28-133.45,243.36-285.49,243.36S726.94,770.63,717.8,630.35Z"/><ellipse class="cls-8" cx="577.16" cy="613.41" rx="12.11" ry="36.84"/><rect class="cls-9" x="577.16" y="554.65" width="22.91" height="117.52"/><ellipse class="cls-8" cx="1429.42" cy="613.41" rx="12.11" ry="36.84"/><rect class="cls-9" x="1406.52" y="554.65" width="22.91" height="117.52"/><line class="cls-10" x1="600.07" y1="613.41" x2="1406.52" y2="613.41"/><line class="cls-10" x1="770.59" y1="589.85" x2="770.59" y2="636.97"/><line class="cls-10" x1="1235.99" y1="589.85" x2="1235.99" y2="636.97"/><path class="cls-11" d="M774.41,1045.45H793.2a6.11,6.11,0,0,1,6.11,6.11v15.63a6.11,6.11,0,0,1-6.11,6.11H774.41a6.11,6.11,0,0,1-6.11-6.11v-15.63a6.12,6.12,0,0,1,6.12-6.12Z"/><path class="cls-11" d="M754.25,1081.56H773a6.12,6.12,0,0,1,6.12,6.12v15.63a6.12,6.12,0,0,1-6.12,6.12H754.25a6.11,6.11,0,0,1-6.11-6.11v-15.63A6.11,6.11,0,0,1,754.25,1081.56Z"/><rect class="cls-11" x="768.29" y="1117.66" width="31.02" height="27.86" rx="6.11" ry="6.11"/><path class="cls-11" d="M814.35,1045.45h18.79a6.11,6.11,0,0,1,6.11,6.11v15.63a6.11,6.11,0,0,1-6.11,6.11H814.35a6.12,6.12,0,0,1-6.12-6.12v-15.63A6.12,6.12,0,0,1,814.35,1045.45Z"/><path class="cls-11" d="M794.2,1081.56H813a6.11,6.11,0,0,1,6.11,6.11v15.63a6.11,6.11,0,0,1-6.11,6.11H794.2a6.12,6.12,0,0,1-6.12-6.12v-15.63A6.12,6.12,0,0,1,794.2,1081.56Z"/><path class="cls-11" d="M814.35,1117.66h18.79a6.11,6.11,0,0,1,6.11,6.11v15.63a6.11,6.11,0,0,1-6.11,6.11H814.35a6.12,6.12,0,0,1-6.12-6.12v-15.63A6.12,6.12,0,0,1,814.35,1117.66Z"/><path class="cls-11" d="M794.2,1153.77H813a6.11,6.11,0,0,1,6.11,6.11v15.63a6.11,6.11,0,0,1-6.11,6.11H794.2a6.12,6.12,0,0,1-6.12-6.12v-15.63a6.12,6.12,0,0,1,6.12-6.12Z"/><rect class="cls-11" x="848.17" y="1045.45" width="31.02" height="27.86" rx="6.12" ry="6.12"/><path class="cls-11" d="M834.13,1081.56h18.79a6.11,6.11,0,0,1,6.11,6.11v15.63a6.11,6.11,0,0,1-6.11,6.11H834.14a6.12,6.12,0,0,1-6.12-6.12v-15.63A6.11,6.11,0,0,1,834.13,1081.56Z"/><path class="cls-11" d="M854.29,1117.66h18.79a6.12,6.12,0,0,1,6.12,6.12v15.63a6.11,6.11,0,0,1-6.11,6.11H854.29a6.12,6.12,0,0,1-6.12-6.12v-15.63A6.12,6.12,0,0,1,854.29,1117.66Z"/><path class="cls-11" d="M894.23,1045.45H913a6.12,6.12,0,0,1,6.12,6.12v15.63a6.12,6.12,0,0,1-6.12,6.12H894.23a6.11,6.11,0,0,1-6.11-6.11v-15.63A6.12,6.12,0,0,1,894.23,1045.45Z"/><path class="cls-11" d="M874.07,1081.56h18.79a6.11,6.11,0,0,1,6.11,6.11v15.63a6.12,6.12,0,0,1-6.12,6.12H874.08a6.12,6.12,0,0,1-6.12-6.12v-15.63A6.11,6.11,0,0,1,874.07,1081.56Z"/><path class="cls-11" d="M894.23,1117.66H913a6.12,6.12,0,0,1,6.12,6.12v15.63a6.12,6.12,0,0,1-6.12,6.12H894.23a6.11,6.11,0,0,1-6.11-6.11v-15.63A6.11,6.11,0,0,1,894.23,1117.66Z"/><rect class="cls-11" x="928.06" y="1045.45" width="31.02" height="27.86" rx="6.11" ry="6.11"/><rect class="cls-11" x="907.9" y="1081.56" width="31.02" height="27.86" rx="6.12" ry="6.12"/><rect class="cls-11" x="928.06" y="1117.66" width="31.02" height="27.86" rx="6.11" ry="6.11"/><rect class="cls-11" x="968" y="1045.45" width="31.02" height="27.86" rx="6.12" ry="6.12"/><rect class="cls-11" x="947.84" y="1081.56" width="31.02" height="27.86" rx="6.11" ry="6.11"/><rect class="cls-11" x="968" y="1117.66" width="31.02" height="27.86" rx="6.12" ry="6.12"/><rect class="cls-11" x="1007.94" y="1045.45" width="31.02" height="27.86" rx="6.12" ry="6.12"/><path class="cls-11" d="M993.9,1081.56h18.79a6.12,6.12,0,0,1,6.12,6.12v15.63a6.12,6.12,0,0,1-6.12,6.12H993.9a6.11,6.11,0,0,1-6.11-6.11v-15.63A6.11,6.11,0,0,1,993.9,1081.56Z"/><rect class="cls-11" x="1007.94" y="1117.66" width="31.02" height="27.86" rx="6.12" ry="6.12"/><rect class="cls-11" x="1047.88" y="1045.45" width="31.02" height="27.86" rx="6.12" ry="6.12"/><path class="cls-11" d="M1033.84,1081.56h18.79a6.12,6.12,0,0,1,6.12,6.12v15.63a6.12,6.12,0,0,1-6.12,6.12h-18.79a6.12,6.12,0,0,1-6.12-6.12v-15.63A6.11,6.11,0,0,1,1033.84,1081.56Z"/><rect class="cls-11" x="1047.88" y="1117.66" width="31.02" height="27.86" rx="6.12" ry="6.12"/><rect class="cls-11" x="1087.82" y="1045.45" width="31.02" height="27.86" rx="6.12" ry="6.12"/><path class="cls-11" d="M1073.78,1081.56h18.79a6.12,6.12,0,0,1,6.12,6.12v15.63a6.12,6.12,0,0,1-6.12,6.12h-18.79a6.12,6.12,0,0,1-6.12-6.12v-15.63A6.11,6.11,0,0,1,1073.78,1081.56Z"/><path class="cls-11" d="M1093.93,1117.66h18.79a6.11,6.11,0,0,1,6.11,6.11v15.63a6.11,6.11,0,0,1-6.11,6.11h-18.79a6.12,6.12,0,0,1-6.12-6.12v-15.63A6.12,6.12,0,0,1,1093.93,1117.66Z"/><rect class="cls-11" x="1127.76" y="1045.45" width="31.02" height="27.86" rx="6.12" ry="6.12"/><path class="cls-11" d="M1113.72,1081.56h18.79a6.12,6.12,0,0,1,6.12,6.12v15.63a6.12,6.12,0,0,1-6.12,6.12h-18.79a6.12,6.12,0,0,1-6.12-6.12v-15.63A6.11,6.11,0,0,1,1113.72,1081.56Z"/><path class="cls-11" d="M1133.87,1117.66h18.79a6.12,6.12,0,0,1,6.12,6.12v15.63a6.11,6.11,0,0,1-6.11,6.11h-18.79a6.12,6.12,0,0,1-6.12-6.12v-15.63A6.12,6.12,0,0,1,1133.87,1117.66Z"/><rect class="cls-11" x="1167.7" y="1045.45" width="31.02" height="27.86" rx="6.12" ry="6.12"/><path class="cls-11" d="M1153.66,1081.56h18.79a6.11,6.11,0,0,1,6.11,6.11v15.63a6.12,6.12,0,0,1-6.12,6.12h-18.79a6.12,6.12,0,0,1-6.12-6.12v-15.63A6.12,6.12,0,0,1,1153.66,1081.56Z"/><path class="cls-11" d="M1173.81,1117.66h18.79a6.12,6.12,0,0,1,6.12,6.12v15.63a6.11,6.11,0,0,1-6.11,6.11h-18.79a6.11,6.11,0,0,1-6.11-6.11v-15.63A6.12,6.12,0,0,1,1173.81,1117.66Z"/><path class="cls-11" d="M834.14,1153.77h338.31a6.12,6.12,0,0,1,6.12,6.12v15.63a6.11,6.11,0,0,1-6.11,6.11H834.14a6.12,6.12,0,0,1-6.12-6.12v-15.63a6.12,6.12,0,0,1,6.12-6.12Z"/><path class="cls-11" d="M1213.75,1045.45h18.79a6.12,6.12,0,0,1,6.12,6.12v15.63a6.12,6.12,0,0,1-6.12,6.12h-18.79a6.11,6.11,0,0,1-6.11-6.11v-15.63a6.11,6.11,0,0,1,6.11-6.11Z"/><path class="cls-11" d="M1193.6,1081.56h18.79a6.12,6.12,0,0,1,6.12,6.12v15.63a6.12,6.12,0,0,1-6.12,6.12H1193.6a6.12,6.12,0,0,1-6.12-6.12v-15.63A6.11,6.11,0,0,1,1193.6,1081.56Z"/><path class="cls-11" d="M1213.76,1117.66h18.79a6.12,6.12,0,0,1,6.12,6.12v15.63a6.11,6.11,0,0,1-6.11,6.11h-18.79a6.11,6.11,0,0,1-6.11-6.11v-15.63A6.12,6.12,0,0,1,1213.76,1117.66Z"/><rect class="cls-11" x="1187.49" y="1153.77" width="31.02" height="27.86" rx="6.12" ry="6.12"/><path class="cls-11" d="M1233.54,1081.56h18.79a6.12,6.12,0,0,1,6.12,6.12v15.63a6.12,6.12,0,0,1-6.12,6.12h-18.79a6.12,6.12,0,0,1-6.12-6.12v-15.63A6.11,6.11,0,0,1,1233.54,1081.56Z"/><path class="cls-12" d="M1191.46,698.22c-31.1,61.55-103.59,104.71-188.07,104.71-87.26,0-161.72-46-191-110.84l130.75-41.84h114.17Z"/><path class="cls-4" d="M1090.49,662.12c-14.4,28.5-48,48.49-87.1,48.49-40.41,0-74.9-21.32-88.46-51.33v-9h175.41Z"/><path class="cls-5" d="M1090.49,662.12c-14.4,28.5-48,48.49-87.1,48.49-40.41,0-74.9-21.32-88.46-51.33l15.69-5c11.15,24.68,39.52,42.23,72.77,42.23,32.18,0,59.8-16.45,71.65-39.9Z"/><path class="cls-1" d="M737.62,1698.92v88.54a124.38,124.38,0,0,1-248.75,0V1413.23a139,139,0,0,0-40.72-98.31L308.88,1175.65a123.58,123.58,0,0,1-36.43-88V963.18a124,124,0,0,1,76.84-114.93l46.36-19.18a123.9,123.9,0,0,1,47.54-9.44h87.33L530.37,831a8,8,0,0,0,7.84,8.06l40.33.53.11-8.25,18.59.25.49-36.6-18.59-.24.12-9-40.33-.54a8,8,0,0,0-8,7.84l-.16,12H443.19a138.39,138.39,0,0,0-53.14,10.55L343.68,834.7a139,139,0,0,0-85.89,128.48V1087.7A139,139,0,0,0,298.51,1186l139.27,139.27a123.51,123.51,0,0,1,36.43,87.94v374.23c0,76.66,62.37,139,139,139s139-62.37,139-139v-88.54Z"/><path class="cls-11" d="M933.58,660,787,717.71c-.35-.62-.7-1.24-1-1.86l146.54-57.74Q933,659.06,933.58,660Z"/><path class="cls-11" d="M936.28,664.18,795.13,730.76c-.4-.59-.79-1.19-1.18-1.78L935.09,662.4C935.47,663,935.87,663.59,936.28,664.18Z"/><path class="cls-11" d="M939.27,668.12,804.16,743c-.45-.56-.88-1.13-1.32-1.69l135.1-74.91C938.38,667,938.82,667.57,939.27,668.12Z"/><path class="cls-11" d="M942.52,671.8,814,754.5c-.49-.52-1-1-1.45-1.58l128.53-82.7C941.54,670.76,942,671.28,942.52,671.8Z"/><path class="cls-11" d="M946,675.21,824.5,765.13l-1.56-1.47,121.49-89.93C944.94,674.23,945.45,674.72,946,675.21Z"/><path class="cls-11" d="M949.62,678.34l-114,96.59-1.64-1.38L948,677C948.51,677.43,949.06,677.89,949.62,678.34Z"/><path class="cls-11" d="M953.42,681.2,847.15,783.87l-1.74-1.26L951.68,679.94Z"/><path class="cls-11" d="M957.33,683.78,859.1,792c-.61-.38-1.21-.77-1.8-1.16l98.22-108.2C956.12,683,956.72,683.41,957.33,683.78Z"/><path class="cls-11" d="M961.34,686.11l-90,113.18-1.87-1,90-113.19C960.08,685.42,960.71,685.77,961.34,686.11Z"/><path class="cls-11" d="M965.42,688.17,883.88,805.81l-1.92-.94L963.5,687.24C964.13,687.56,964.78,687.87,965.42,688.17Z"/><path class="cls-11" d="M969.57,690l-73,121.57-2-.84,73-121.56C968.25,689.45,968.91,689.72,969.57,690Z"/><path class="cls-11" d="M973.76,691.57l-64.31,125-2-.73,64.3-125C972.41,691.09,973.08,691.34,973.76,691.57Z"/><path class="cls-11" d="M978,692.91,922.42,820.84l-2-.62L976,692.3C976.62,692.51,977.29,692.72,978,692.91Z"/><path class="cls-11" d="M982.22,694,935.48,824.44l-2.06-.52,46.75-130.4C980.85,693.7,981.53,693.87,982.22,694Z"/><path class="cls-11" d="M986.49,694.94l-37.9,132.42-2.08-.42,37.9-132.42C985.1,694.67,985.79,694.81,986.49,694.94Z"/><path class="cls-11" d="M990.76,695.63l-29,134-2.1-.32,29-134C989.36,695.43,990.06,695.53,990.76,695.63Z"/><path class="cls-11" d="M995,696.11,974.93,831.25l-2.11-.23L992.93,695.9C993.63,696,994.33,696.05,995,696.11Z"/><path class="cls-11" d="M999.32,696.39l-11.2,135.86-2.12-.12,11.2-135.85C997.91,696.33,998.61,696.37,999.32,696.39Z"/><path class="cls-11" d="M1003.59,696.48l-2.28,136.16H999.2l2.28-136.16,1.91,0Z"/><path class="cls-11" d="M1007.87,696.38l6.63,136.06-2.11.08-6.63-136.07Z"/><path class="cls-11" d="M1012.15,696.08l15.54,135.55-2.11.17L1010,696.25Z"/><path class="cls-11" d="M1016.41,695.57l24.45,134.63-2.09.27-24.46-134.63Q1015.38,695.72,1016.41,695.57Z"/><path class="cls-11" d="M1020.67,694.86,1054,828.14l-2.09.37-33.35-133.27C1019.28,695.12,1020,695,1020.67,694.86Z"/><path class="cls-11" d="M1024.91,694l42.21,131.49-2.06.47-42.22-131.49Z"/><path class="cls-11" d="M1029.14,692.81l51,129.26-2,.58-51-129.26C1027.77,693.21,1028.46,693,1029.14,692.81Z"/><path class="cls-11" d="M1033.33,691.46,1093.16,818l-2,.68-59.83-126.56C1032,691.92,1032.66,691.7,1033.33,691.46Z"/><path class="cls-11" d="M1037.49,689.88,1106,813.26l-2,.78-68.54-123.38Z"/><path class="cls-11" d="M1041.6,688.06l77.17,119.71-1.94.89L1039.66,689Z"/><path class="cls-11" d="M1045.65,686l85.67,115.52c-.63.34-1.26.68-1.89,1L1043.76,687Q1044.72,686.51,1045.65,686Z"/><path class="cls-11" d="M1049.62,683.68l94,110.83-1.84,1.1-94-110.83C1048.41,684.42,1049,684.05,1049.62,683.68Z"/><path class="cls-11" d="M1053.5,681.1l102.17,105.58-1.76,1.22L1051.73,682.32C1052.33,681.92,1052.92,681.51,1053.5,681.1Z"/><path class="cls-11" d="M1057.25,678.26,1167.35,778l-1.69,1.32-110.09-99.78Q1056.43,678.94,1057.25,678.26Z"/><path class="cls-11" d="M1060.86,675.15l117.71,93.41c-.53.48-1.06,1-1.6,1.43l-117.71-93.41C1059.8,676.11,1060.33,675.63,1060.86,675.15Z"/><path class="cls-11" d="M1064.29,671.77l125,86.48-1.49,1.53-125-86.48Q1063.55,672.55,1064.29,671.77Z"/><path class="cls-11" d="M1067.51,668.12l131.8,79-1.38,1.64-131.81-79C1066.59,669.21,1067.05,668.67,1067.51,668.12Z"/><path class="cls-11" d="M1070.47,664.21l138.13,70.92c-.41.58-.83,1.15-1.25,1.72l-138.13-70.92C1069.65,665.36,1070.07,664.79,1070.47,664.21Z"/><path class="cls-11" d="M1073.16,660,1217,722.38c-.36.6-.74,1.21-1.11,1.81L1072,661.86C1072.43,661.26,1072.8,660.65,1073.16,660Z"/><path class="cls-11" d="M1075.54,655.66l148.94,53.25-1,1.88-148.94-53.25C1074.89,656.92,1075.22,656.29,1075.54,655.66Z"/><path class="cls-11" d="M931.22,655.54,780,704c-.31-.64-.62-1.29-.92-1.93l151.25-48.41C930.59,654.26,930.9,654.9,931.22,655.54Z"/><path class="cls-11" d="M1204,735.13v-2.37l4.6,2.37c-.41.58-.83,1.15-1.25,1.72l-3.35-1.72Zm0-16.1v-2.3l13,5.65c-.36.6-.74,1.21-1.11,1.81L1204,719Zm0-15.2v-2.25l20.48,7.33-1,1.88Zm0-2.25v2.25l-13-4.66.49-.95.43-1,12.11,4.32Zm0,15.15V719l-15.75-6.82v-2.3l15.75,6.82Zm0,16v2.37l-15.75-8.08v-2.37l15.75,8.08Zm-15.75,26.53v-1.74l1,.7-1,1Zm0-16.36v-2.46l11.06,6.62-1.38,1.64Zm0-33v2.3l-3.75-1.63c.38-.6.75-1.2,1.12-1.81l2.63,1.14Zm0,14.77v2.37l-11.06-5.68,1.26-1.73,9.8,5Zm0,15.79v2.46l-14.39-8.62v-2.46l14.39,8.62Zm0,17.08v1.74l-.48.49-13.91-9.62v-2.57l14.39,10Zm-14.39,10v-2.7l4.71,3.74c-.53.48-1.06,1-1.6,1.43Zm0-35.67v2.46l-4.71-2.82c.47-.55.93-1.09,1.38-1.64l3.33,2Zm0,15.74v2.57l-9.95-6.88v-2.57l9.95,6.88Zm0,17.23v2.7l-9.95-7.89v-2.7l9.95,7.89Zm-9.95,13v-2.85l3.44,3.11-1.69,1.32Zm0-37.07v2.57l-3.43-2.38,1.5-1.53,1.93,1.34Zm0,16.22v2.7l-10.43-8.28v-2.7l10.43,8.28Zm0,18v2.85l-10.43-9.46v-2.85l10.43,9.46Zm-10.43,12.52v-3l2.19,2.27-1.76,1.22Zm0-38.8v2.7l-2.21-1.75c.54-.47,1.07-1,1.6-1.43l.61.48Zm0,16.82v2.85l-10.85-9.83v-1.7l.68-.53,10.17,9.21Zm0,18.94v3l-10.85-11.21v-3l10.85,11.21Zm-10.85,10.71v-1.81l1,1.2Zm0-38.33v1.7l-1-.92,1-.78Zm0,16.41v3l-5-5.17v-3l5,5.17Zm0,20.11v1.81l-.82.49-4.19-4.93v-3.27Zm-5-25.28v3l-6-6.22,1.77-1.22,4.25,4.4Zm0,19.38v3.27l-11.32-13.35v-3.27l11.32,13.35Zm-11.32,10.9v-3.55l5,6.76c-.63.34-1.26.68-1.89,1Zm0-24.25v3.27l-5-5.92c.62-.36,1.23-.73,1.84-1.1l3.18,3.75Zm0,20.7v3.55l-11.55-15.58v-3.55l11.55,15.58Zm-11.55,10.68v-3.9l4,6.23-1.94.89Zm0-26.26v3.55l-4-5.43,1.89-1,2.13,2.88Zm0,22.36v3.9L1103,787.22v-3.9l11.75,18.22ZM1103,812.16v-4.35l3,5.45-2,.78Zm0-28.84v3.9l-3-4.69,1.94-.89,1.08,1.68Zm0,24.49-11.88-21.39v4.35L1103,812.16v-4.35Zm-11.88,10.85v-4.95l2,4.31-2,.68Zm0-32.24v4.35l-2-3.66,2-.79,0,.1Zm0,27.29-11-23.32-1,.33v2.57l12,25.37v-4.95Zm-12,8.66v-3l1,2.66Zm0-31.65v2.57l-1.05-2.22,1.05-.35Zm0,28.69v3l-1,.28-11.07-28v-.19l2-.56,10.09,25.56Zm-12.07,6v-.22l.06.21Zm0-31v.19l-.07-.17.07,0Zm0,30.82v.22l-2,.46-9.22-28.71,2.07-.47,9.15,28.5ZM934,824.06v-1.72l9.65-26.89,2,.52-10.2,28.47-1.5-.38Zm0-29.85v-1.46l.57.17-.57,1.29Zm22.89,4.23-8.28,28.92-2.08-.42L954.79,798l2.08.41Zm11.21,1.93-6.33,29.25-2.1-.32L966,800.05l2.1.32Zm11.24,1.38-4.39,29.5-2.11-.23,4.39-29.5,2.11.23Zm11.24.84-2.44,29.66-2.12-.12,2.45-29.66,2.11.12Zm11.25.33-.5,29.72H999.2l.5-29.73,2.11,0Zm11.25-.19,1.44,29.71-2.11.08L1011,802.81l2.11-.08Zm11.24-.7,3.39,29.6-2.11.17-3.39-29.59,2.11-.18Zm11.23-1.22,5.33,29.39-2.09.27-5.34-29.39,2.1-.27Zm11.2-1.77,7.29,29.1-2.09.37-7.28-29.09ZM934,792.75v1.46l-11.56,26.63-.48-.14v-4l10.58-24.37,1.46.46Zm0,29.59v1.72l-.56-.14.56-1.58Zm-12-30.06v-3.57l1.55.56Zm0-3.57v3.57l-12,23.24V810.9l11.51-22.36.45.17Zm0,27.95v4l-1.55-.48,1.55-3.56Zm-12-27.42,2.54-4.22-2-.84-.58,1Zm0-4.1v4.1L898.15,809v-4.1L910,785.14Zm0,25.76v4.62l-.53,1-2-.73L910,810.9Zm-11.83-25.68,3.53-5.09-1.92-.94-1.61,2.32Zm0-3.71v3.71l-11.67,16.83v-3.71l11.67-16.83Zm0,23.34V809l-1.57,2.61-2-.84,3.52-5.87Zm-11.67-24.58v-3.4l2.66-3.33c.62.35,1.24.7,1.87,1Zm0-3.4v3.4l-15.12,19-1.44-.8v-.78l16.56-20.84Zm0,21.47L882,804.87l1.92.94,2.6-3.76v-3.71Zm-16.56-18.27,10.62-11.7-1.8-1.16-8.82,9.71v3.15Zm0-18.2v-.72l.43.31Zm0-.72v.72l-11,10.66v-2.94l9.72-9.4,1.31,1Zm0,15.77v3.15L859.1,792l-.21-.13v-2.79l11-12.15Zm0,20.79v.78l-.43-.24.43-.54Zm-11-42.52v-2.68l1.59,1.33Zm0-2.68v2.68l-10.67,9v-2.77l10.62-9,0,0Zm0,17.08v2.94l-10.67,10.3V779.9l10.67-10.31Zm0,19.48v2.79l-1.59-1,1.59-1.76Zm-10.67-41.49V745l1.24-.92L851,745.5Zm0-2.63v2.63L838,755.14v-2.62L848.22,745Zm0,16.5v2.77L838,772.88v-2.77l10.23-8.66Zm0,18.45v2.93l-1.07,1-1.74-1.26,2.81-2.71ZM838,739.06v-2.52l2.61-1.68,1.45,1.59Zm0-2.52v2.52l-14.89,9.58v-2.51L838,736.54Zm0,16v2.62l-13.49,10-1.4-1.32v-.27l14.89-11Zm0,17.59v2.77l-2.41,2-1.64-1.38,4-3.44ZM823.1,732.53v-2.41l9.24-5.12q.64.84,1.32,1.68l-10.56,5.85Zm0-15v-2.34l1.66-.79c.39.6.79,1.19,1.19,1.78ZM819,705.1,806.49,710v-2.27L818,703.24c.35.63.69,1.24,1,1.86Zm4.07,10.13v2.34l-16.61,7.83v-2.34l16.61-7.83Zm0,14.89v2.41l-16.61,9.22v-2.42l16.61-9.21Zm0,16v2.51L814,754.5c-.49-.52-1-1-1.45-1.58l10.56-6.79Zm0,17.41v.27l-.16-.15.16-.12Zm-16.61-68.08v-2.22l5.63-1.81.27.66c.19.43.4.86.6,1.29Zm0,14.58L787,717.71c-.35-.62-.7-1.24-1-1.86l20.5-8.08V710Zm0-16.8v2.22L780,704c-.31-.64-.62-1.29-.92-1.93l27.45-8.78Zm0,29.82v2.34l-11.36,5.36c-.4-.59-.79-1.19-1.18-1.78l12.54-5.92Zm0,16.27v2.42L804.16,743c-.45-.56-.88-1.13-1.32-1.69Z"/><path class="cls-13" d="M819,705.1l-32,12.61c-.35-.62-.7-1.24-1-1.86l32-12.61c.35.63.69,1.24,1,1.86ZM826,716.22l-30.82,14.54c-.4-.59-.79-1.19-1.18-1.78l30.81-14.54c.39.6.79,1.19,1.19,1.78Zm7.71,10.46L804.16,743c-.45-.56-.88-1.13-1.32-1.69L832.34,725q.64.84,1.32,1.68Zm8.39,9.77L814,754.5c-.49-.52-1-1-1.45-1.58l28.06-18.06,1.45,1.59Zm9,9L824.5,765.13l-1.56-1.47L849.46,744,851,745.5Zm9.46,8.34-24.9,21.09-1.64-1.38,24.9-21.09,1.64,1.38Zm9.87,7.62-23.2,22.41-1.74-1.26,23.2-22.42,1.74,1.27Zm10.19,6.91L859.1,792c-.61-.38-1.21-.77-1.8-1.16l21.44-23.62,1.8,1.16ZM891,774.58l-19.65,24.71-1.87-1,19.65-24.71c.62.35,1.24.7,1.87,1Zm10.67,5.55-17.8,25.68-1.92-.94,17.8-25.68,1.92.94ZM912.52,785l-15.94,26.54-2-.84,15.93-26.54,2,.84Zm11,4.25-14,27.29-2-.73,14-27.29,2,.73Zm11.06,3.65-12.13,27.92-2-.62,12.13-27.93,2,.63ZM945.68,796l-10.2,28.47-2.06-.52,10.21-28.47,2,.52Zm11.19,2.47-8.28,28.92-2.08-.42L954.79,798l2.08.41Zm11.21,1.93-6.33,29.25-2.1-.32L966,800.05l2.1.32Zm11.24,1.38-4.39,29.5-2.11-.23,4.39-29.5,2.11.23Zm11.24.84-2.44,29.66-2.12-.12,2.45-29.66,2.11.12Zm11.25.33-.5,29.72H999.2l.5-29.73,2.11,0Zm11.25-.19,1.44,29.71-2.11.08L1011,802.81l2.11-.08Zm11.24-.7,3.39,29.6-2.11.17-3.39-29.59,2.11-.18Zm11.23-1.22,5.33,29.39-2.09.27-5.34-29.39,2.1-.27Zm11.2-1.77,7.29,29.1-2.09.37-7.28-29.09,2.08-.38Zm11.18-2.31,9.21,28.71-2.06.47-9.22-28.71,2.07-.47Zm11.13-2.88,11.14,28.22-2,.58L1067,794.43l2-.58Zm11.06-3.46L1093.16,818l-2,.68-13.06-27.63,2-.68Zm11-4.07,15,26.94-2,.78-15-26.93,2-.79Zm10.85-4.68,16.85,26.13-1.94.89L1100,782.53l1.94-.89Zm10.7-5.34,18.7,25.22c-.63.34-1.26.68-1.89,1l-18.7-25.22,1.89-1Zm10.5-6,20.53,24.2-1.84,1.1-20.53-24.2c.62-.36,1.23-.73,1.84-1.1Zm10.25-6.68,22.3,23-1.76,1.22-22.31-23,1.77-1.22Zm9.94-7.37,24,21.78-1.69,1.32-24-21.79c.57-.43,1.13-.87,1.69-1.31Zm9.56-8.09,25.7,20.39c-.53.48-1.06,1-1.6,1.43l-25.7-20.39c.54-.47,1.07-1,1.6-1.43Zm9.11-8.8,27.28,18.88-1.49,1.53-27.29-18.88,1.5-1.53Zm8.55-9.52,28.78,17.24-1.38,1.64-28.78-17.24c.47-.55.93-1.09,1.38-1.64Zm7.92-10.21,30.15,15.49c-.41.58-.83,1.15-1.25,1.72l-30.16-15.48,1.26-1.73Zm7.17-10.87,31.4,13.61c-.36.6-.74,1.21-1.11,1.81l-31.41-13.61c.38-.6.75-1.2,1.12-1.81Zm6.27-11.51,32.59,11.65-1,1.88L1191,699.17l.49-.95.43-1ZM813,693.38,780,704c-.31-.64-.62-1.29-.92-1.93l33.08-10.59.27.66C812.58,692.52,812.79,693,813,693.38Z"/><rect class="cls-14" x="988.3" y="624.18" width="8.48" height="42.39"/><rect class="cls-14" x="1008.64" y="624.18" width="8.48" height="42.39"/><rect class="cls-14" x="988.3" y="663.31" width="28.82" height="28.8"/><rect id="_Rectangle_" data-name="&lt;Rectangle&gt;" class="cls-3" x="640.45" y="51.73" width="730.83" height="470.25" rx="18.88" ry="18.88"/><rect id="_Rectangle_2" data-name="&lt;Rectangle&gt;" class="cls-15" x="681.83" y="95.17" width="648.08" height="374.01"/><circle class="cls-11" cx="1005.86" cy="494.77" r="13.64"/><path class="cls-1" d="M1471.77,1587v202.88a122.23,122.23,0,0,1-243.19,17.61h11.52a8,8,0,0,0,8-8V1760h-8.12v-18.27h-36V1760h-8.88v39.5a8,8,0,0,0,8,8h11c8.67,67,66.13,119,135.51,119,75.35,0,136.65-61.3,136.65-136.64V1587Z"/><path class="cls-16" d="M783,1627.67l4.33-32.85c5.7.36,16.91-7.65,23.44-16.73l30.49-48.95,33.25-44.82a20.94,20.94,0,0,0,3.89-9.75l6.29-51.36c1.36-11-6.21-21-16.91-22.34s-20.44,6.54-21.81,17.58l-5.64,45.94-22.08,29.76-1.66-1.6.23-37.84-.48-.79c3.85-46.14,9.64-81.76,34-126.11a16.51,16.51,0,0,0-6-22.19,15.67,15.67,0,0,0-21.59,6.31c-21.8,39.77-30.38,73.62-35,110.65-1.7,1.28-3.67,1-5.69-.22,5.66-43.89,18.59-80.51,39.26-111.12,5-7.43.46-19.46-6.71-24.55s-14.25-1.36-19.27,6.07c-4.14,6.16-8,12.5-11.58,19.07A16.48,16.48,0,0,0,779,1300.3a15.53,15.53,0,0,0-22.4.4c-9.9,10.48-17.84,23.88-24.08,38.56a14.54,14.54,0,0,0-6.07-12.62,13.9,13.9,0,0,0-19.58,3.87c-8.94,13.46-19.69,31.32-23.32,50.08-3.37,17.36-2.28,33.94-.22,51L679,1538.83c1.3,21.22,6.38,31.63,15.44,42.89-1.56,11.81-2.54,23.38-3.69,35l-.68-.06-.09.65,75.82,8.47Zm-68.77-210.34c-1.4,3.12-3,1.88-4,.57-1-11.12-1.08-21.56.91-31.82,2.48-12.79,10.48-26.44,17.6-37.31C720.48,1371.36,715.92,1396,714.23,1417.33Zm36.1,3.34c-1.54,2.51-3.69,2.18-4.75,1.18,2.09-29.85,10.61-70.8,30.43-94.86C763.12,1354.64,754.62,1385.7,750.33,1420.67Z"/><path class="cls-17" d="M873.43,1357.22a21.83,21.83,0,0,0-23.6,19.88l-4.06,47.34-26.89,38.11-1.16-.71-1.92-38.26-1.59-1.81c2-45.4,7.33-81.8,33-130.37a17.7,17.7,0,0,0-31.31-16.52c-24.07,45.62-32.2,82.19-35.52,121.47-2.39,2.93-5.67,3.06-9,1.48,3.94-45.46,16.14-83,37.43-116A17.7,17.7,0,1,0,779,1262.63a261.22,261.22,0,0,0-18.11,33,17.7,17.7,0,0,0-31.61-13.32c-10,13.24-17.85,29.07-23.69,45.8a15.74,15.74,0,0,0-29-8c-8.35,13.13-19,33.21-22.52,54.37-2.73,16.5-1.24,31.57,1.56,46.65l1.12,116.92c2.73,21.14,9.38,30.56,20.8,40-2.08,22.07-2,42.93-4.86,65.14-.86,6.84-8.87,15.54-9.86,22.42-3,22.24-1.13,44.47,0,66.77H752.6l32.73-69.11-1.65-38.62,5.1-53.25c6.78-.86,19.67-11.35,26.91-21.93l26.29-44,42.85-60.73a21.81,21.81,0,0,0,3.91-10.71l4.57-53.23A21.83,21.83,0,0,0,873.43,1357.22Zm-116.19-53.13c-12.13,29.21-19.27,61.37-21.74,97.81-2.22,6.16-7.77,4.16-7.07,2.22-.13-.22-.54-.19-1-.07C728.32,1373.94,735.87,1332.56,757.24,1304.09Zm-72.11,75.52c2.52-15.27,10.56-30.66,17.2-41.28a259.26,259.26,0,0,0-10.48,69l0,0c-2.31,6.11-6.1.54-6.1.54s-.11.22-.3.57C684,1398.65,683.54,1389.21,685.13,1379.61Z"/><polygon class="cls-18" points="782.38 1651.16 673.41 1651.66 675.61 1610.57 784.97 1609.86 782.38 1651.16"/><polygon class="cls-19" points="826.51 1638.53 826.37 1624.62 815.36 1624.72 797.52 1624.89 798.13 1686.84 826.99 1686.55 826.51 1638.53"/><polygon class="cls-20" points="797.52 1624.89 718.88 1625.68 718.88 1625.68 797.52 1624.89"/><polygon class="cls-20" points="797.52 1624.89 718.88 1625.68 653.83 1626.33 654.45 1688.26 690.94 1687.91 785.01 1686.97 798.13 1686.84 797.52 1624.89"/><polygon class="cls-1" points="833.37 1686.48 826.99 1686.55 798.13 1686.84 785.01 1686.97 690.94 1687.91 654.45 1688.26 654.88 1732.4 691.32 1732.4 784.94 1732.4 798.58 1732.4 827.44 1732.4 833.57 1732.4 833.37 1686.48"/><rect class="cls-21" x="581.95" y="818.24" width="8.21" height="6.52" transform="translate(-243.21 1396.53) rotate(-89.23)"/><rect class="cls-21" x="582.2" y="801.28" width="8.21" height="6.52" transform="translate(-226 1380.05) rotate(-89.23)"/><path class="cls-16" d="M1300.58,1442a8.68,8.68,0,0,0-9-8.27l-148.5,6.33a8.66,8.66,0,0,0-8.27,9l2.29,53.93a8.66,8.66,0,0,0,1.11,3.85l24.47,63.74c.09,2.27,3.17,4,6.84,3.84l107.11-4.56c3.67-.16,6.6-2.14,6.5-4.41L1302,1500a8.49,8.49,0,0,0,.85-4.11Z"/><rect class="cls-16" x="1135.72" y="1383.51" width="32.67" height="46.78" rx="12" ry="12"/><rect class="cls-16" x="1135.72" y="1341.89" width="32.67" height="33.35" rx="12" ry="12"/><path class="cls-16" d="M1168.12,1283.84a16.32,16.32,0,0,0-32.14,0,9.6,9.6,0,0,0-.26,2.16v38.36a9.27,9.27,0,0,0,9.25,9.25h14.17a9.27,9.27,0,0,0,9.25-9.25V1286A9.06,9.06,0,0,0,1168.12,1283.84Z"/><polygon class="cls-22" points="1068.01 1419.55 1087.19 1450.88 1092.1 1458.89 1111.28 1490.21 1117.82 1486.21 1098.63 1454.88 1093.73 1446.87 1074.55 1415.55 1068.01 1419.55"/><polygon class="cls-22" points="1113.16 1498.52 1139.52 1524.11 1146.26 1530.65 1172.62 1556.23 1177.96 1550.73 1151.6 1525.15 1144.86 1518.6 1118.5 1493.02 1113.16 1498.52"/><polygon class="cls-22" points="1205.34 1516.87 1205.34 1553.6 1205.34 1562.99 1205.34 1565.71 1205.34 1599.72 1205.34 1602.44 1205.34 1611.84 1205.34 1648.57 1213 1648.57 1213 1611.84 1213 1602.44 1213 1599.72 1213 1565.71 1213 1562.99 1213 1553.6 1213 1516.87 1205.34 1516.87"/><polygon class="cls-22" points="1181.69 1588.43 1181.69 1606.79 1181.69 1611.49 1181.69 1613.78 1181.69 1629.86 1181.69 1632.15 1181.69 1636.85 1181.69 1655.21 1189.36 1655.21 1189.36 1636.85 1189.36 1632.15 1189.36 1629.86 1189.36 1613.78 1189.36 1611.49 1189.36 1606.79 1189.36 1588.43 1181.69 1588.43"/><polygon class="cls-22" points="1144.95 1465.92 1155.59 1501.08 1158.32 1510.07 1159.64 1514.46 1168.95 1545.23 1170.28 1549.62 1173 1558.61 1183.64 1593.77 1190.98 1591.55 1180.34 1556.39 1177.62 1547.4 1176.29 1543.01 1166.98 1512.24 1165.65 1507.85 1162.93 1498.86 1152.29 1463.7 1144.95 1465.92"/><polygon class="cls-22" points="1298.08 1465.92 1287.44 1501.08 1284.72 1510.07 1283.39 1514.46 1274.08 1545.23 1272.75 1549.62 1270.03 1558.61 1259.39 1593.77 1252.06 1591.55 1262.69 1556.39 1265.42 1547.4 1266.74 1543.01 1276.05 1512.24 1277.38 1507.85 1280.1 1498.86 1290.74 1463.7 1298.08 1465.92"/><polygon class="cls-22" points="1230.39 1514.77 1230.39 1551.5 1230.39 1560.9 1230.39 1567.71 1230.39 1597.63 1230.39 1604.44 1230.39 1613.84 1230.39 1650.57 1238.06 1650.57 1238.06 1613.84 1238.06 1604.44 1238.06 1597.63 1238.06 1567.71 1238.06 1560.9 1238.06 1551.5 1238.06 1514.77 1230.39 1514.77"/><polygon class="cls-22" points="1205.59 1456.73 1205.59 1493.46 1205.59 1502.85 1205.59 1505.57 1205.59 1539.58 1205.59 1542.3 1205.59 1551.7 1205.59 1588.43 1213.26 1588.43 1213.26 1551.7 1213.26 1542.3 1213.26 1539.58 1213.26 1505.57 1213.26 1502.85 1213.26 1493.46 1213.26 1456.73 1205.59 1456.73"/><polygon class="cls-22" points="1230.39 1456.73 1230.39 1493.46 1230.39 1502.85 1230.39 1509.67 1230.39 1539.58 1230.39 1546.4 1230.39 1555.79 1230.39 1592.53 1238.06 1592.53 1238.06 1555.79 1238.06 1546.4 1238.06 1539.58 1238.06 1509.67 1238.06 1502.85 1238.06 1493.46 1238.06 1456.73 1230.39 1456.73"/><path class="cls-23" d="M1155.59,1406.46c.19.21.36.42.56.62l2.42,2.42a12.21,12.21,0,0,1,3.61,8.71v10a12.25,12.25,0,0,1-3.61,8.72l-2.08,2.07c-.32.32-.61.66-.9,1a14.9,14.9,0,0,0-1.58,2.3,14.73,14.73,0,0,0-1.78,5.43h2.69a12,12,0,0,1,.67-2.57,12.31,12.31,0,0,1,1.58-2.86,13.45,13.45,0,0,1,1.2-1.42l2.08-2.07a14.9,14.9,0,0,0,4.39-10.6v-10a14.88,14.88,0,0,0-4.39-10.59l-2.42-2.42a11.81,11.81,0,0,1-.82-.91,12.16,12.16,0,0,1-1.62-2.58,10.11,10.11,0,0,1-.42-1h-2.81a15,15,0,0,0,1.61,3.61A14.75,14.75,0,0,0,1155.59,1406.46Z"/><path class="cls-24" d="M1150.86,1438.82l2.08,2.07a13.45,13.45,0,0,1,1.2,1.42,12,12,0,0,1,1.58,2.86,12.65,12.65,0,0,1,.68,2.57h2.68a14.73,14.73,0,0,0-1.78-5.43,14.23,14.23,0,0,0-1.58-2.3c-.28-.34-.58-.68-.9-1l-2.08-2.07a12.3,12.3,0,0,1-3.61-8.72v-10a12.26,12.26,0,0,1,3.61-8.71l2.42-2.42c.2-.2.38-.41.56-.62a14.75,14.75,0,0,0,1.62-2.17,14.6,14.6,0,0,0,1.61-3.61h-2.8c-.13.35-.27.69-.43,1a11.77,11.77,0,0,1-1.62,2.58,10.05,10.05,0,0,1-.82.91l-2.42,2.42a14.88,14.88,0,0,0-4.39,10.59v10A14.9,14.9,0,0,0,1150.86,1438.82Z"/><path class="cls-23" d="M1209.46,1570.75c.18.2.36.41.56.61l2.42,2.42a12.25,12.25,0,0,1,3.61,8.72v10a12.24,12.24,0,0,1-3.61,8.72l-2.08,2.08q-.48.48-.9,1a15,15,0,0,0-3.36,7.73h2.68a12.39,12.39,0,0,1,.68-2.56,12,12,0,0,1,1.58-2.87,13.35,13.35,0,0,1,1.2-1.41l2.08-2.08a14.89,14.89,0,0,0,4.39-10.6v-10a14.9,14.9,0,0,0-4.39-10.6l-2.42-2.42a11.49,11.49,0,0,1-.82-.9,12.08,12.08,0,0,1-1.62-2.59c-.16-.33-.3-.67-.43-1h-2.8a14.6,14.6,0,0,0,1.61,3.61A15.3,15.3,0,0,0,1209.46,1570.75Z"/><path class="cls-24" d="M1204.73,1603.1l2.08,2.08a13.35,13.35,0,0,1,1.2,1.41,12.37,12.37,0,0,1,1.58,2.87,11.77,11.77,0,0,1,.67,2.56H1213a15,15,0,0,0-3.36-7.73c-.29-.34-.58-.67-.9-1l-2.08-2.08a12.24,12.24,0,0,1-3.61-8.72v-10a12.25,12.25,0,0,1,3.61-8.72l2.42-2.42c.2-.2.37-.41.56-.61a15.3,15.3,0,0,0,1.62-2.17,15,15,0,0,0,1.61-3.61H1210a9.1,9.1,0,0,1-.42,1,12.48,12.48,0,0,1-1.62,2.59c-.26.31-.53.61-.82.9l-2.42,2.42a14.9,14.9,0,0,0-4.39,10.6v10A14.89,14.89,0,0,0,1204.73,1603.1Z"/><path class="cls-23" d="M1181.21,1571.11c.22.17.44.34.67.49l2.85,1.9a12.22,12.22,0,0,1,5.27,7.82l2,9.81a12.21,12.21,0,0,1-1.81,9.26l-1.62,2.45c-.25.37-.47.76-.69,1.15a15.6,15.6,0,0,0-1.09,2.57,14.67,14.67,0,0,0-.66,5.67l2.63-.53a11.61,11.61,0,0,1,.15-2.64,12,12,0,0,1,1-3.13,11.69,11.69,0,0,1,.9-1.62l1.62-2.45a14.93,14.93,0,0,0,2.2-11.26l-2-9.81a14.86,14.86,0,0,0-6.41-9.51l-2.85-1.89c-.34-.23-.67-.47-1-.72a12.19,12.19,0,0,1-2.1-2.21c-.22-.3-.43-.61-.62-.93l-2.75.56a14.55,14.55,0,0,0,2.3,3.22A14.35,14.35,0,0,0,1181.21,1571.11Z"/><path class="cls-24" d="M1183,1603.76l2.44,1.63a12.18,12.18,0,0,1,4.75,6l2.63-.54a15,15,0,0,0-2.82-5,14.78,14.78,0,0,0-2-1.94c-.35-.27-.7-.54-1.08-.79l-2.45-1.62a12.29,12.29,0,0,1-5.27-7.83l-2-9.81a12.23,12.23,0,0,1,1.81-9.26l1.89-2.85c.15-.23.28-.48.42-.71a15.63,15.63,0,0,0,1.16-2.45,15,15,0,0,0,.86-3.86l-2.75.56c0,.37-.13.73-.21,1.09a12,12,0,0,1-1.08,2.85,11.12,11.12,0,0,1-.62,1l-1.89,2.85a14.93,14.93,0,0,0-2.2,11.26l2,9.81A14.86,14.86,0,0,0,1183,1603.76Z"/><path class="cls-23" d="M1234.16,1570.75c.19.2.36.41.56.61l2.42,2.42a12.25,12.25,0,0,1,3.61,8.72v10a12.24,12.24,0,0,1-3.61,8.72l-2.08,2.08q-.46.48-.9,1a15,15,0,0,0-3.36,7.73h2.69a11.89,11.89,0,0,1,2.26-5.43,12.17,12.17,0,0,1,1.19-1.41l2.08-2.08a14.89,14.89,0,0,0,4.39-10.6v-10a14.9,14.9,0,0,0-4.39-10.6l-2.42-2.42c-.29-.29-.56-.59-.82-.9a12.48,12.48,0,0,1-1.62-2.59c-.15-.33-.3-.67-.42-1h-2.81a15,15,0,0,0,1.61,3.61A15.3,15.3,0,0,0,1234.16,1570.75Z"/><path class="cls-24" d="M1229.44,1603.1l2.07,2.08a12.26,12.26,0,0,1,1.2,1.41,12,12,0,0,1,1.58,2.87,12.39,12.39,0,0,1,.68,2.56h2.68a14.75,14.75,0,0,0-3.36-7.73q-.42-.51-.9-1l-2.07-2.08a12.25,12.25,0,0,1-3.62-8.72v-10a12.26,12.26,0,0,1,3.62-8.72l2.42-2.42c.19-.2.37-.41.55-.61a15.3,15.3,0,0,0,1.62-2.17,14.6,14.6,0,0,0,1.61-3.61h-2.8c-.13.35-.27.69-.43,1a12.08,12.08,0,0,1-1.62,2.59c-.25.31-.53.61-.81.9l-2.42,2.42a14.86,14.86,0,0,0-4.39,10.6v10A14.84,14.84,0,0,0,1229.44,1603.1Z"/><polygon class="cls-22" points="1254.07 1586.45 1254.07 1604.81 1254.07 1609.51 1254.07 1610.87 1254.07 1627.88 1254.07 1629.23 1254.07 1633.93 1254.07 1652.3 1261.74 1652.3 1261.74 1633.93 1261.74 1629.23 1261.74 1627.88 1261.74 1610.87 1261.74 1609.51 1261.74 1604.81 1261.74 1586.45 1254.07 1586.45"/><path class="cls-23" d="M1260.41,1572.28c.17.22.32.45.49.67l2.16,2.66a12.27,12.27,0,0,1,2.68,9l-1,9.95a12.3,12.3,0,0,1-4.51,8.3l-2.28,1.85c-.35.28-.68.58-1,.89a14.59,14.59,0,0,0-1.81,2.12,14.83,14.83,0,0,0-2.34,5.22l2.67.28a12,12,0,0,1,2.82-5.17,13.45,13.45,0,0,1,1.33-1.28l2.29-1.85a14.9,14.9,0,0,0,5.47-10.08l1-10a14.89,14.89,0,0,0-3.26-11l-2.15-2.66a9.87,9.87,0,0,1-.72-1,12,12,0,0,1-1.34-2.74c-.12-.35-.23-.7-.32-1.06l-2.78-.3A14.52,14.52,0,0,0,1259,1570,15.69,15.69,0,0,0,1260.41,1572.28Z"/><rect class="cls-16" x="1181.22" y="1383.51" width="32.67" height="46.78" rx="12" ry="12"/><rect class="cls-16" x="1224.91" y="1383.51" width="32.67" height="46.78" rx="12" ry="12"/><rect class="cls-16" x="1268.45" y="1383.51" width="32.67" height="46.78" rx="12" ry="12"/><rect class="cls-16" x="1181.22" y="1341.89" width="32.67" height="33.35" rx="12" ry="12"/><rect class="cls-16" x="1224.91" y="1341.89" width="32.67" height="33.35" rx="12" ry="12"/><rect class="cls-16" x="1268.45" y="1341.89" width="32.67" height="33.35" rx="12" ry="12"/><path class="cls-16" d="M1213.62,1283.84a16.32,16.32,0,0,0-32.14,0,9.6,9.6,0,0,0-.26,2.16v38.36a9.27,9.27,0,0,0,9.25,9.25h14.17a9.27,9.27,0,0,0,9.25-9.25V1286A9.06,9.06,0,0,0,1213.62,1283.84Z"/><path class="cls-16" d="M1257.32,1283.84a16.32,16.32,0,0,0-32.14,0,9.06,9.06,0,0,0-.27,2.16v38.36a9.28,9.28,0,0,0,9.25,9.25h14.17a9.27,9.27,0,0,0,9.25-9.25V1286A9.06,9.06,0,0,0,1257.32,1283.84Z"/><path class="cls-16" d="M1300.85,1283.84a16.32,16.32,0,0,0-32.14,0,9.6,9.6,0,0,0-.26,2.16v38.36a9.27,9.27,0,0,0,9.25,9.25h14.17a9.27,9.27,0,0,0,9.25-9.25V1286A9.06,9.06,0,0,0,1300.85,1283.84Z"/><path class="cls-24" d="M1252.33,1604l1.85,2.28a12.6,12.6,0,0,1,1,1.53,12.27,12.27,0,0,1,1.27,3,12.11,12.11,0,0,1,.4,2.62l2.67.28a14.64,14.64,0,0,0-1.2-5.59,14.2,14.2,0,0,0-1.33-2.45c-.25-.37-.51-.73-.79-1.08l-1.85-2.28a12.23,12.23,0,0,1-2.68-9l1-10a12.28,12.28,0,0,1,4.51-8.29l2.66-2.16c.21-.17.41-.36.61-.55a14.83,14.83,0,0,0,3.82-5.41l-2.79-.29c-.16.33-.34.66-.53,1a12.67,12.67,0,0,1-1.88,2.4c-.29.28-.59.55-.91.81l-2.66,2.15a14.9,14.9,0,0,0-5.47,10.08l-1,10A14.92,14.92,0,0,0,1252.33,1604Z"/><path class="cls-23" d="M1126.68,1506.71c.27,0,.55,0,.83,0h3.42a12.25,12.25,0,0,1,8.72,3.61l7.07,7.07a12.25,12.25,0,0,1,3.61,8.72v2.94c0,.45,0,.89.07,1.34a14.09,14.09,0,0,0,.51,2.74,14.64,14.64,0,0,0,2.58,5.1l1.9-1.9a12.25,12.25,0,0,1-1.34-2.29,12.85,12.85,0,0,1-1.06-5v-2.94a14.9,14.9,0,0,0-4.39-10.6l-7.07-7.07a14.9,14.9,0,0,0-10.6-4.39h-3.42c-.41,0-.82,0-1.22-.06a12.45,12.45,0,0,1-3-.68c-.35-.13-.69-.27-1-.43l-2,2a15.13,15.13,0,0,0,3.69,1.41A14.93,14.93,0,0,0,1126.68,1506.71Z"/><path class="cls-24" d="M1146.21,1532.93h2.94a12.59,12.59,0,0,1,1.85.15,12.06,12.06,0,0,1,3.14.91,12.43,12.43,0,0,1,2.29,1.33l1.9-1.89a14.76,14.76,0,0,0-7.84-3.09c-.44,0-.89-.07-1.34-.07h-2.94a12.21,12.21,0,0,1-8.71-3.61l-7.08-7.08a12.21,12.21,0,0,1-3.61-8.71v-3.43c0-.28,0-.55,0-.82a15.13,15.13,0,0,0-1.8-6.37l-2,2c.15.33.29.68.42,1a12.53,12.53,0,0,1,.68,3,12.1,12.1,0,0,1,.06,1.21v3.43a14.88,14.88,0,0,0,4.39,10.59l7.08,7.08A14.88,14.88,0,0,0,1146.21,1532.93Z"/><path class="cls-25" d="M1296.93,1724.88H1146.11c-6.31-.07-10.9-5.24-9.52-10.56l25.8-99.54c0-3.61,4.83-6.56,10.73-6.56h97c5.91,0,10.74,3,10.74,6.56l25.79,99.54c1.38,5.32-3.2,10.49-9.52,10.56Z"/><rect class="cls-25" x="1171.89" y="1581.63" width="99.44" height="17.73" rx="6.01" ry="6.01"/><path class="cls-24" d="M1153.85,1395.72l-.15-.12a12.27,12.27,0,0,1-4.63-9.63v-20.85h-2.66V1386a14.91,14.91,0,0,0,5.63,11.71l.16.12a12,12,0,0,1,1.82,1.81,15.06,15.06,0,0,1,1.64-2.19A14.61,14.61,0,0,0,1153.85,1395.72Z"/><path class="cls-23" d="M1159.12,1397.8l.15-.12a14.91,14.91,0,0,0,5.63-11.71v-20.85h-2.65V1386a12.25,12.25,0,0,1-4.64,9.63l-.15.12a14.52,14.52,0,0,0-1.8,1.7,15,15,0,0,1,1.63,2.19A12.05,12.05,0,0,1,1159.12,1397.8Z"/><path class="cls-23" d="M1200.37,1406.46c.18.21.36.42.56.62l2.42,2.42a12.21,12.21,0,0,1,3.61,8.71v10a12.25,12.25,0,0,1-3.61,8.72l-2.08,2.07c-.32.32-.61.66-.9,1a14.9,14.9,0,0,0-1.58,2.3,14.73,14.73,0,0,0-1.78,5.43h2.69a12,12,0,0,1,.67-2.57,12.31,12.31,0,0,1,1.58-2.86,13.45,13.45,0,0,1,1.2-1.42l2.08-2.07a14.9,14.9,0,0,0,4.39-10.6v-10a14.88,14.88,0,0,0-4.39-10.59l-2.42-2.42a11.81,11.81,0,0,1-.82-.91,12.16,12.16,0,0,1-1.62-2.58c-.16-.34-.3-.68-.43-1h-2.8a15,15,0,0,0,1.61,3.61A14.75,14.75,0,0,0,1200.37,1406.46Z"/><path class="cls-24" d="M1195.64,1438.82l2.08,2.07a13.45,13.45,0,0,1,1.2,1.42,12.31,12.31,0,0,1,1.58,2.86,12.65,12.65,0,0,1,.68,2.57h2.68a14.73,14.73,0,0,0-1.78-5.43,14.9,14.9,0,0,0-1.58-2.3c-.29-.34-.58-.68-.9-1l-2.08-2.07a12.25,12.25,0,0,1-3.61-8.72v-10a12.21,12.21,0,0,1,3.61-8.71l2.42-2.42c.2-.2.38-.41.56-.62a14.75,14.75,0,0,0,1.62-2.17,15,15,0,0,0,1.61-3.61h-2.8c-.13.35-.27.69-.43,1a12.39,12.39,0,0,1-2.44,3.49l-2.42,2.42a14.88,14.88,0,0,0-4.39,10.59v10A14.9,14.9,0,0,0,1195.64,1438.82Z"/><path class="cls-24" d="M1198.63,1395.72l-.15-.12a12.27,12.27,0,0,1-4.63-9.63v-20.85h-2.66V1386a14.91,14.91,0,0,0,5.63,11.71l.15.12a12.05,12.05,0,0,1,1.83,1.81,15.06,15.06,0,0,1,1.64-2.19A14.61,14.61,0,0,0,1198.63,1395.72Z"/><path class="cls-23" d="M1203.9,1397.8l.15-.12a14.91,14.91,0,0,0,5.63-11.71v-20.85H1207V1386a12.27,12.27,0,0,1-4.63,9.63l-.15.12a13.85,13.85,0,0,0-1.8,1.7,15.75,15.75,0,0,1,1.63,2.19A12.05,12.05,0,0,1,1203.9,1397.8Z"/><path class="cls-23" d="M1200.5,1338.88c-.18-.2-.36-.42-.56-.61l-2.42-2.42a12.25,12.25,0,0,1-3.61-8.72v-10a12.21,12.21,0,0,1,3.61-8.71l2.08-2.08c.32-.32.61-.65.9-1a15.93,15.93,0,0,0,1.58-2.3,14.85,14.85,0,0,0,1.78-5.43h-2.68a12.55,12.55,0,0,1-.68,2.56,12.37,12.37,0,0,1-1.58,2.87,13.35,13.35,0,0,1-1.2,1.41l-2.08,2.07a14.92,14.92,0,0,0-4.39,10.6v10a14.9,14.9,0,0,0,4.39,10.6l2.42,2.42c.29.29.56.59.82.9a12,12,0,0,1,1.62,2.58c.16.34.3.68.43,1h2.8a15,15,0,0,0-1.61-3.61A14.75,14.75,0,0,0,1200.5,1338.88Z"/><path class="cls-24" d="M1205.23,1306.52l-2.08-2.07a13.35,13.35,0,0,1-1.2-1.41,12.37,12.37,0,0,1-1.58-2.87,11.92,11.92,0,0,1-.67-2.56H1197a14.85,14.85,0,0,0,1.78,5.43,15.93,15.93,0,0,0,1.58,2.3c.29.34.58.67.9,1l2.08,2.08a12.21,12.21,0,0,1,3.61,8.71v10a12.25,12.25,0,0,1-3.61,8.72l-2.42,2.42c-.2.19-.38.41-.56.61a14.75,14.75,0,0,0-1.62,2.17,15,15,0,0,0-1.61,3.61h2.8c.13-.35.27-.69.43-1a12.41,12.41,0,0,1,1.62-2.58c.26-.31.53-.61.82-.9l2.42-2.42a14.9,14.9,0,0,0,4.39-10.6v-10A14.92,14.92,0,0,0,1205.23,1306.52Z"/><path class="cls-23" d="M1244.07,1406.46c.18.21.36.42.55.62l2.42,2.42a12.21,12.21,0,0,1,3.61,8.71v10a12.25,12.25,0,0,1-3.61,8.72L1245,1439c-.32.32-.62.66-.9,1a14.75,14.75,0,0,0-3.36,7.73h2.68a12.07,12.07,0,0,1,2.26-5.43,11.42,11.42,0,0,1,1.2-1.42l2.07-2.07a14.9,14.9,0,0,0,4.39-10.6v-10a14.88,14.88,0,0,0-4.39-10.59l-2.42-2.42a9.94,9.94,0,0,1-.81-.91,11.77,11.77,0,0,1-1.62-2.58c-.16-.34-.3-.68-.43-1h-2.8a14.6,14.6,0,0,0,1.61,3.61A14.75,14.75,0,0,0,1244.07,1406.46Z"/><path class="cls-24" d="M1239.34,1438.82l2.08,2.07a13.5,13.5,0,0,1,2.78,4.28,12.62,12.62,0,0,1,.67,2.57h2.69a14.73,14.73,0,0,0-1.78-5.43,14.9,14.9,0,0,0-1.58-2.3c-.29-.34-.59-.68-.9-1l-2.08-2.07a12.25,12.25,0,0,1-3.61-8.72v-10a12.21,12.21,0,0,1,3.61-8.71l2.42-2.42c.2-.2.37-.41.56-.62a15.5,15.5,0,0,0,1.62-2.17,15,15,0,0,0,1.61-3.61h-2.81c-.12.35-.27.69-.42,1a12.57,12.57,0,0,1-1.62,2.58,11.81,11.81,0,0,1-.82.91l-2.42,2.42a14.88,14.88,0,0,0-4.39,10.59v10A14.9,14.9,0,0,0,1239.34,1438.82Z"/><path class="cls-24" d="M1242.33,1395.72l-.15-.12a12.25,12.25,0,0,1-4.64-9.63v-20.85h-2.66V1386a14.92,14.92,0,0,0,5.64,11.71l.15.12a12.05,12.05,0,0,1,1.83,1.81,15,15,0,0,1,1.63-2.19A15.26,15.26,0,0,0,1242.33,1395.72Z"/><path class="cls-23" d="M1247.59,1397.8l.15-.12a14.92,14.92,0,0,0,5.64-11.71v-20.85h-2.66V1386a12.25,12.25,0,0,1-4.64,9.63l-.15.12a15.26,15.26,0,0,0-1.8,1.7,14.3,14.3,0,0,1,1.63,2.19A12.53,12.53,0,0,1,1247.59,1397.8Z"/><path class="cls-23" d="M1244.2,1338.88c-.19-.2-.36-.42-.56-.61l-2.42-2.42a12.25,12.25,0,0,1-3.61-8.72v-10a12.21,12.21,0,0,1,3.61-8.71l2.08-2.08q.46-.48.9-1a15.93,15.93,0,0,0,1.58-2.3,14.85,14.85,0,0,0,1.78-5.43h-2.69a11.89,11.89,0,0,1-2.26,5.43,12.17,12.17,0,0,1-1.19,1.41l-2.08,2.07a14.92,14.92,0,0,0-4.39,10.6v10a14.9,14.9,0,0,0,4.39,10.6l2.42,2.42c.29.29.56.59.82.9a12.85,12.85,0,0,1,1.62,2.58c.15.34.3.68.42,1h2.81a15,15,0,0,0-1.61-3.61A15.5,15.5,0,0,0,1244.2,1338.88Z"/><path class="cls-24" d="M1248.92,1306.52l-2.07-2.07a11.34,11.34,0,0,1-1.2-1.41,12.19,12.19,0,0,1-2.26-5.43h-2.68a15,15,0,0,0,1.77,5.43,16,16,0,0,0,1.59,2.3q.42.51.9,1l2.07,2.08a12.21,12.21,0,0,1,3.61,8.71v10a12.25,12.25,0,0,1-3.61,8.72l-2.42,2.42c-.19.19-.37.41-.55.61a14.75,14.75,0,0,0-1.62,2.17,14.6,14.6,0,0,0-1.61,3.61h2.8c.13-.35.27-.69.43-1a12,12,0,0,1,1.62-2.58,11.34,11.34,0,0,1,.81-.9l2.42-2.42a14.9,14.9,0,0,0,4.39-10.6v-10A14.92,14.92,0,0,0,1248.92,1306.52Z"/><path class="cls-23" d="M1287.6,1406.46c.18.21.36.42.56.62l2.42,2.42a12.21,12.21,0,0,1,3.61,8.71v10a12.25,12.25,0,0,1-3.61,8.72l-2.08,2.07c-.32.32-.61.66-.9,1a14.9,14.9,0,0,0-1.58,2.3,14.73,14.73,0,0,0-1.78,5.43h2.69a12,12,0,0,1,.67-2.57,12.31,12.31,0,0,1,1.58-2.86,13.45,13.45,0,0,1,1.2-1.42l2.08-2.07a14.9,14.9,0,0,0,4.39-10.6v-10a14.88,14.88,0,0,0-4.39-10.59l-2.42-2.42a11.81,11.81,0,0,1-.82-.91,12.16,12.16,0,0,1-1.62-2.58c-.16-.34-.3-.68-.43-1h-2.8a15,15,0,0,0,1.61,3.61A14.75,14.75,0,0,0,1287.6,1406.46Z"/><path class="cls-24" d="M1282.87,1438.82l2.08,2.07a13.45,13.45,0,0,1,1.2,1.42,12.31,12.31,0,0,1,1.58,2.86,12.65,12.65,0,0,1,.68,2.57h2.68a14.73,14.73,0,0,0-1.78-5.43,14.9,14.9,0,0,0-1.58-2.3c-.29-.34-.58-.68-.9-1l-2.08-2.07a12.25,12.25,0,0,1-3.61-8.72v-10a12.21,12.21,0,0,1,3.61-8.71l2.42-2.42c.2-.2.38-.41.56-.62a14.75,14.75,0,0,0,1.62-2.17,15,15,0,0,0,1.61-3.61h-2.8c-.13.35-.27.69-.43,1a12.39,12.39,0,0,1-2.44,3.49l-2.42,2.42a14.88,14.88,0,0,0-4.39,10.59v10A14.9,14.9,0,0,0,1282.87,1438.82Z"/><path class="cls-16" d="M1130.94,1491.57l-32.14-55.28-30,25.18,28.78,49.51a19.32,19.32,0,1,0,33.4-19.41Z"/><path class="cls-16" d="M1091.35,1379.68a19.32,19.32,0,1,0-38.63-.09l-.12,47.3a19.42,19.42,0,0,0,2.62,9.75l6,10.29,30-25.18Z"/><path class="cls-24" d="M1285.86,1395.72l-.15-.12a12.27,12.27,0,0,1-4.63-9.63v-20.85h-2.66V1386a14.91,14.91,0,0,0,5.63,11.71l.15.12a12.05,12.05,0,0,1,1.83,1.81,15.06,15.06,0,0,1,1.64-2.19A14.61,14.61,0,0,0,1285.86,1395.72Z"/><path class="cls-23" d="M1291.13,1397.8l.15-.12a14.91,14.91,0,0,0,5.63-11.71v-20.85h-2.66V1386a12.27,12.27,0,0,1-4.63,9.63l-.15.12a13.85,13.85,0,0,0-1.8,1.7,15.75,15.75,0,0,1,1.63,2.19A12.05,12.05,0,0,1,1291.13,1397.8Z"/><path class="cls-23" d="M1287.73,1338.88c-.18-.2-.36-.42-.56-.61l-2.42-2.42a12.25,12.25,0,0,1-3.61-8.72v-10a12.21,12.21,0,0,1,3.61-8.71l2.08-2.08c.32-.32.61-.65.9-1a15.93,15.93,0,0,0,1.58-2.3,14.85,14.85,0,0,0,1.78-5.43h-2.68a12.55,12.55,0,0,1-.68,2.56,12.37,12.37,0,0,1-1.58,2.87,13.35,13.35,0,0,1-1.2,1.41l-2.08,2.07a14.92,14.92,0,0,0-4.39,10.6v10a14.9,14.9,0,0,0,4.39,10.6l2.42,2.42c.29.29.56.59.82.9a12,12,0,0,1,1.62,2.58c.16.34.3.68.43,1h2.8a15,15,0,0,0-1.61-3.61A14.75,14.75,0,0,0,1287.73,1338.88Z"/><path class="cls-24" d="M1292.46,1306.52l-2.08-2.07a13.35,13.35,0,0,1-1.2-1.41,12.37,12.37,0,0,1-1.58-2.87,11.92,11.92,0,0,1-.67-2.56h-2.69A14.85,14.85,0,0,0,1286,1303a15.93,15.93,0,0,0,1.58,2.3c.29.34.58.67.9,1l2.08,2.08a12.21,12.21,0,0,1,3.61,8.71v10a12.25,12.25,0,0,1-3.61,8.72l-2.42,2.42c-.2.19-.38.41-.56.61a14.75,14.75,0,0,0-1.62,2.17,15,15,0,0,0-1.61,3.61h2.8c.13-.35.27-.69.43-1a12.41,12.41,0,0,1,1.62-2.58c.26-.31.53-.61.82-.9l2.42-2.42a14.9,14.9,0,0,0,4.39-10.6v-10A14.92,14.92,0,0,0,1292.46,1306.52Z"/><path class="cls-23" d="M1102.3,1466.83c-.26-.07-.52-.16-.8-.22l-3.33-.78a12.27,12.27,0,0,1-7.67-5.49l-5.29-8.5a12.23,12.23,0,0,1-1.54-9.31l.66-2.86a11.61,11.61,0,0,0,.24-1.31,14.57,14.57,0,0,0,.13-2.79,14.9,14.9,0,0,0-1.36-5.55l-2.28,1.42a11.94,11.94,0,0,1,.78,2.53,12.33,12.33,0,0,1,.18,3.27,11.58,11.58,0,0,1-.28,1.83l-.66,2.86a14.91,14.91,0,0,0,1.87,11.32l5.29,8.49a14.91,14.91,0,0,0,9.33,6.68l3.33.78a11.22,11.22,0,0,1,1.17.33,12.22,12.22,0,0,1,2.74,1.34c.31.2.62.41.91.64l2.38-1.48a14.87,14.87,0,0,0-3.28-2.21A15.34,15.34,0,0,0,1102.3,1466.83Z"/><path class="cls-24" d="M1089.22,1436.87l-2.86-.67a13,13,0,0,1-1.77-.56,12.5,12.5,0,0,1-2.86-1.6,11.8,11.8,0,0,1-1.92-1.82l-2.28,1.42a15,15,0,0,0,4.38,3.67,14.47,14.47,0,0,0,2.55,1.11c.43.14.85.27,1.29.37l2.86.67a12.21,12.21,0,0,1,7.68,5.49l5.28,8.49a12.28,12.28,0,0,1,1.55,9.31l-.78,3.34c-.06.27-.1.54-.15.81a15.38,15.38,0,0,0-.23,2.7,14.7,14.7,0,0,0,.54,3.91l2.38-1.48c-.07-.36-.13-.73-.18-1.09a12.45,12.45,0,0,1,0-3c0-.4.13-.8.22-1.2l.77-3.33a14.86,14.86,0,0,0-1.87-11.32l-5.29-8.5A14.85,14.85,0,0,0,1089.22,1436.87Z"/><path class="cls-23" d="M1157.29,1399.61a15,15,0,0,0-1.63-2.19,15.06,15.06,0,0,0-1.64,2.19,12.59,12.59,0,0,1,1.64,2.57A12.14,12.14,0,0,1,1157.29,1399.61Z"/><path class="cls-25" d="M1304.6,1447.21a8.67,8.67,0,0,0-8.64-8.64H1147.32a8.67,8.67,0,0,0-8.64,8.64v54a8.54,8.54,0,0,0,.94,3.9l21.73,64.73c0,2.27,3,4.12,6.67,4.12h107.21c3.67,0,6.68-1.85,6.68-4.12l21.67-64.56a8.59,8.59,0,0,0,1-4.07Z"/><path class="cls-25" d="M1096.38,1379.68a19.32,19.32,0,1,0-38.63-.09l-.11,47.3a19.31,19.31,0,0,0,2.61,9.75l6,10.29,30-25.18Z"/><path class="cls-25" d="M1133.75,1487.79l-32.13-55.27-30,25.18,28.78,49.51a19.32,19.32,0,1,0,33.4-19.42Z"/><rect class="cls-25" x="1139.32" y="1383.51" width="32.67" height="46.78" rx="12" ry="12"/><rect class="cls-25" x="1184.1" y="1383.51" width="32.67" height="46.78" rx="12" ry="12"/><rect class="cls-25" x="1227.79" y="1383.51" width="32.67" height="46.78" rx="12" ry="12"/><rect class="cls-25" x="1271.33" y="1383.51" width="32.67" height="46.78" rx="12" ry="12"/><polygon class="cls-19" points="1140.23 1632.62 1140.36 1618.96 1151.19 1619.06 1168.71 1619.22 1168.11 1680.11 1139.76 1679.82 1140.23 1632.62"/><polygon class="cls-20" points="1168.71 1619.22 1246 1620 1309.93 1620.63 1309.33 1681.5 1273.46 1681.16 1181.01 1680.24 1168.11 1680.11 1168.71 1619.22"/><polygon class="cls-1" points="1133.48 1679.76 1139.76 1679.82 1168.11 1680.11 1181.01 1680.24 1273.46 1681.16 1309.33 1681.5 1308.9 1724.88 1273.09 1724.88 1181.08 1724.88 1167.67 1724.88 1139.31 1724.88 1133.29 1724.88 1133.48 1679.76"/><path class="cls-23" d="M1155.72,1338.88c-.18-.2-.36-.42-.56-.61l-2.42-2.42a12.3,12.3,0,0,1-3.61-8.72v-10a12.26,12.26,0,0,1,3.61-8.71l2.08-2.08q.48-.48.9-1a15.16,15.16,0,0,0,1.58-2.3,14.85,14.85,0,0,0,1.78-5.43h-2.68a12.55,12.55,0,0,1-.68,2.56,12,12,0,0,1-1.58,2.87,13.35,13.35,0,0,1-1.2,1.41l-2.08,2.07a14.92,14.92,0,0,0-4.39,10.6v10a14.9,14.9,0,0,0,4.39,10.6l2.42,2.42a11.49,11.49,0,0,1,.82.9,12,12,0,0,1,1.62,2.58c.16.34.3.68.43,1h2.8a14.6,14.6,0,0,0-1.61-3.61A14.75,14.75,0,0,0,1155.72,1338.88Z"/><path class="cls-24" d="M1160.45,1306.52l-2.08-2.07a13.35,13.35,0,0,1-1.2-1.41,12.37,12.37,0,0,1-1.58-2.87,11.92,11.92,0,0,1-.67-2.56h-2.69A14.85,14.85,0,0,0,1154,1303a15.93,15.93,0,0,0,1.58,2.3c.29.34.58.67.9,1l2.08,2.08a12.21,12.21,0,0,1,3.61,8.71v10a12.25,12.25,0,0,1-3.61,8.72l-2.42,2.42c-.2.19-.37.41-.56.61a14.75,14.75,0,0,0-1.62,2.17,15,15,0,0,0-1.61,3.61h2.81a10.11,10.11,0,0,1,.42-1,12.41,12.41,0,0,1,1.62-2.58c.26-.31.53-.61.82-.9l2.42-2.42a14.9,14.9,0,0,0,4.39-10.6v-10A14.92,14.92,0,0,0,1160.45,1306.52Z"/><rect class="cls-25" x="1139.32" y="1341.89" width="32.67" height="33.35" rx="12" ry="12"/><rect class="cls-25" x="1184.1" y="1341.89" width="32.67" height="33.35" rx="12" ry="12"/><rect class="cls-25" x="1227.79" y="1341.89" width="32.67" height="33.35" rx="12" ry="12"/><rect class="cls-25" x="1271.33" y="1341.89" width="32.67" height="33.35" rx="12" ry="12"/><path class="cls-25" d="M1171.73,1283.84a16.32,16.32,0,0,0-32.14,0,9.06,9.06,0,0,0-.27,2.16v38.36a9.27,9.27,0,0,0,9.25,9.25h14.17a9.27,9.27,0,0,0,9.25-9.25V1286A9.6,9.6,0,0,0,1171.73,1283.84Z"/><path class="cls-25" d="M1216.5,1283.84a16.31,16.31,0,0,0-32.13,0,9.06,9.06,0,0,0-.27,2.16v38.36a9.27,9.27,0,0,0,9.25,9.25h14.17a9.27,9.27,0,0,0,9.25-9.25V1286A9.06,9.06,0,0,0,1216.5,1283.84Z"/><path class="cls-25" d="M1260.2,1283.84a16.32,16.32,0,0,0-32.14,0,9.06,9.06,0,0,0-.27,2.16v38.36a9.28,9.28,0,0,0,9.26,9.25h14.17a9.28,9.28,0,0,0,9.25-9.25V1286A9.06,9.06,0,0,0,1260.2,1283.84Z"/><path class="cls-25" d="M1303.73,1283.84a16.31,16.31,0,0,0-32.13,0,9.06,9.06,0,0,0-.27,2.16v38.36a9.27,9.27,0,0,0,9.25,9.25h14.17a9.27,9.27,0,0,0,9.25-9.25V1286A9.06,9.06,0,0,0,1303.73,1283.84Z"/><circle class="cls-22" cx="1077.01" cy="1419.74" r="5.78"/><circle class="cls-22" cx="1094.39" cy="1454.75" r="5.78"/><circle class="cls-22" cx="1122.89" cy="1500.17" r="5.78"/><circle class="cls-22" cx="1155.66" cy="1419.71" r="5.78"/><circle class="cls-22" cx="1155.66" cy="1394.58" r="5.78"/><circle class="cls-22" cx="1155.66" cy="1317.1" r="5.78"/><circle class="cls-22" cx="1155.66" cy="1291.98" r="5.78"/><circle class="cls-22" cx="1155.66" cy="1358.56" r="5.78"/><circle class="cls-22" cx="1200.44" cy="1419.71" r="5.78"/><circle class="cls-22" cx="1200.44" cy="1394.58" r="5.78"/><circle class="cls-22" cx="1200.44" cy="1317.1" r="5.78"/><circle class="cls-22" cx="1200.44" cy="1291.98" r="5.78"/><circle class="cls-22" cx="1200.44" cy="1358.56" r="5.78"/><circle class="cls-22" cx="1244.05" cy="1419.71" r="5.78"/><circle class="cls-22" cx="1244.05" cy="1394.58" r="5.78"/><circle class="cls-22" cx="1244.05" cy="1317.1" r="5.78"/><circle class="cls-22" cx="1244.05" cy="1291.98" r="5.78"/><circle class="cls-22" cx="1244.05" cy="1358.56" r="5.78"/><circle class="cls-22" cx="1287.67" cy="1419.71" r="5.78"/><circle class="cls-22" cx="1287.67" cy="1394.58" r="5.78"/><circle class="cls-22" cx="1287.67" cy="1317.1" r="5.78"/><circle class="cls-22" cx="1287.67" cy="1291.98" r="5.78"/><circle class="cls-22" cx="1287.67" cy="1358.56" r="5.78"/><path class="cls-26" d="M1295.81,1438.57H1259v59.11l-22.54,76.26h38.64c3.67,0,6.68-1.85,6.68-4.12l21.67-64.56a8.59,8.59,0,0,0,1-4.07v-54A8.67,8.67,0,0,0,1295.81,1438.57Z"/><circle class="cls-22" cx="1155.65" cy="1461.95" r="6.71"/><circle class="cls-22" cx="1200.44" cy="1461.95" r="6.71"/><circle class="cls-22" cx="1244.13" cy="1461.95" r="6.71"/><circle class="cls-22" cx="1177.13" cy="1560.3" r="6.71"/><circle class="cls-22" cx="1264.62" cy="1560.3" r="6.71"/><circle class="cls-22" cx="1287.67" cy="1461.95" r="6.71"/><rect class="cls-21" x="1226.15" y="1749.66" width="8.06" height="6.41" transform="translate(2460.36 3505.73) rotate(-180)"/><rect class="cls-21" x="1209.48" y="1749.63" width="8.06" height="6.41" transform="translate(2427.02 3505.67) rotate(-180)"/><path class="cls-27" d="M895.68,282.31V256l56.42-23.95v26.29L921,269.25l31.14,10.89v26.28Z"/><path class="cls-27" d="M988.26,337.73l40.35-137h20.26l-40.18,137Z"/><path class="cls-27" d="M1085.2,280.14l31.14-10.89-31.14-10.88V232.08L1141.62,256v26.28l-56.42,24.11Z"/></svg>