<svg id="Layer_1" data-name="Layer 1" xmlns="http://www.w3.org/2000/svg" viewBox="0 0 985 789.86"><defs><style>.cls-1{fill:none;stroke:#191919;stroke-linecap:round;stroke-linejoin:round;stroke-width:10px;}</style></defs><title>Untitled-1</title><polyline class="cls-1" points="5 691.57 853.17 691.57 853.17 756.83"/><path class="cls-1" d="M860.17,861.47a28.09,28.09,0,0,1-28,28" transform="translate(-7 -104.64)"/><line class="cls-1" x1="825.19" y1="784.86" x2="27.4" y2="784.86"/><path class="cls-1" d="M34.4,889.5A22.48,22.48,0,0,1,12,867.08" transform="translate(-7 -104.64)"/><line class="cls-1" x1="5" y1="762.44" x2="5" y2="691.57"/><line class="cls-1" x1="268.53" y1="247.09" x2="80.04" y2="247.09"/><path class="cls-1" d="M87,351.73a25.14,25.14,0,0,0-25.08,25" transform="translate(-7 -104.64)"/><polyline class="cls-1" points="54.96 272.13 54.96 691.57 803.21 691.57 803.21 537.22"/><line class="cls-1" x1="562.06" y1="247.09" x2="392.12" y2="247.09"/><line class="cls-1" x1="782.97" y1="247.09" x2="631.94" y2="247.09"/><line class="cls-1" x1="803.21" y1="458.18" x2="803.21" y2="319.87"/><line class="cls-1" x1="46.18" y1="738.22" x2="321.05" y2="738.22"/><path class="cls-1" d="M723,848.77a5.91,5.91,0,1,0-6-5.91,5.93,5.93,0,0,0,6,5.91" transform="translate(-7 -104.64)"/><path class="cls-1" d="M767.43,848.77a5.91,5.91,0,1,0,0-11.83,5.91,5.91,0,0,0,0,11.83" transform="translate(-7 -104.64)"/><path class="cls-1" d="M808.18,848.77a5.91,5.91,0,1,0-5.92-5.91,6,6,0,0,0,5.92,5.91" transform="translate(-7 -104.64)"/><path class="cls-1" d="M669.57,568.51a98.79,98.79,0,1,1-98.8-98.8,98.84,98.84,0,0,1,98.8,98.8" transform="translate(-7 -104.64)"/><path class="cls-1" d="M639.47,178.32a68.68,68.68,0,1,1-68.7-68.68,68.67,68.67,0,0,1,68.7,68.68" transform="translate(-7 -104.64)"/><path class="cls-1" d="M987,568.51a68.69,68.69,0,1,1-68.7-68.66A68.69,68.69,0,0,1,987,568.51" transform="translate(-7 -104.64)"/><path class="cls-1" d="M923,270.08A46.12,46.12,0,1,1,876.92,224,46.08,46.08,0,0,1,923,270.08" transform="translate(-7 -104.64)"/><path class="cls-1" d="M219.43,259.48a46.1,46.1,0,1,1-46.12-46.12,46.12,46.12,0,0,1,46.12,46.12" transform="translate(-7 -104.64)"/><line class="cls-1" x1="644.52" y1="403.71" x2="839.54" y2="200.95"/><line class="cls-1" x1="563.77" y1="362.09" x2="563.77" y2="144.04"/><polyline class="cls-1" points="662.57 463.87 800.49 463.87 842.63 463.87"/><line class="cls-1" x1="201.11" y1="186.14" x2="480.99" y2="405.32"/></svg>