<svg xmlns="http://www.w3.org/2000/svg" viewBox="0 0 982 625.47"><defs><style>.cls-1{fill:none;stroke:#130b7a;stroke-linecap:round;stroke-linejoin:round;stroke-width:10px;}</style></defs><title>Asset 1</title><g id="Layer_2" data-name="Layer 2"><g id="Layer_1-2" data-name="Layer 1"><path class="cls-1" d="M63.14,513.33H918.86V33.65A28.74,28.74,0,0,0,890.17,5H91.81A28.74,28.74,0,0,0,63.14,33.65Z"/><path class="cls-1" d="M511.48,84.87H807.87a7,7,0,0,1,6.94,6.94V231.24a7,7,0,0,1-6.94,6.94H511.48a7,7,0,0,1-7-6.94V91.81A7,7,0,0,1,511.48,84.87Z"/><polyline class="cls-1" points="5 513.58 977 513.58 977 588.37"/><path class="cls-1" d="M977,588.37a32.18,32.18,0,0,1-32.08,32.1"/><line class="cls-1" x1="944.92" y1="620.47" x2="30.69" y2="620.47"/><path class="cls-1" d="M30.69,620.47A25.76,25.76,0,0,1,5,594.78"/><line class="cls-1" x1="5" y1="594.78" x2="5" y2="513.58"/><line class="cls-1" x1="52.19" y1="567.01" x2="367.19" y2="567.01"/><path class="cls-1" d="M819.82,573.82A6.79,6.79,0,1,0,813,567a6.81,6.81,0,0,0,6.8,6.8"/><path class="cls-1" d="M870.74,573.82a6.79,6.79,0,1,0,0-13.58,6.79,6.79,0,0,0,0,13.58"/><path class="cls-1" d="M917.42,573.82a6.79,6.79,0,1,0-6.78-6.8,6.82,6.82,0,0,0,6.78,6.8"/><line class="cls-1" x1="499.35" y1="297.62" x2="814.82" y2="297.62"/><line class="cls-1" x1="818.36" y1="351.1" x2="383.29" y2="351.1"/><line class="cls-1" x1="338.75" y1="351.1" x2="149.04" y2="351.1"/><line class="cls-1" x1="149.04" y1="404.58" x2="415.92" y2="404.58"/><line class="cls-1" x1="459.22" y1="404.58" x2="818.36" y2="404.58"/><line class="cls-1" x1="149.04" y1="458.05" x2="818.36" y2="458.05"/><polyline class="cls-1" points="219.31 115.13 154.05 182.77 220.66 251.11"/><polyline class="cls-1" points="352.21 115.13 417.48 182.77 350.86 251.11"/><line class="cls-1" x1="325.1" y1="84.87" x2="252.69" y2="281.34"/></g></g></svg>