<svg id="Layer_1" data-name="Layer 1" xmlns="http://www.w3.org/2000/svg" viewBox="0 0 500 500"><defs><style>.cls-1{fill:#f5f3f2;stroke-width:7.5px;}.cls-1,.cls-2{stroke:#434242;}.cls-2{fill:#434242;stroke-width:15px;}.cls-3{fill:#e6a23e;}</style></defs><title>Brainstorm</title><path class="cls-1" d="M348,71c8,2,13,10,12,18a14.91,14.91,0,0,1-18,11L212,72c-8-2-13-9-12-18a14.91,14.91,0,0,1,18-11Z"/><path class="cls-1" d="M230,305a9,9,0,0,1-1,5H201a9,9,0,0,1-1-5c0-14-5-27-13-36-7-9-17-14-27-14a15,15,0,0,1,0-30c20,0,37,10,50,25C222,264,230,284,230,305Z"/><path class="cls-1" d="M305,297a9,9,0,0,1-1,5H276a9,9,0,0,1-1-5c0-21,8-41,20-55,1-2,2-3,4-5L157,207c-8-2-13-10-12-18,2-8,10-13,18-12l184,40a15,15,0,0,1,13,15,15.38,15.38,0,0,1-15,15c-10,0-20,5-27,14C310,270,305,283,305,297Z"/><path class="cls-1" d="M348,171c8,1,13,9,12,17-2,9-10,14-18,12L157,160c-8-2-13-10-12-18a14.91,14.91,0,0,1,18-11Z"/><path class="cls-1" d="M348,121c8,2,13,10,12,18a14.91,14.91,0,0,1-18,11L157,110c-8-1-13-9-12-18a14.91,14.91,0,0,1,18-11Z"/><path class="cls-2" d="M298,380v4c0,3-2,5-5,6l-85,9c-1,0-3,0-4-1a7.58,7.58,0,0,1-2-4V380c-8-20-27-15-27-30V320H325v30C325,365,306,360,298,380Zm27-65v-5a4.72,4.72,0,0,0-5-5H180a4.72,4.72,0,0,0-5,5v5Zm-32,96-85,9c-1,1-3,0-4-1a5.2,5.2,0,0,1-2-4v-5a4.72,4.72,0,0,1,5-5l85-10c1,0,3,0,4,1a7.58,7.58,0,0,1,2,4v6C298,408,296,411,293,411Zm0,21-85,10a7.58,7.58,0,0,1-4-2,5.2,5.2,0,0,1-2-4v-5a4.72,4.72,0,0,1,5-5l85-10a7.58,7.58,0,0,1,4,2,5.2,5.2,0,0,1,2,4v5A4.72,4.72,0,0,1,293,432Zm-16,13v8c0,6-5,9-11,10a44.17,44.17,0,0,1-32,0c-6-1-11-4-11-10v-3a4.72,4.72,0,0,1,5-5l43-5c1,0,3,0,4,1A7.58,7.58,0,0,1,277,445Z"/><path class="cls-3" d="M298,380v4c0,3-2,5-5,6l-85,9c-1,0-3,0-4-1a7.58,7.58,0,0,1-2-4V380c-8-20-27-15-27-30V320H325v30C325,365,306,360,298,380Zm27-65v-5a4.72,4.72,0,0,0-5-5H180a4.72,4.72,0,0,0-5,5v5Zm-32,96-85,9c-1,1-3,0-4-1a5.2,5.2,0,0,1-2-4v-5a4.72,4.72,0,0,1,5-5l85-10c1,0,3,0,4,1a7.58,7.58,0,0,1,2,4v6C298,408,296,411,293,411Zm0,21-85,10a7.58,7.58,0,0,1-4-2,5.2,5.2,0,0,1-2-4v-5a4.72,4.72,0,0,1,5-5l85-10a7.58,7.58,0,0,1,4,2,5.2,5.2,0,0,1,2,4v5A4.72,4.72,0,0,1,293,432Zm-16,13v8c0,6-5,9-11,10a44.17,44.17,0,0,1-32,0c-6-1-11-4-11-10v-3a4.72,4.72,0,0,1,5-5l43-5c1,0,3,0,4,1A7.58,7.58,0,0,1,277,445Z"/></svg>