<svg id="Layer_1" data-name="Layer 1" xmlns="http://www.w3.org/2000/svg" xmlns:xlink="http://www.w3.org/1999/xlink" viewBox="0 0 50 50"><defs><style>.cls-1,.cls-6{fill:#e6a23e;}.cls-1,.cls-2,.cls-5,.cls-6,.cls-7,.cls-8,.cls-9{stroke:#434242;stroke-width:0.5px;}.cls-2,.cls-4,.cls-9{fill:#f5f3f2;}.cls-3,.cls-8{fill:#434242;}.cls-5{fill:none;}.cls-6,.cls-7,.cls-8,.cls-9{stroke-linejoin:round;}.cls-7{fill:url(#linear-gradient);}</style><linearGradient id="linear-gradient" x1="21.26" y1="23.26" x2="18.28" y2="20.28" gradientTransform="matrix(1, 0, 0, -1, 0, 52)" gradientUnits="userSpaceOnUse"><stop offset="0" stop-color="#fcfcfd"/><stop offset="1" stop-color="#fff"/></linearGradient></defs><title>design</title><path class="cls-1" d="M7,9C6,8,7,6,9,7c7,6,16,13,22,21l-3,3C20,25,13,17,7,9Z"/><path class="cls-2" d="M31,28l5,6v1l-1,1H34c-2-1-4-3-6-5Z"/><path class="cls-3" d="M35,36a4.4,4.4,0,0,0,1,5c3,3,8,1,8,1-4-3,1-7-8-7Z"/><path class="cls-4" d="M39,41c-1-1,0-2-3-3A3.19,3.19,0,0,0,39,41Z"/><line class="cls-5" x1="29" y1="32" x2="32" y2="29"/><path class="cls-6" d="M40,7l3,3A114.61,114.61,0,0,1,21,32l-3-3A114.61,114.61,0,0,1,40,7Z"/><path class="cls-7" d="M22,32H21l-3-3V28Z"/><path class="cls-6" d="M21,32l-4,4a1,1,0,0,1-1,1l-3-3a1,1,0,0,1,1-1l4-4Z"/><path class="cls-8" d="M13,34l3,3H15l-2-2Z"/><path class="cls-9" d="M7,43l2-6h1l3-2,2,2-2,3v1Z"/><path class="cls-3" d="M12,38v1H11L7,43l4-4V38Z"/><path class="cls-9" d="M42,6a2.15,2.15,0,0,1,2,2V9l-1,1L40,7l1-1Z"/></svg>