<svg id="Layer_1" data-name="Layer 1" xmlns="http://www.w3.org/2000/svg" viewBox="0 0 500 500"><defs><style>.cls-1,.cls-4{fill:#434242;}.cls-1,.cls-2{stroke:#434242;stroke-width:10px;}.cls-2{fill:#e6a23e;}.cls-3{fill:#f5f3f2;}</style></defs><title>develop</title><path class="cls-1" d="M40,90H460V400a10,10,0,0,1-10,10H50a10,10,0,0,1-10-10Z"/><path class="cls-2" d="M65,60H435a24.76,24.76,0,0,1,25,25v15H40V85A24.76,24.76,0,0,1,65,60Z"/><path class="cls-3" d="M50,110H450V395a4.72,4.72,0,0,1-5,5H55a4.72,4.72,0,0,1-5-5Z"/><path class="cls-4" d="M180,353,86,313V290l94-41v27l-65,25,65,26Zm20,19,34-142h19L219,372Zm73-18V327l65-26-65-25V249l94,41v23Z"/></svg>