<svg id="Layer_1" data-name="Layer 1" xmlns="http://www.w3.org/2000/svg" viewBox="0 0 1551.44 1974.76"><defs><style>.cls-1{fill:#2f2f30;}.cls-2,.cls-9{fill:#38b299;}.cls-12,.cls-2,.cls-4,.cls-5,.cls-6,.cls-7{fill-rule:evenodd;}.cls-3,.cls-7{fill:#454545;}.cls-4,.cls-8{fill:#115447;}.cls-5{fill:#a5b2af;}.cls-6{fill:#1e806c;}.cls-10,.cls-13{fill:none;stroke-miterlimit:22.93;}.cls-10{stroke:#808d8b;stroke-width:4.8px;}.cls-11{fill:#d7e5e2;}.cls-12,.cls-14{fill:#808d8b;}.cls-13{stroke:#d7e5e2;stroke-width:1.2px;}.cls-15{fill:#f4a017;}.cls-16{fill:#531037;}.cls-17{fill:#d88580;}.cls-18{fill:#e99f96;}.cls-19{fill:#c6d0df;}.cls-20{fill:#fff;}.cls-21{fill:#f1ecd7;}.cls-22{fill:#2b2a2a;}.cls-23{fill:#e54218;}.cls-24{fill:#5db466;}.cls-25{fill:#417795;}.cls-26{fill:#5a7c8d;opacity:0.22;}</style></defs><title>ill2</title><path class="cls-1" d="M777.94,492.9c.62-1.49,1.2-3,1.77-4.49h-14a147.42,147.42,0,0,1-31.87,47.39,160.59,160.59,0,0,0-47.06,112.78h13A146.65,146.65,0,0,1,743.11,545,160.13,160.13,0,0,0,777.94,492.9Z"/><path class="cls-1" d="M908.79,587.93A159.81,159.81,0,0,0,874,535.8a147.26,147.26,0,0,1-31.87-47.39h-14c.57,1.5,1.15,3,1.77,4.49A159.81,159.81,0,0,0,864.73,545,146.65,146.65,0,0,1,908,648.58h13A159.93,159.93,0,0,0,908.79,587.93Z"/><path class="cls-1" d="M563.68,510.7a137.72,137.72,0,0,0,30,44.91L668.06,630H688.7L604,545.29a122.87,122.87,0,0,1-35.09-70.46H554.2A137.57,137.57,0,0,0,563.68,510.7Z"/><path class="cls-1" d="M1033.17,510.7a137.88,137.88,0,0,1-30,44.91L928.79,630H908.15l84.69-84.69a122.87,122.87,0,0,0,35.09-70.46h14.72A137.57,137.57,0,0,1,1033.17,510.7Z"/><path class="cls-1" d="M1470.44,866.39a135.61,135.61,0,0,0-61.09-50.1L1364,797.52a135.42,135.42,0,0,0-52-10.33h-228.3v14.35H1312a121.09,121.09,0,0,1,46.51,9.24l45.36,18.77A121.3,121.3,0,0,1,1479,942v121.84a120.89,120.89,0,0,1-35.64,86l-136.27,136.27a136,136,0,0,0-39.84,96.19V1576h14.35v-193.7a120.86,120.86,0,0,1,35.64-86L1453.54,1160a136,136,0,0,0,39.84-96.19V942A135.57,135.57,0,0,0,1470.44,866.39Z"/><path class="cls-2" d="M460.67,615.37h54.77c14.46,0,21.4,2,26.36,26.33C565,755.52,671.55,842.19,800.9,842.19c129.72,0,237.63-87,259.3-201.48,3.71-19.64,15.85-25.34,24.06-25.34h56.88a28.8,28.8,0,0,1,28.72,28.73V910a28.8,28.8,0,0,1-28.72,28.72H460.67A28.8,28.8,0,0,1,431.94,910V644.1A28.8,28.8,0,0,1,460.67,615.37Z"/><rect class="cls-3" x="399.48" y="569.84" width="802.85" height="73.36"/><polygon class="cls-4" points="1169.86 643.2 1169.86 909.96 1156.34 975.61 800.9 1082.63 446.76 976.72 431.94 909.96 431.94 643.2 1169.86 643.2"/><path class="cls-5" d="M741,643.2H854.68l165.93,59.33C984.29,774.4,899.64,824.79,801,824.79c-101.89,0-188.83-53.76-223-129.42Z"/><path class="cls-2" d="M1154.62,984.37,1109.22,1133c-20.75,67.94-65.58,79.78-89.75,79.78H584.25c-31.72,0-71.73-20.78-89.75-79.78L446.76,976.73c-4.6-15.08,2-24.24,21.77-24.24H1136C1152.62,952.49,1160.22,966,1154.62,984.37Z"/><path class="cls-6" d="M591.15,1180.55c-36.33,0-45.51-5-60.11-48.41L487.59,1003c-3.73-11.09,1.34-18.23,14.63-18.23h597.36c13.29,0,18.36,7.14,14.63,18.23l-43.45,129.19c-14.6,43.41-28.93,48.41-60.11,48.41Z"/><path class="cls-7" d="M597.7,1180.55c-17.71,0-49.15-2.63-55.82-37.64l-19.16-100.44c-1.7-8.94,1.07-14.17,11.62-14.17h533.13c10.54,0,13.31,5.23,11.61,14.17l-19.16,100.44c-6.67,35-38.34,37.64-55.82,37.64Z"/><path class="cls-2" d="M460.67,623.38h54.77c14.46,0,21.41,2,26.36,26.34C565,763.53,671.55,842.19,800.9,842.19c129.72,0,237.63-79,259.3-193.47,3.71-19.64,15.85-25.34,24.06-25.34h56.88a28.81,28.81,0,0,1,28.72,28.73V910a28.8,28.8,0,0,1-28.72,28.72H460.67A28.8,28.8,0,0,1,431.94,910V652.11A28.81,28.81,0,0,1,460.67,623.38Z"/><path class="cls-6" d="M516.69,623.39c13.62.13,20.3,2.7,25.11,26.33C565,763.53,671.55,842.19,800.9,842.19c129.72,0,237.63-79,259.3-193.47,3.71-19.64,15.85-25.34,24.06-25.34h.86C1076,763,952.27,865.66,800.9,865.66S525.78,763.05,516.69,623.39Z"/><ellipse class="cls-8" cx="376.67" cy="606.52" rx="12.06" ry="36.68"/><rect class="cls-9" x="376.67" y="548.02" width="22.81" height="117"/><ellipse class="cls-8" cx="1225.13" cy="606.52" rx="12.06" ry="36.68"/><rect class="cls-9" x="1202.33" y="548.02" width="22.8" height="117"/><line class="cls-10" x1="399.48" y1="606.52" x2="1202.33" y2="606.52"/><line class="cls-10" x1="569.24" y1="583.06" x2="569.24" y2="629.98"/><line class="cls-10" x1="1032.56" y1="583.06" x2="1032.56" y2="629.98"/><rect class="cls-11" x="566.95" y="1036.63" width="30.88" height="27.73" rx="6.09" ry="6.09"/><rect class="cls-11" x="546.89" y="1072.58" width="30.88" height="27.73" rx="6.09" ry="6.09"/><rect class="cls-11" x="566.95" y="1108.53" width="30.88" height="27.73" rx="6.09" ry="6.09"/><rect class="cls-11" x="606.71" y="1036.63" width="30.88" height="27.73" rx="6.09" ry="6.09"/><rect class="cls-11" x="586.65" y="1072.58" width="30.88" height="27.73" rx="6.09" ry="6.09"/><rect class="cls-11" x="606.71" y="1108.53" width="30.88" height="27.73" rx="6.09" ry="6.09"/><rect class="cls-11" x="586.65" y="1144.47" width="30.88" height="27.73" rx="6.09" ry="6.09"/><rect class="cls-11" x="646.48" y="1036.63" width="30.88" height="27.73" rx="6.09" ry="6.09"/><rect class="cls-11" x="626.41" y="1072.58" width="30.88" height="27.73" rx="6.09" ry="6.09"/><rect class="cls-11" x="646.48" y="1108.53" width="30.88" height="27.73" rx="6.09" ry="6.09"/><rect class="cls-11" x="686.24" y="1036.63" width="30.88" height="27.73" rx="6.09" ry="6.09"/><rect class="cls-11" x="666.18" y="1072.58" width="30.88" height="27.73" rx="6.09" ry="6.09"/><rect class="cls-11" x="686.24" y="1108.53" width="30.88" height="27.73" rx="6.09" ry="6.09"/><rect class="cls-11" x="726" y="1036.63" width="30.88" height="27.73" rx="6.09" ry="6.09"/><rect class="cls-11" x="705.94" y="1072.58" width="30.88" height="27.73" rx="6.09" ry="6.09"/><rect class="cls-11" x="726" y="1108.53" width="30.88" height="27.73" rx="6.09" ry="6.09"/><rect class="cls-11" x="765.76" y="1036.63" width="30.88" height="27.73" rx="6.09" ry="6.09"/><rect class="cls-11" x="745.7" y="1072.58" width="30.88" height="27.73" rx="6.09" ry="6.09"/><rect class="cls-11" x="765.76" y="1108.53" width="30.88" height="27.73" rx="6.09" ry="6.09"/><rect class="cls-11" x="805.53" y="1036.63" width="30.88" height="27.73" rx="6.09" ry="6.09"/><rect class="cls-11" x="785.46" y="1072.58" width="30.88" height="27.73" rx="6.09" ry="6.09"/><rect class="cls-11" x="805.53" y="1108.53" width="30.88" height="27.73" rx="6.09" ry="6.09"/><rect class="cls-11" x="845.29" y="1036.63" width="30.88" height="27.73" rx="6.09" ry="6.09"/><rect class="cls-11" x="825.22" y="1072.58" width="30.88" height="27.73" rx="6.09" ry="6.09"/><rect class="cls-11" x="845.29" y="1108.53" width="30.88" height="27.73" rx="6.09" ry="6.09"/><rect class="cls-11" x="885.05" y="1036.63" width="30.88" height="27.73" rx="6.09" ry="6.09"/><rect class="cls-11" x="864.99" y="1072.58" width="30.88" height="27.73" rx="6.09" ry="6.09"/><rect class="cls-11" x="885.05" y="1108.53" width="30.88" height="27.73" rx="6.09" ry="6.09"/><rect class="cls-11" x="924.81" y="1036.63" width="30.88" height="27.73" rx="6.09" ry="6.09"/><rect class="cls-11" x="904.75" y="1072.58" width="30.88" height="27.73" rx="6.09" ry="6.09"/><rect class="cls-11" x="924.81" y="1108.53" width="30.88" height="27.73" rx="6.09" ry="6.09"/><rect class="cls-11" x="964.58" y="1036.63" width="30.88" height="27.73" rx="6.09" ry="6.09"/><rect class="cls-11" x="944.51" y="1072.58" width="30.88" height="27.73" rx="6.09" ry="6.09"/><rect class="cls-11" x="964.58" y="1108.53" width="30.88" height="27.73" rx="6.09" ry="6.09"/><rect class="cls-11" x="626.41" y="1144.47" width="348.98" height="27.73" rx="6.09" ry="6.09"/><rect class="cls-11" x="1004.34" y="1036.63" width="30.88" height="27.73" rx="6.09" ry="6.09"/><rect class="cls-11" x="984.28" y="1072.58" width="30.88" height="27.73" rx="6.09" ry="6.09"/><rect class="cls-11" x="1004.34" y="1108.53" width="30.88" height="27.73" rx="6.09" ry="6.09"/><rect class="cls-11" x="984.28" y="1144.47" width="30.88" height="27.73" rx="6.09" ry="6.09"/><rect class="cls-11" x="1024.04" y="1072.58" width="30.88" height="27.73" rx="6.09" ry="6.09"/><path class="cls-12" d="M988.24,691C957.27,752.23,885.1,795.2,801,795.2c-86.87,0-161-45.84-190.15-110.35L741,643.2H854.68Z"/><path class="cls-4" d="M887.72,655C873.38,683.39,840,703.29,801,703.29c-40.23,0-74.57-21.23-88.07-51.1v-9H887.56Z"/><path class="cls-5" d="M887.72,655C873.38,683.39,840,703.29,801,703.29c-40.23,0-74.57-21.23-88.07-51.1l15.62-5c11.11,24.57,39.35,42,72.45,42,32,0,59.54-16.37,71.33-39.72Z"/><path class="cls-1" d="M536.42,1687.2v88.13a123.82,123.82,0,1,1-247.64,0V1402.78a138.44,138.44,0,0,0-40.54-97.87L109.59,1166.25a123,123,0,0,1-36.27-87.55v-124a123.45,123.45,0,0,1,76.49-114.41L196,821.22a123.38,123.38,0,0,1,47.33-9.4h86.94l-.15,11.31a7.92,7.92,0,0,0,7.81,8l40.14.54.11-8.22,18.51.25.49-36.43L378.64,787l.12-9-40.15-.54a7.9,7.9,0,0,0-8,7.81l-.16,11.9H243.3a137.63,137.63,0,0,0-52.91,10.52l-46.16,19.09a138.44,138.44,0,0,0-85.51,127.9v124a138.48,138.48,0,0,0,40.54,97.88l138.66,138.65a123,123,0,0,1,36.26,87.55v372.55c0,76.33,62.09,138.42,138.42,138.42S551,1851.66,551,1775.33V1687.2Z"/><path class="cls-11" d="M731.5,652.88,585.61,710.36c-.35-.62-.7-1.24-1-1.86L730.46,651C730.8,651.65,731.14,652.27,731.5,652.88Z"/><path class="cls-11" d="M734.19,657.06,593.67,723.35l-1.18-1.77L733,655.29C733.39,655.89,733.78,656.48,734.19,657.06Z"/><path class="cls-11" d="M737.17,661,602.66,735.57c-.45-.56-.88-1.12-1.31-1.68l134.5-74.57C736.28,659.88,736.72,660.44,737.17,661Z"/><path class="cls-11" d="M740.4,664.65,612.44,747,611,745.41l128-82.33C739.43,663.61,739.91,664.13,740.4,664.65Z"/><path class="cls-11" d="M743.85,668.05,622.91,757.57l-1.55-1.47L742.3,666.58C742.81,667.07,743.32,667.56,743.85,668.05Z"/><path class="cls-11" d="M747.47,671.16,633.94,767.32,632.3,766,745.83,669.8C746.37,670.26,746.92,670.72,747.47,671.16Z"/><path class="cls-11" d="M751.25,674,645.45,776.22c-.57-.42-1.15-.83-1.72-1.26L749.52,672.75C750.09,673.18,750.67,673.59,751.25,674Z"/><path class="cls-11" d="M755.14,676.58,657.35,784.31l-1.79-1.16,97.78-107.72C753.94,675.82,754.54,676.21,755.14,676.58Z"/><path class="cls-11" d="M759.13,678.9,669.56,791.58l-1.86-1,89.57-112.68Z"/><path class="cls-11" d="M763.2,681,682,798.06l-1.91-.93L761.29,680C761.92,680.34,762.56,680.65,763.2,681Z"/><path class="cls-11" d="M767.33,682.76l-72.66,121-1.95-.84,72.65-121Z"/><path class="cls-11" d="M771.5,684.33l-64,124.44-2-.73,64-124.43C770.16,683.86,770.83,684.1,771.5,684.33Z"/><path class="cls-11" d="M775.7,685.67,720.39,813l-2-.62,55.31-127.35C774.35,685.27,775,685.48,775.7,685.67Z"/><path class="cls-11" d="M779.93,686.79,733.39,816.61l-2-.52,46.54-129.82Z"/><path class="cls-11" d="M784.17,687.69,746.45,819.51l-2.07-.41L782.1,687.27Z"/><path class="cls-11" d="M788.43,688.37l-28.89,133.4-2.08-.32,28.88-133.39C787,688.17,787.73,688.28,788.43,688.37Z"/><path class="cls-11" d="M792.69,688.85l-20,134.54-2.09-.22,20-134.53Q791.63,688.76,792.69,688.85Z"/><path class="cls-11" d="M797,689.14,785.8,824.39l-2.11-.12L794.84,689Z"/><path class="cls-11" d="M801.2,689.23l-2.27,135.55-2.1,0,2.27-135.55,1.9,0Z"/><path class="cls-11" d="M805.46,689.12l6.61,135.45-2.11.08-6.6-135.45C804.06,689.18,804.76,689.16,805.46,689.12Z"/><path class="cls-11" d="M809.72,688.82l15.47,134.95-2.1.17L807.62,689Z"/><path class="cls-11" d="M814,688.32l24.35,134-2.09.26-24.34-134C812.57,688.51,813.27,688.42,814,688.32Z"/><path class="cls-11" d="M818.2,687.61,851.4,820.3l-2.08.36L816.13,688C816.82,687.87,817.51,687.74,818.2,687.61Z"/><path class="cls-11" d="M822.42,686.7l42,130.9-2.06.47-42-130.9C821.06,687,821.74,686.87,822.42,686.7Z"/><path class="cls-11" d="M826.63,685.57l50.82,128.68-2,.58L824.59,686.15Z"/><path class="cls-11" d="M830.81,684.23l59.56,126-2,.68-59.56-126Z"/><path class="cls-11" d="M835,682.65l68.23,122.83-2,.78L833,683.43C833.64,683.18,834.29,682.92,835,682.65Z"/><path class="cls-11" d="M839,680.84,915.87,800l-1.94.88L837.11,681.73Z"/><path class="cls-11" d="M843.07,678.78l85.29,115c-.63.33-1.25.67-1.88,1l-85.29-115C841.82,679.45,842.45,679.12,843.07,678.78Z"/><path class="cls-11" d="M847,676.48l93.6,110.33-1.83,1.1L845.2,677.58C845.82,677.22,846.42,676.85,847,676.48Z"/><path class="cls-11" d="M850.88,673.91,952.61,779l-1.76,1.21L849.12,675.12C849.72,674.72,850.31,674.32,850.88,673.91Z"/><path class="cls-11" d="M854.62,671.08l109.61,99.34-1.69,1.31L852.94,672.4Q853.8,671.76,854.62,671.08Z"/><path class="cls-11" d="M858.21,668,975.4,761l-1.59,1.43-117.19-93C857.16,668.94,857.69,668.47,858.21,668Z"/><path class="cls-11" d="M861.63,664.62,986,750.71l-1.49,1.53L860.14,666.15C860.64,665.65,861.14,665.14,861.63,664.62Z"/><path class="cls-11" d="M864.83,661l131.22,78.62-1.38,1.63L863.45,662.61Q864.16,661.82,864.83,661Z"/><path class="cls-11" d="M867.78,657.09,1005.3,727.7l-1.25,1.72L866.54,658.81C867,658.24,867.38,657.67,867.78,657.09Z"/><path class="cls-11" d="M870.46,652.94,1013.68,715c-.36.61-.73,1.21-1.11,1.81L869.35,654.75C869.73,654.16,870.1,653.55,870.46,652.94Z"/><path class="cls-11" d="M872.83,648.58l148.27,53c-.32.63-.65,1.26-1,1.88l-148.28-53C872.18,649.84,872.51,649.21,872.83,648.58Z"/><path class="cls-11" d="M729.15,648.46l-150.59,48.2-.91-1.92,150.58-48.2C728.53,647.19,728.83,647.83,729.15,648.46Z"/><path class="cls-11" d="M1000.71,727.7v-2.36l4.59,2.36-1.25,1.72-3.34-1.72Zm0-16v-2.29l13,5.62c-.36.61-.73,1.21-1.11,1.81l-11.86-5.14Zm0-15.13V694.3l20.39,7.29c-.32.63-.65,1.26-1,1.88Zm0-2.24v2.24l-13-4.64.49-.95.42-1,12.05,4.31Zm0,15.08v2.29L985,704.88v-2.29l15.67,6.79Zm0,16v2.36L985,719.65v-2.36l15.67,8.05ZM985,751.75V750l1,.69-1,1Zm0-16.28V733l11,6.6-1.38,1.63Zm0-32.88v2.29l-3.74-1.62c.38-.6.75-1.2,1.11-1.81l2.63,1.14Zm0,14.7v2.36L974,714l1.25-1.72,9.76,5ZM985,733v2.46l-14.33-8.59v-2.45L985,733Zm0,17v1.73l-.49.49-13.84-9.58V740.1L985,750ZM970.71,760v-2.69L975.4,761l-1.59,1.43Zm0-35.52v2.45L966,724.07l1.38-1.62,3.31,2Zm0,15.67v2.56l-9.9-6.85v-2.56l9.9,6.85Zm0,17.16V760l-9.9-7.86V749.4l9.9,7.86Zm-9.9,12.9v-2.84l3.42,3.1-1.69,1.31Zm0-36.91v2.56l-3.42-2.37c.5-.5,1-1,1.49-1.52l1.93,1.33Zm0,16.15v2.69l-10.39-8.25v-2.69l10.39,8.25Zm0,17.92v2.84l-10.39-9.42V757.9l10.39,9.42Zm-10.39,12.46v-3l2.19,2.26-1.76,1.21Zm0-38.63v2.69l-2.19-1.73,1.59-1.43.6.47Zm0,16.75v2.84L939.62,751v-1.7l.68-.52,10.12,9.16Zm0,18.86v3l-10.8-11.15v-3l10.8,11.16Zm-10.8,10.66v-1.8l1,1.19Zm0-38.16V751l-1-.92,1-.78Zm0,16.34v3l-5-5.15v-3l5,5.15Zm0,20v1.8l-.82.49L934.64,783v-3.26Zm-5-25.17v3l-6-6.2,1.76-1.21,4.24,4.38Zm0,19.29V783l-11.28-13.29v-3.25l11.28,13.28Zm-11.28,10.85v-3.53l5,6.74c-.63.33-1.25.67-1.88,1Zm0-24.13v3.25l-5-5.89,1.83-1.1,3.16,3.74Zm0,20.6v3.53l-11.5-15.51v-3.53l11.5,15.51Zm-11.5,10.64v-3.89l4,6.21-1.94.88Zm0-26.15v3.53l-4-5.39,1.88-1,2.12,2.86Zm0,22.26v3.89l-11.69-18.14v-3.89l11.69,18.14Zm-11.69,10.58v-4.33l3,5.42-2,.78Zm0-28.72v3.89l-3-4.68,1.93-.88,1.08,1.67Zm0,24.39-11.83-21.3v4.33l11.83,21.3v-4.33Zm-11.83,10.8v-4.93l2,4.29-2,.68Zm0-32.1v4.33l-2-3.64,2-.78.05.09Zm0,27.17-11-23.22-1,.33v2.56l11.94,25.26v-4.93Zm-11.94,8.62V811.6l1.05,2.65Zm0-31.51v2.56l-1-2.21,1-.35Zm0,28.56v2.95l-1,.28-11-27.93v-.19l2-.55,10,25.44Zm-12,6v-.23l.07.21Zm0-30.91v.19l-.07-.17.07,0Zm0,30.68v.23c-.66.15-1.32.31-2,.45l-9.17-28.57,2-.47,9.11,28.36ZM731.9,816.23v-1.71l9.6-26.77,2,.52-10.16,28.34-1.49-.38Zm0-29.71v-1.46l.57.17-.57,1.29Zm22.79,4.21-8.24,28.78-2.07-.41,8.23-28.78,2.08.41Zm11.16,1.91-6.31,29.13-2.08-.32,6.3-29.12,2.09.31ZM777,794l-4.37,29.37-2.09-.22,4.37-29.37L777,794Zm11.2.84-2.43,29.53-2.11-.12,2.43-29.53,2.11.12Zm11.19.33-.49,29.59-2.1,0,.49-29.59,2.1,0Zm11.2-.19,1.45,29.57-2.11.08-1.44-29.57,2.1-.08Zm11.2-.7,3.37,29.47-2.1.17-3.37-29.46,2.1-.18ZM833,793.08l5.32,29.27-2.09.26-5.31-29.26c.69-.08,1.39-.17,2.08-.27Zm11.16-1.75,7.25,29-2.08.36-7.25-29ZM731.9,785.06v1.46L720.39,813l-.48-.14v-4l10.53-24.25,1.46.45Zm0,29.46v1.71l-.56-.14.56-1.57Zm-12-29.92V781l1.54.56Zm0-3.56v3.56L708,807.74v-4.61l11.45-22.25.45.16Zm0,27.82v4l-1.54-.48,1.54-3.55ZM708,781.57l2.52-4.2-1.95-.84-.57,1Zm0-4.08v4.08l-11.78,19.62v-4.08L708,777.49Zm0,25.64v4.61l-.53,1-2-.73,2.53-4.91Zm-11.78-25.57,3.51-5.06-1.91-.94-1.6,2.31Zm0-3.69v3.69l-11.62,16.76v-3.69l11.62-16.76Zm0,23.24v4.08l-1.56,2.6-1.95-.84,3.51-5.84Zm-11.62-24.47v-3.38l2.65-3.32,1.86,1Zm0-3.38v3.38l-15.05,18.94-1.44-.8V790l16.49-20.74Zm0,21.37-4.5,6.5,1.91.93,2.59-3.74v-3.69Zm-16.49-18.19,10.58-11.65-1.79-1.16-8.79,9.68v3.13Zm0-18.12v-.72l.43.31Zm0-.72v.72l-11,10.61V762l9.68-9.35,1.3,1Zm0,15.71v3.13l-10.77,11.87-.21-.13V781.4l11-12.09Zm0,20.69v.78l-.42-.24.42-.54Zm-11-42.33V745l1.59,1.33Zm0-2.67v2.67l-10.62,9v-2.75L657.09,745l0,0Zm0,17v2.93l-10.62,10.26v-2.92L657.14,762Zm0,19.4v2.78l-1.58-1,1.58-1.75Zm-10.62-41.31v-2.61l1.24-.92,1.55,1.46Zm0-2.61v2.61l-10.18,7.54V745l10.18-7.53Zm0,16.43v2.75l-10.18,8.62v-2.75l10.18-8.62Zm0,18.36v2.92l-1.07,1c-.57-.42-1.15-.83-1.72-1.26l2.79-2.69Zm-10.18-40.66v-2.5l2.6-1.68c.48.53.95,1.06,1.44,1.58Zm0-2.5v2.5l-14.83,9.54v-2.5l14.83-9.54Zm0,15.9v2.62l-13.43,9.94-1.4-1.32V756l14.83-11Zm0,17.52v2.75l-2.4,2L632.3,766l4-3.42Zm-14.83-37.42v-2.4l9.2-5.1,1.31,1.68-10.51,5.82Zm0-14.9v-2.32l1.66-.78c.39.59.78,1.18,1.18,1.76Zm-4-12.4L605,702.73v-2.27L616.42,696c.34.62.69,1.24,1,1.86Zm4,10.08v2.32L605,718v-2.32l16.54-7.8Zm0,14.82v2.4L605,734.29v-2.41l16.54-9.17Zm0,15.94v2.5L612.44,747,611,745.41l10.5-6.76Zm0,17.33v.27l-.15-.15.15-.12ZM605,688.2V686l5.61-1.79.27.65c.19.43.4.86.6,1.28Zm0,14.53-19.36,7.63c-.35-.62-.7-1.24-1-1.86l20.4-8v2.27ZM605,686v2.21l-26.41,8.46-.91-1.92L605,686Zm0,29.7V718l-11.3,5.34-1.18-1.77L605,715.69Zm0,16.19v2.41l-2.31,1.28c-.45-.56-.88-1.12-1.31-1.68Z"/><path class="cls-13" d="M617.46,697.81l-31.85,12.55c-.35-.62-.7-1.24-1-1.86L616.42,696c.34.62.69,1.24,1,1.86Zm6.89,11.06-30.68,14.48-1.18-1.77,30.68-14.47c.39.59.78,1.18,1.18,1.76ZM632,719.29l-29.36,16.28c-.45-.56-.88-1.12-1.31-1.68l29.36-16.28,1.31,1.68Zm8.36,9.72-27.94,18L611,745.41l27.93-18c.48.53.95,1.06,1.44,1.58Zm8.93,9-26.4,19.55-1.55-1.47,26.4-19.54,1.55,1.46Zm9.42,8.31-24.79,21L632.3,766l24.79-21,1.64,1.37Zm9.82,7.58-23.1,22.31c-.57-.42-1.15-.83-1.72-1.26l23.09-22.31,1.73,1.26Zm10.15,6.88-21.35,23.52-1.79-1.16,21.35-23.52,1.79,1.16ZM689.12,767l-19.56,24.6-1.86-1,19.56-24.6,1.86,1Zm10.62,5.52L682,798.06l-1.91-.93,17.72-25.57,1.91.94Zm10.79,4.87-15.86,26.42-1.95-.84,15.86-26.42,1.95.84Zm10.92,4.23-14,27.17-2-.73,14-27.16,2,.72Zm11,3.63L720.39,813l-2-.62,12.07-27.8,2,.62Zm11.08,3-10.16,28.34-2-.52,10.16-28.34,2,.52Zm11.14,2.46-8.24,28.78-2.07-.41,8.23-28.78,2.08.41Zm11.16,1.91-6.31,29.13-2.08-.32,6.3-29.12,2.09.31ZM777,794l-4.37,29.37-2.09-.22,4.37-29.37L777,794Zm11.2.84-2.43,29.53-2.11-.12,2.43-29.53,2.11.12Zm11.19.33-.49,29.59-2.1,0,.49-29.59,2.1,0Zm11.2-.19,1.45,29.57-2.11.08-1.44-29.57,2.1-.08Zm11.2-.7,3.37,29.47-2.1.17-3.37-29.46,2.1-.18ZM833,793.08l5.32,29.27-2.09.26-5.31-29.26c.69-.08,1.39-.17,2.08-.27Zm11.16-1.75,7.25,29-2.08.36-7.25-29,2.08-.37Zm11.12-2.3,9.18,28.57-2.06.47-9.17-28.57,2-.47Zm11.09-2.87,11.09,28.09-2,.58-11.1-28.1c.69-.18,1.37-.38,2.05-.57Zm11-3.45,13,27.51-2,.68-13-27.51,2-.68Zm10.92-4,14.89,26.81-2,.78-14.89-26.81,2-.78Zm10.8-4.67,16.78,26-1.94.88-16.77-26,1.93-.88Zm10.65-5.31,18.62,25.11c-.63.33-1.25.67-1.88,1l-18.62-25.1,1.88-1Zm10.46-6,20.43,24.09-1.83,1.1-20.43-24.09,1.83-1.1Zm10.2-6.65L952.61,779l-1.76,1.21-22.21-23,1.76-1.21Zm9.9-7.33,23.93,21.68-1.69,1.31L938.62,750l1.68-1.3Zm9.52-8.06L975.4,761l-1.59,1.43-25.58-20.3,1.59-1.43Zm9.06-8.76L986,750.71l-1.49,1.53-27.16-18.8c.5-.5,1-1,1.49-1.52Zm8.52-9.47,28.65,17.16-1.38,1.63L966,724.07l1.38-1.62Zm7.88-10.17,30,15.42-1.25,1.72L974,714l1.25-1.72Zm7.13-10.83L1013.68,715c-.36.61-.73,1.21-1.11,1.81L981.3,703.26c.38-.6.75-1.2,1.11-1.81ZM988.66,690l32.44,11.6c-.32.63-.65,1.26-1,1.88L987.75,691.9l.49-.95.42-1Zm-377.21-3.86-32.89,10.53-.91-1.92,32.93-10.54.27.65C611,685.28,611.25,685.71,611.45,686.13Z"/><rect class="cls-14" x="785.98" y="617.24" width="8.44" height="42.2"/><rect class="cls-14" x="806.23" y="617.24" width="8.44" height="42.2"/><rect class="cls-14" x="785.98" y="656.2" width="28.69" height="28.67"/><rect id="_Rectangle_" data-name="&lt;Rectangle&gt;" class="cls-3" x="439.68" y="47.35" width="727.58" height="468.15" rx="18.88" ry="18.88"/><rect id="_Rectangle_2" data-name="&lt;Rectangle&gt;" class="cls-15" x="480.87" y="90.59" width="645.19" height="372.34"/><circle class="cls-11" cx="803.46" cy="488.41" r="13.58"/><path class="cls-1" d="M1267.29,1575.74v202a121.69,121.69,0,0,1-242.11,17.52h11.47a7.92,7.92,0,0,0,7.92-7.91V1748h-8.08v-18.19h-35.81V1748h-8.84v39.32a7.92,7.92,0,0,0,7.92,7.91h10.93c8.63,66.77,65.84,118.51,134.91,118.51,75,0,136-61,136-136v-202Z"/><path class="cls-16" d="M581.59,1616.26l4.31-32.71c5.68.37,16.84-7.61,23.34-16.65l30.36-48.73,33.09-44.62a20.77,20.77,0,0,0,3.87-9.7l6.27-51.14c1.35-11-6.18-20.94-16.83-22.24s-20.35,6.52-21.72,17.5l-5.61,45.74-22,29.62-1.64-1.59.23-37.66-.48-.8c3.83-45.93,9.59-81.39,33.81-125.54a16.44,16.44,0,0,0-5.93-22.09,15.59,15.59,0,0,0-21.49,6.27c-21.71,39.6-30.25,73.3-34.89,110.16-1.69,1.28-3.66,1-5.67-.21,5.64-43.7,18.51-80.15,39.09-110.63,5-7.39.46-19.37-6.68-24.44s-14.19-1.36-19.18,6c-4.12,6.14-7.94,12.45-11.54,19a16.31,16.31,0,0,0-4.72-11.47,15.45,15.45,0,0,0-22.3.39c-9.86,10.44-17.76,23.77-24,38.39a14.49,14.49,0,0,0-6-12.56,13.83,13.83,0,0,0-19.5,3.85c-8.9,13.4-19.6,31.18-23.21,49.86-3.36,17.27-2.28,33.79-.22,50.77l-4.28,106.76c1.29,21.12,6.34,31.48,15.37,42.69-1.55,11.76-2.53,23.28-3.67,34.81l-.68-.06-.09.64,75.48,8.44Zm-68.46-209.4c-1.4,3.1-3,1.87-4,.57-1-11.08-1.07-21.47.91-31.69,2.47-12.72,10.44-26.31,17.53-37.13C519.35,1361.09,514.81,1385.63,513.13,1406.86Zm35.94,3.32c-1.54,2.51-3.68,2.17-4.73,1.18,2.08-29.72,10.56-70.49,30.3-94.44C561.8,1344.45,553.34,1375.37,549.07,1410.18Z"/><path class="cls-17" d="M671.62,1347a21.71,21.71,0,0,0-23.49,19.79l-4,47.13-26.77,37.94-1.15-.71-1.91-38.08-1.59-1.81c2-45.2,7.3-81.44,32.81-129.79a17.62,17.62,0,1,0-31.16-16.44c-24,45.41-32.07,81.82-35.37,120.92-2.38,2.92-5.64,3-9,1.48,3.92-45.26,16.06-82.64,37.26-115.5a17.62,17.62,0,0,0-29.62-19.1,260.12,260.12,0,0,0-18,32.9,17.62,17.62,0,0,0-31.47-13.26c-10,13.18-17.76,28.94-23.58,45.59a15.67,15.67,0,0,0-28.88-8c-8.32,13.06-19,33.05-22.43,54.12-2.71,16.43-1.22,31.43,1.56,46.45l1.11,116.39c2.72,21,9.34,30.43,20.71,39.83-2.07,22-2,42.74-4.83,64.86-.86,6.8-8.84,15.46-9.82,22.31-3,22.14-1.13,44.27.05,66.47h89.32l32.58-68.8-1.64-38.44,5.07-53c6.76-.86,19.59-11.3,26.8-21.83l26.17-43.8L683,1434.18a21.65,21.65,0,0,0,3.89-10.67l4.55-53A21.73,21.73,0,0,0,671.62,1347ZM556,1294.13c-12.08,29.08-19.19,61.09-21.65,97.36-2.21,6.14-7.73,4.15-7,2.22-.12-.22-.53-.19-1-.07C527.15,1363.66,534.67,1322.47,556,1294.13Zm-71.8,75.18c2.51-15.21,10.53-30.52,17.13-41.1a257.68,257.68,0,0,0-10.43,68.69l0,0c-2.3,6.09-6.07.54-6.07.54s-.11.22-.3.57C483,1388.26,482.58,1378.87,484.15,1369.31Z"/><polygon class="cls-18" points="580.98 1639.65 472.49 1640.15 474.68 1599.23 583.55 1598.53 580.98 1639.65"/><polygon class="cls-19" points="624.9 1627.07 624.77 1613.23 613.8 1613.33 596.05 1613.5 596.66 1675.17 625.38 1674.88 624.9 1627.07"/><polygon class="cls-20" points="596.05 1613.5 517.76 1614.28 517.76 1614.28 596.05 1613.5"/><polygon class="cls-20" points="596.05 1613.5 517.76 1614.28 453 1614.92 453.61 1676.58 489.94 1676.23 583.59 1675.3 596.66 1675.17 596.05 1613.5"/><polygon class="cls-1" points="631.74 1674.81 625.38 1674.88 596.66 1675.17 583.59 1675.3 489.94 1676.23 453.61 1676.58 454.05 1720.52 490.32 1720.52 583.52 1720.52 597.11 1720.52 625.84 1720.52 631.93 1720.52 631.74 1674.81"/><rect class="cls-21" x="381.44" y="810.44" width="8.17" height="6.49" transform="translate(-433.24 1188.31) rotate(-89.23)"/><rect class="cls-21" x="381.69" y="793.55" width="8.17" height="6.49" transform="translate(-416.11 1171.9) rotate(-89.23)"/><path class="cls-16" d="M1096.86,1431.41a8.63,8.63,0,0,0-9-8.23l-147.84,6.3a8.62,8.62,0,0,0-8.23,9l2.29,53.69a8.57,8.57,0,0,0,1.1,3.84l24.36,63.46c.09,2.26,3.16,4,6.81,3.82l106.64-4.54c3.65-.16,6.56-2.13,6.46-4.39l18.82-65.13a8.52,8.52,0,0,0,.85-4.09Z"/><rect class="cls-16" x="932.74" y="1373.19" width="32.53" height="46.57" rx="12" ry="12"/><rect class="cls-16" x="932.74" y="1331.75" width="32.53" height="33.2" rx="12" ry="12"/><path class="cls-16" d="M965,1274a16.25,16.25,0,0,0-32,0,9.51,9.51,0,0,0-.26,2.15v38.2a9.23,9.23,0,0,0,9.21,9.2h14.11a9.23,9.23,0,0,0,9.2-9.2v-38.2A9,9,0,0,0,965,1274Z"/><polygon class="cls-22" points="865.33 1409.07 884.43 1440.26 889.31 1448.23 908.41 1479.42 914.91 1475.43 895.82 1444.25 890.93 1436.27 871.84 1405.09 865.33 1409.07"/><polygon class="cls-22" points="910.28 1487.69 936.52 1513.16 943.23 1519.67 969.47 1545.14 974.79 1539.66 948.55 1514.19 941.84 1507.68 915.6 1482.21 910.28 1487.69"/><polygon class="cls-22" points="1002.05 1505.95 1002.05 1542.52 1002.05 1551.87 1002.05 1554.58 1002.05 1588.44 1002.05 1591.15 1002.05 1600.5 1002.05 1637.07 1009.68 1637.07 1009.68 1600.5 1009.68 1591.15 1009.68 1588.44 1009.68 1554.58 1009.68 1551.87 1009.68 1542.52 1009.68 1505.95 1002.05 1505.95"/><polygon class="cls-22" points="978.5 1577.19 978.5 1595.48 978.5 1600.15 978.5 1602.44 978.5 1618.44 978.5 1620.72 978.5 1625.4 978.5 1643.68 986.14 1643.68 986.14 1625.4 986.14 1620.72 986.14 1618.44 986.14 1602.44 986.14 1600.15 986.14 1595.48 986.14 1577.19 978.5 1577.19"/><polygon class="cls-22" points="941.93 1455.24 952.52 1490.24 955.23 1499.19 956.56 1503.56 965.83 1534.19 967.15 1538.56 969.86 1547.51 980.45 1582.51 987.75 1580.3 977.16 1545.3 974.45 1536.35 973.13 1531.98 963.86 1501.34 962.54 1496.98 959.83 1488.03 949.24 1453.03 941.93 1455.24"/><polygon class="cls-22" points="1094.38 1455.24 1083.78 1490.24 1081.08 1499.19 1079.75 1503.56 1070.48 1534.19 1069.16 1538.56 1066.45 1547.51 1055.86 1582.51 1048.56 1580.3 1059.15 1545.3 1061.86 1536.35 1063.18 1531.98 1072.45 1501.34 1073.77 1496.98 1076.48 1488.03 1087.07 1453.03 1094.38 1455.24"/><polygon class="cls-22" points="1026.99 1503.87 1026.99 1540.43 1026.99 1549.79 1026.99 1556.57 1026.99 1586.35 1026.99 1593.14 1026.99 1602.49 1026.99 1639.06 1034.63 1639.06 1034.63 1602.49 1034.63 1593.14 1034.63 1586.35 1034.63 1556.57 1034.63 1549.79 1034.63 1540.43 1034.63 1503.87 1026.99 1503.87"/><polygon class="cls-22" points="1002.3 1446.08 1002.3 1482.65 1002.3 1492 1002.3 1494.71 1002.3 1528.57 1002.3 1531.28 1002.3 1540.63 1002.3 1577.19 1009.93 1577.19 1009.93 1540.63 1009.93 1531.28 1009.93 1528.57 1009.93 1494.71 1009.93 1492 1009.93 1482.65 1009.93 1446.08 1002.3 1446.08"/><polygon class="cls-22" points="1026.99 1446.08 1026.99 1482.65 1026.99 1492 1026.99 1498.78 1026.99 1528.57 1026.99 1535.35 1026.99 1544.7 1026.99 1581.27 1034.63 1581.27 1034.63 1544.7 1034.63 1535.35 1034.63 1528.57 1034.63 1498.78 1034.63 1492 1034.63 1482.65 1034.63 1446.08 1026.99 1446.08"/><path class="cls-23" d="M952.52,1396c.19.2.36.41.56.61l2.41,2.41a12.18,12.18,0,0,1,3.59,8.68v10a12.18,12.18,0,0,1-3.59,8.68l-2.07,2.07c-.32.31-.61.64-.9,1a15.24,15.24,0,0,0-1.57,2.29,14.74,14.74,0,0,0-1.77,5.41h2.67a12.27,12.27,0,0,1,.67-2.55,12,12,0,0,1,1.58-2.86,12.07,12.07,0,0,1,1.19-1.4l2.07-2.07a14.83,14.83,0,0,0,4.37-10.55v-10a14.81,14.81,0,0,0-4.37-10.55l-2.41-2.41a11.34,11.34,0,0,1-.81-.9,12,12,0,0,1-1.62-2.57c-.15-.34-.3-.68-.42-1h-2.79a15,15,0,0,0,1.6,3.59A15.94,15.94,0,0,0,952.52,1396Z"/><path class="cls-24" d="M947.82,1428.25l2.06,2.07a13.24,13.24,0,0,1,1.2,1.4,12.27,12.27,0,0,1,1.57,2.86,11.68,11.68,0,0,1,.67,2.55H956a14.92,14.92,0,0,0-1.77-5.41,15.31,15.31,0,0,0-1.58-2.29c-.28-.34-.58-.67-.89-1l-2.07-2.07a12.19,12.19,0,0,1-3.6-8.68v-10a12.19,12.19,0,0,1,3.6-8.68l2.41-2.41c.19-.2.37-.41.55-.61a14.42,14.42,0,0,0,1.61-2.16,14.63,14.63,0,0,0,1.61-3.59h-2.79c-.13.34-.27.68-.43,1a12.3,12.3,0,0,1-1.61,2.57q-.39.46-.81.9l-2.41,2.41a14.81,14.81,0,0,0-4.37,10.55v10A14.83,14.83,0,0,0,947.82,1428.25Z"/><path class="cls-23" d="M1006.15,1559.59c.18.21.36.42.55.61l2.41,2.41a12.19,12.19,0,0,1,3.6,8.68v10a12.19,12.19,0,0,1-3.6,8.68l-2.06,2.07a12,12,0,0,0-.9,1,14.29,14.29,0,0,0-1.57,2.29,14.44,14.44,0,0,0-1.77,5.4h2.67a11.68,11.68,0,0,1,.67-2.55,11.89,11.89,0,0,1,1.58-2.85,11.38,11.38,0,0,1,1.19-1.41l2.07-2.07a14.85,14.85,0,0,0,4.37-10.55v-10a14.87,14.87,0,0,0-4.37-10.55l-2.41-2.41c-.29-.29-.56-.59-.82-.9a12.3,12.3,0,0,1-1.61-2.57,9.1,9.1,0,0,1-.42-1h-2.8a14.84,14.84,0,0,0,1.61,3.59A15.14,15.14,0,0,0,1006.15,1559.59Z"/><path class="cls-24" d="M1001.44,1591.8l2.07,2.07a11.38,11.38,0,0,1,1.19,1.41,11.89,11.89,0,0,1,1.58,2.85,11.68,11.68,0,0,1,.67,2.55h2.67a14.44,14.44,0,0,0-1.77-5.4,14.29,14.29,0,0,0-1.57-2.29,12,12,0,0,0-.9-1l-2.06-2.07a12.19,12.19,0,0,1-3.6-8.68v-10a12.19,12.19,0,0,1,3.6-8.68l2.41-2.41c.19-.19.37-.4.55-.61a15.14,15.14,0,0,0,1.61-2.16,14.84,14.84,0,0,0,1.61-3.59h-2.8a9.1,9.1,0,0,1-.42,1,12.3,12.3,0,0,1-1.61,2.57c-.26.31-.53.61-.82.9l-2.41,2.41a14.87,14.87,0,0,0-4.37,10.55v10A14.85,14.85,0,0,0,1001.44,1591.8Z"/><path class="cls-23" d="M978,1560c.22.16.43.33.67.48l2.84,1.89a12.19,12.19,0,0,1,5.24,7.79l2,9.76a12.2,12.2,0,0,1-1.8,9.22l-1.62,2.44c-.24.37-.47.76-.68,1.15a14.78,14.78,0,0,0-1.75,8.2l2.62-.53a12.82,12.82,0,0,1,.15-2.63,13,13,0,0,1,1.87-4.73l1.62-2.43a14.81,14.81,0,0,0,2.18-11.21l-2-9.77a14.83,14.83,0,0,0-6.38-9.47l-2.84-1.88c-.34-.23-.67-.47-1-.72a12.43,12.43,0,0,1-2.09-2.2c-.22-.3-.43-.6-.62-.92l-2.73.56a14.68,14.68,0,0,0,2.28,3.2A15.73,15.73,0,0,0,978,1560Z"/><path class="cls-24" d="M979.81,1592.46l2.44,1.62a11.56,11.56,0,0,1,1.45,1.14,11.86,11.86,0,0,1,2.11,2.48,12.74,12.74,0,0,1,1.17,2.37l2.62-.53a15,15,0,0,0-2.81-5,14.61,14.61,0,0,0-2-1.93c-.35-.28-.7-.54-1.08-.79l-2.43-1.62a12.17,12.17,0,0,1-5.25-7.79l-2-9.76a12.21,12.21,0,0,1,1.8-9.22l1.89-2.84c.15-.23.28-.47.42-.71a15.38,15.38,0,0,0,1.15-2.43,15,15,0,0,0,.86-3.85l-2.74.56a10.28,10.28,0,0,1-.21,1.08,12.44,12.44,0,0,1-1.07,2.85c-.19.35-.4.7-.62,1l-1.88,2.84a14.8,14.8,0,0,0-2.19,11.21l2,9.76A14.82,14.82,0,0,0,979.81,1592.46Z"/><path class="cls-23" d="M1030.74,1559.59c.19.21.36.42.56.61l2.41,2.41a12.18,12.18,0,0,1,3.59,8.68v10a12.18,12.18,0,0,1-3.59,8.68l-2.07,2.07c-.32.31-.61.65-.9,1a14.29,14.29,0,0,0-1.57,2.29,14.81,14.81,0,0,0-1.77,5.4h2.67a12.93,12.93,0,0,1,.67-2.55,12.62,12.62,0,0,1,1.58-2.85,11.38,11.38,0,0,1,1.19-1.41l2.07-2.07a14.81,14.81,0,0,0,4.37-10.55v-10a14.83,14.83,0,0,0-4.37-10.55l-2.41-2.41a11.34,11.34,0,0,1-.81-.9,12,12,0,0,1-1.62-2.57q-.23-.49-.42-1h-2.79a14.81,14.81,0,0,0,1.6,3.59A15.94,15.94,0,0,0,1030.74,1559.59Z"/><path class="cls-24" d="M1026,1591.8l2.07,2.07a13.44,13.44,0,0,1,1.19,1.41,12.16,12.16,0,0,1,2.25,5.4h2.67a14.81,14.81,0,0,0-1.77-5.4,14.35,14.35,0,0,0-1.58-2.29c-.28-.34-.58-.68-.89-1l-2.07-2.07a12.19,12.19,0,0,1-3.6-8.68v-10a12.19,12.19,0,0,1,3.6-8.68l2.41-2.41c.19-.19.37-.4.55-.61a15.22,15.22,0,0,0,1.62-2.16,14.81,14.81,0,0,0,1.6-3.59h-2.79c-.13.35-.27.69-.43,1a12.3,12.3,0,0,1-1.61,2.57c-.25.31-.53.61-.81.9l-2.41,2.41a14.83,14.83,0,0,0-4.37,10.55v10A14.81,14.81,0,0,0,1026,1591.8Z"/><polygon class="cls-22" points="1050.57 1575.22 1050.57 1593.51 1050.57 1598.18 1050.57 1599.53 1050.57 1616.46 1050.57 1617.82 1050.57 1622.49 1050.57 1640.78 1058.2 1640.78 1058.2 1622.49 1058.2 1617.82 1058.2 1616.46 1058.2 1599.53 1058.2 1598.18 1058.2 1593.51 1058.2 1575.22 1050.57 1575.22"/><path class="cls-23" d="M1056.88,1561.12c.16.22.31.45.49.66l2.14,2.65a12.19,12.19,0,0,1,2.67,9l-1,9.9a12.18,12.18,0,0,1-4.48,8.26l-2.27,1.84c-.35.28-.68.58-1,.89a15,15,0,0,0-1.8,2.11,14.67,14.67,0,0,0-2.33,5.19l2.66.28a11.76,11.76,0,0,1,.93-2.46,12.84,12.84,0,0,1,3.2-4l2.27-1.84a14.81,14.81,0,0,0,5.45-10l1-9.91a14.81,14.81,0,0,0-3.24-11l-2.15-2.64c-.25-.32-.49-.65-.71-1a12.13,12.13,0,0,1-1.34-2.73c-.12-.35-.22-.7-.31-1.06l-2.78-.29a14.9,14.9,0,0,0,1.22,3.74A15.59,15.59,0,0,0,1056.88,1561.12Z"/><rect class="cls-16" x="978.03" y="1373.19" width="32.53" height="46.57" rx="12" ry="12"/><rect class="cls-16" x="1021.53" y="1373.19" width="32.53" height="46.57" rx="12" ry="12"/><rect class="cls-16" x="1064.88" y="1373.19" width="32.53" height="46.57" rx="12" ry="12"/><rect class="cls-16" x="978.03" y="1331.75" width="32.53" height="33.2" rx="12" ry="12"/><rect class="cls-16" x="1021.53" y="1331.75" width="32.53" height="33.2" rx="12" ry="12"/><rect class="cls-16" x="1064.88" y="1331.75" width="32.53" height="33.2" rx="12" ry="12"/><path class="cls-16" d="M1010.29,1274a16.24,16.24,0,0,0-32,0,9,9,0,0,0-.27,2.15v38.2a9.24,9.24,0,0,0,9.21,9.2h14.11a9.23,9.23,0,0,0,9.21-9.2v-38.2A9,9,0,0,0,1010.29,1274Z"/><path class="cls-16" d="M1053.8,1274a16.25,16.25,0,0,0-32,0,9,9,0,0,0-.26,2.15v38.2a9.23,9.23,0,0,0,9.2,9.2h14.11a9.23,9.23,0,0,0,9.21-9.2v-38.2A9.51,9.51,0,0,0,1053.8,1274Z"/><path class="cls-16" d="M1097.14,1274a16.25,16.25,0,0,0-32,0,9,9,0,0,0-.26,2.15v38.2a9.23,9.23,0,0,0,9.2,9.2h14.11a9.23,9.23,0,0,0,9.21-9.2v-38.2A9.51,9.51,0,0,0,1097.14,1274Z"/><path class="cls-24" d="M1048.83,1592.66l1.84,2.27a11.69,11.69,0,0,1,1,1.52,12,12,0,0,1,1.67,5.62l2.66.27a14.75,14.75,0,0,0-1.19-5.56,16.08,16.08,0,0,0-1.33-2.44c-.25-.37-.51-.73-.79-1.07l-1.84-2.28a12.19,12.19,0,0,1-2.67-9l1-9.91a12.24,12.24,0,0,1,4.48-8.26l2.65-2.14c.22-.18.41-.37.62-.55a15.56,15.56,0,0,0,1.83-2,15.06,15.06,0,0,0,2-3.41l-2.78-.29c-.16.33-.34.66-.53,1a12,12,0,0,1-1.87,2.39,11.34,11.34,0,0,1-.9.81l-2.65,2.15a14.83,14.83,0,0,0-5.45,10l-1,9.91A14.85,14.85,0,0,0,1048.83,1592.66Z"/><path class="cls-23" d="M923.74,1495.84c.27,0,.55,0,.82,0H928a12.18,12.18,0,0,1,8.68,3.59l7,7a12.21,12.21,0,0,1,3.6,8.68v2.93c0,.45,0,.89.06,1.33a15.48,15.48,0,0,0,.51,2.73,14.52,14.52,0,0,0,2.57,5.08l1.89-1.89a12.44,12.44,0,0,1-1.33-2.28,12.2,12.2,0,0,1-.9-3.13,12.58,12.58,0,0,1-.16-1.84v-2.93a14.83,14.83,0,0,0-4.37-10.55l-7-7a14.81,14.81,0,0,0-10.55-4.37h-3.41c-.4,0-.81,0-1.21-.06a12.37,12.37,0,0,1-3-.68,11,11,0,0,1-1-.42l-2,2a14.59,14.59,0,0,0,3.67,1.41A14.82,14.82,0,0,0,923.74,1495.84Z"/><path class="cls-24" d="M943.19,1521.94h2.92a12.57,12.57,0,0,1,1.84.15,12,12,0,0,1,3.13.91,11.32,11.32,0,0,1,2.28,1.33l1.89-1.89a14.67,14.67,0,0,0-7.81-3.08c-.44,0-.88-.07-1.33-.07h-2.92a12.18,12.18,0,0,1-8.68-3.59l-7-7a12.19,12.19,0,0,1-3.6-8.68v-3.41c0-.28,0-.55,0-.82a14.82,14.82,0,0,0-.39-2.67,14.64,14.64,0,0,0-1.4-3.68l-2,2a9.1,9.1,0,0,1,.42,1,11.48,11.48,0,0,1,.68,3,12.1,12.1,0,0,1,.06,1.21V1500a14.87,14.87,0,0,0,4.37,10.55l7,7A14.79,14.79,0,0,0,943.19,1521.94Z"/><path class="cls-25" d="M1093.23,1713H943.09c-6.29-.07-10.85-5.22-9.48-10.51l25.68-99.1c0-3.59,4.81-6.53,10.69-6.53h96.53c5.88,0,10.69,2.94,10.69,6.53l25.68,99.1c1.37,5.29-3.19,10.44-9.48,10.51Z"/><rect class="cls-25" x="968.75" y="1570.42" width="99" height="17.65" rx="6.01" ry="6.01"/><path class="cls-24" d="M950.79,1385.35l-.15-.12a12.23,12.23,0,0,1-4.61-9.59v-20.76h-2.65v20.76A14.87,14.87,0,0,0,949,1387.3l.15.12a11.92,11.92,0,0,1,1.82,1.8,14.91,14.91,0,0,1,1.63-2.18A15.18,15.18,0,0,0,950.79,1385.35Z"/><path class="cls-23" d="M956,1387.42l.15-.12a14.84,14.84,0,0,0,5.61-11.66v-20.76h-2.64v20.76a12.24,12.24,0,0,1-4.62,9.59l-.15.12a14.36,14.36,0,0,0-1.79,1.69,14.84,14.84,0,0,1,1.62,2.18A12.39,12.39,0,0,1,956,1387.42Z"/><path class="cls-23" d="M997.1,1396c.19.2.36.41.56.61l2.41,2.41a12.23,12.23,0,0,1,3.59,8.68v10a12.23,12.23,0,0,1-3.59,8.68l-2.07,2.07c-.32.31-.61.64-.9,1a15.24,15.24,0,0,0-1.57,2.29,14.74,14.74,0,0,0-1.77,5.41h2.67a12.27,12.27,0,0,1,.67-2.55,12,12,0,0,1,1.58-2.86,12.07,12.07,0,0,1,1.19-1.4l2.07-2.07a14.83,14.83,0,0,0,4.37-10.55v-10a14.81,14.81,0,0,0-4.37-10.55l-2.41-2.41c-.29-.29-.56-.59-.82-.9a12.3,12.3,0,0,1-1.61-2.57c-.15-.34-.3-.68-.42-1h-2.79a14.6,14.6,0,0,0,1.6,3.59A15.94,15.94,0,0,0,997.1,1396Z"/><path class="cls-24" d="M992.4,1428.25l2.06,2.07a13.24,13.24,0,0,1,1.2,1.4,12.27,12.27,0,0,1,1.57,2.86,11.68,11.68,0,0,1,.67,2.55h2.68a14.92,14.92,0,0,0-1.77-5.41,15.31,15.31,0,0,0-1.58-2.29,11.87,11.87,0,0,0-.9-1l-2.06-2.07a12.19,12.19,0,0,1-3.6-8.68v-10a12.19,12.19,0,0,1,3.6-8.68l2.41-2.41c.19-.2.37-.41.55-.61a14.42,14.42,0,0,0,1.61-2.16,14.63,14.63,0,0,0,1.61-3.59h-2.79c-.13.34-.27.68-.43,1a12.3,12.3,0,0,1-1.61,2.57q-.39.46-.81.9l-2.41,2.41a14.81,14.81,0,0,0-4.37,10.55v10A14.83,14.83,0,0,0,992.4,1428.25Z"/><path class="cls-24" d="M995.37,1385.35l-.15-.12a12.23,12.23,0,0,1-4.61-9.59v-20.76H988v20.76a14.87,14.87,0,0,0,5.61,11.66l.15.12a11.92,11.92,0,0,1,1.82,1.8,14.22,14.22,0,0,1,1.63-2.18A15.18,15.18,0,0,0,995.37,1385.35Z"/><path class="cls-23" d="M1000.61,1387.42l.15-.12a14.84,14.84,0,0,0,5.61-11.66v-20.76h-2.64v20.76a12.24,12.24,0,0,1-4.62,9.59l-.15.12a14.36,14.36,0,0,0-1.79,1.69,14.84,14.84,0,0,1,1.62,2.18A11.92,11.92,0,0,1,1000.61,1387.42Z"/><path class="cls-23" d="M997.23,1328.76c-.18-.21-.36-.42-.55-.61l-2.41-2.41a12.19,12.19,0,0,1-3.6-8.68v-10a12.19,12.19,0,0,1,3.6-8.68l2.06-2.07q.48-.48.9-1a14.35,14.35,0,0,0,1.58-2.29,14.81,14.81,0,0,0,1.77-5.4H997.9a11.83,11.83,0,0,1-.67,2.55,12.2,12.2,0,0,1-1.57,2.85,12.41,12.41,0,0,1-1.2,1.41l-2.06,2.07A14.81,14.81,0,0,0,988,1307.1v10a14.83,14.83,0,0,0,4.37,10.55l2.41,2.41q.42.43.81.9a12.3,12.3,0,0,1,1.61,2.57c.16.33.3.67.43,1h2.79a15.17,15.17,0,0,0-3.22-5.75Z"/><path class="cls-24" d="M1001.94,1296.55l-2.07-2.07a11.38,11.38,0,0,1-1.19-1.41,11.89,11.89,0,0,1-1.58-2.85,12.44,12.44,0,0,1-.67-2.55h-2.67a14.63,14.63,0,0,0,1.77,5.4,14.29,14.29,0,0,0,1.57,2.29c.29.34.58.67.9,1l2.07,2.07a12.23,12.23,0,0,1,3.59,8.68v10a12.23,12.23,0,0,1-3.59,8.68l-2.41,2.41c-.2.19-.37.4-.56.61a15.94,15.94,0,0,0-1.61,2.16,14.43,14.43,0,0,0-1.6,3.59h2.79c.12-.35.27-.69.42-1a12.3,12.3,0,0,1,1.61-2.57c.26-.31.53-.61.82-.9l2.41-2.41a14.83,14.83,0,0,0,4.37-10.55v-10A14.81,14.81,0,0,0,1001.94,1296.55Z"/><path class="cls-23" d="M1040.6,1396c.19.2.36.41.56.61l2.41,2.41a12.18,12.18,0,0,1,3.59,8.68v10a12.18,12.18,0,0,1-3.59,8.68l-2.07,2.07c-.32.31-.61.64-.9,1a15.24,15.24,0,0,0-1.57,2.29,14.74,14.74,0,0,0-1.77,5.41h2.67a12.27,12.27,0,0,1,.67-2.55,12,12,0,0,1,1.58-2.86,12.07,12.07,0,0,1,1.19-1.4l2.07-2.07a14.83,14.83,0,0,0,4.37-10.55v-10a14.81,14.81,0,0,0-4.37-10.55l-2.41-2.41a11.34,11.34,0,0,1-.81-.9,12,12,0,0,1-1.62-2.57c-.15-.34-.3-.68-.42-1h-2.79a14.6,14.6,0,0,0,1.6,3.59A15.94,15.94,0,0,0,1040.6,1396Z"/><path class="cls-24" d="M1035.9,1428.25l2.06,2.07a13.24,13.24,0,0,1,1.2,1.4,12.27,12.27,0,0,1,1.57,2.86,11.68,11.68,0,0,1,.67,2.55h2.68a14.92,14.92,0,0,0-1.77-5.41,15.31,15.31,0,0,0-1.58-2.29c-.28-.34-.58-.67-.89-1l-2.07-2.07a12.19,12.19,0,0,1-3.6-8.68v-10a12.19,12.19,0,0,1,3.6-8.68l2.41-2.41c.19-.2.37-.41.55-.61a14.42,14.42,0,0,0,1.61-2.16,14.63,14.63,0,0,0,1.61-3.59h-2.79c-.13.34-.27.68-.43,1a12.3,12.3,0,0,1-1.61,2.57q-.39.46-.81.9l-2.41,2.41a14.81,14.81,0,0,0-4.37,10.55v10A14.83,14.83,0,0,0,1035.9,1428.25Z"/><path class="cls-24" d="M1038.87,1385.35l-.15-.12a12.23,12.23,0,0,1-4.61-9.59v-20.76h-2.65v20.76a14.87,14.87,0,0,0,5.61,11.66l.15.12a11.92,11.92,0,0,1,1.82,1.8,14.91,14.91,0,0,1,1.63-2.18A15.18,15.18,0,0,0,1038.87,1385.35Z"/><path class="cls-23" d="M1044.11,1387.42l.15-.12a14.84,14.84,0,0,0,5.61-11.66v-20.76h-2.64v20.76a12.24,12.24,0,0,1-4.62,9.59l-.15.12a14.36,14.36,0,0,0-1.79,1.69,14.84,14.84,0,0,1,1.62,2.18A12.39,12.39,0,0,1,1044.11,1387.42Z"/><path class="cls-23" d="M1040.73,1328.76c-.18-.21-.36-.42-.55-.61l-2.41-2.41a12.19,12.19,0,0,1-3.6-8.68v-10a12.19,12.19,0,0,1,3.6-8.68l2.07-2.07c.31-.32.61-.65.89-1a14.35,14.35,0,0,0,1.58-2.29,14.81,14.81,0,0,0,1.77-5.4h-2.68a11.83,11.83,0,0,1-.67,2.55,12.2,12.2,0,0,1-1.57,2.85,12.41,12.41,0,0,1-1.2,1.41l-2.06,2.07a14.81,14.81,0,0,0-4.37,10.55v10a14.83,14.83,0,0,0,4.37,10.55l2.41,2.41q.42.43.81.9a12.3,12.3,0,0,1,1.61,2.57c.16.33.3.67.43,1H1044a15.17,15.17,0,0,0-3.22-5.75Z"/><path class="cls-24" d="M1045.44,1296.55l-2.07-2.07a11.38,11.38,0,0,1-1.19-1.41,11.89,11.89,0,0,1-1.58-2.85,12.44,12.44,0,0,1-.67-2.55h-2.67a14.63,14.63,0,0,0,1.77,5.4,14.29,14.29,0,0,0,1.57,2.29c.29.34.58.67.9,1l2.07,2.07a12.18,12.18,0,0,1,3.59,8.68v10a12.18,12.18,0,0,1-3.59,8.68l-2.41,2.41c-.2.19-.37.4-.56.61a15.94,15.94,0,0,0-1.61,2.16,14.81,14.81,0,0,0-1.6,3.59h2.79c.12-.35.27-.69.42-1a12,12,0,0,1,1.62-2.57,11.34,11.34,0,0,1,.81-.9l2.41-2.41a14.83,14.83,0,0,0,4.37-10.55v-10A14.81,14.81,0,0,0,1045.44,1296.55Z"/><path class="cls-23" d="M1083.94,1396c.19.2.36.41.56.61l2.41,2.41a12.18,12.18,0,0,1,3.59,8.68v10a12.18,12.18,0,0,1-3.59,8.68l-2.07,2.07c-.32.31-.61.64-.9,1a15.24,15.24,0,0,0-1.57,2.29,14.92,14.92,0,0,0-1.77,5.41h2.67a12.27,12.27,0,0,1,.67-2.55,12,12,0,0,1,1.58-2.86,12.07,12.07,0,0,1,1.19-1.4l2.07-2.07a14.83,14.83,0,0,0,4.37-10.55v-10a14.81,14.81,0,0,0-4.37-10.55l-2.41-2.41a11.34,11.34,0,0,1-.81-.9,12,12,0,0,1-1.62-2.57q-.23-.51-.42-1h-2.79a15,15,0,0,0,1.6,3.59A15.94,15.94,0,0,0,1083.94,1396Z"/><path class="cls-24" d="M1079.24,1428.25l2.06,2.07a13.24,13.24,0,0,1,1.2,1.4,12.27,12.27,0,0,1,1.57,2.86,11.68,11.68,0,0,1,.67,2.55h2.68a14.92,14.92,0,0,0-1.77-5.41,15.31,15.31,0,0,0-1.58-2.29c-.28-.34-.58-.67-.89-1l-2.07-2.07a12.19,12.19,0,0,1-3.6-8.68v-10a12.19,12.19,0,0,1,3.6-8.68l2.41-2.41c.19-.2.37-.41.55-.61a14.42,14.42,0,0,0,1.61-2.16,14.63,14.63,0,0,0,1.61-3.59h-2.79c-.13.34-.27.68-.43,1a12.3,12.3,0,0,1-1.61,2.57c-.25.31-.53.61-.81.9l-2.41,2.41a14.81,14.81,0,0,0-4.37,10.55v10A14.83,14.83,0,0,0,1079.24,1428.25Z"/><path class="cls-16" d="M928,1480.76l-32-55-29.92,25.07,28.66,49.29A19.23,19.23,0,0,0,928,1480.76Z"/><path class="cls-16" d="M888.57,1369.37a19.23,19.23,0,0,0-38.46-.09l-.11,47.09a19.25,19.25,0,0,0,2.6,9.71l5.95,10.24,29.92-25.07Z"/><path class="cls-24" d="M1082.21,1385.35l-.15-.12a12.23,12.23,0,0,1-4.61-9.59v-20.76h-2.65v20.76a14.87,14.87,0,0,0,5.61,11.66l.15.12a11.92,11.92,0,0,1,1.82,1.8A14.91,14.91,0,0,1,1084,1387,15.18,15.18,0,0,0,1082.21,1385.35Z"/><path class="cls-23" d="M1087.45,1387.42l.15-.12a14.84,14.84,0,0,0,5.61-11.66v-20.76h-2.64v20.76a12.21,12.21,0,0,1-4.62,9.59l-.15.12A14.36,14.36,0,0,0,1084,1387a14.84,14.84,0,0,1,1.62,2.18A12.39,12.39,0,0,1,1087.45,1387.42Z"/><path class="cls-23" d="M1084.07,1328.76c-.18-.21-.36-.42-.55-.61l-2.41-2.41a12.19,12.19,0,0,1-3.6-8.68v-10a12.19,12.19,0,0,1,3.6-8.68l2.07-2.07c.31-.32.61-.65.89-1a14.35,14.35,0,0,0,1.58-2.29,14.81,14.81,0,0,0,1.77-5.4h-2.68a11.83,11.83,0,0,1-.67,2.55,12.2,12.2,0,0,1-1.57,2.85,12.41,12.41,0,0,1-1.2,1.41l-2.06,2.07a14.81,14.81,0,0,0-4.37,10.55v10a14.83,14.83,0,0,0,4.37,10.55l2.41,2.41c.28.29.56.59.81.9a12.3,12.3,0,0,1,1.61,2.57c.16.33.3.67.43,1h2.79a15.17,15.17,0,0,0-3.22-5.75Z"/><path class="cls-24" d="M1088.78,1296.55l-2.07-2.07a11.38,11.38,0,0,1-1.19-1.41,11.89,11.89,0,0,1-1.58-2.85,12.44,12.44,0,0,1-.67-2.55h-2.67a14.81,14.81,0,0,0,1.77,5.4,14.29,14.29,0,0,0,1.57,2.29c.29.34.58.67.9,1l2.07,2.07a12.18,12.18,0,0,1,3.59,8.68v10a12.18,12.18,0,0,1-3.59,8.68l-2.41,2.41c-.2.19-.37.4-.56.61a15.94,15.94,0,0,0-1.61,2.16,14.81,14.81,0,0,0-1.6,3.59h2.79q.2-.52.42-1a12,12,0,0,1,1.62-2.57,11.34,11.34,0,0,1,.81-.9l2.41-2.41a14.83,14.83,0,0,0,4.37-10.55v-10A14.81,14.81,0,0,0,1088.78,1296.55Z"/><path class="cls-23" d="M899.47,1456.14c-.26-.08-.52-.16-.79-.22l-3.32-.78a12.16,12.16,0,0,1-7.64-5.46l-5.26-8.46a12.18,12.18,0,0,1-1.54-9.27l.66-2.85c.1-.43.18-.87.24-1.31A15.24,15.24,0,0,0,882,1425a14.8,14.8,0,0,0-1.36-5.52l-2.26,1.41a12,12,0,0,1,.77,2.52,11.85,11.85,0,0,1,.17,3.26,11.24,11.24,0,0,1-.26,1.82l-.67,2.85a14.84,14.84,0,0,0,1.87,11.27l5.26,8.45a14.81,14.81,0,0,0,9.29,6.65l3.32.77c.39.1.78.21,1.16.34a11.9,11.9,0,0,1,2.73,1.33c.31.2.61.41.9.64l2.37-1.47a14.87,14.87,0,0,0-5.77-3.19Z"/><path class="cls-24" d="M886.44,1426.31l-2.84-.66a11.67,11.67,0,0,1-1.76-.57,11.88,11.88,0,0,1-2.85-1.59,12.64,12.64,0,0,1-1.92-1.81l-2.26,1.41a14.61,14.61,0,0,0,4.36,3.66,14.8,14.8,0,0,0,2.54,1.11q.63.21,1.29.36l2.84.67a12.16,12.16,0,0,1,7.64,5.46l5.27,8.46a12.22,12.22,0,0,1,1.53,9.27l-.77,3.32c-.06.27-.1.54-.15.81a15.16,15.16,0,0,0-.23,2.68,14.68,14.68,0,0,0,.54,3.9l2.37-1.47a10.32,10.32,0,0,1-.18-1.09,12.37,12.37,0,0,1,0-3,9.58,9.58,0,0,1,.22-1.19l.77-3.32a14.84,14.84,0,0,0-1.87-11.27l-5.26-8.45A14.79,14.79,0,0,0,886.44,1426.31Z"/><path class="cls-23" d="M954.21,1389.22a14.84,14.84,0,0,0-1.62-2.18,14.91,14.91,0,0,0-1.63,2.18,12,12,0,0,1,1.63,2.55A12.37,12.37,0,0,1,954.21,1389.22Z"/><path class="cls-25" d="M1100.87,1436.61a8.63,8.63,0,0,0-8.61-8.61h-148a8.64,8.64,0,0,0-8.61,8.61v53.74a8.61,8.61,0,0,0,.94,3.88l21.63,64.43c0,2.26,3,4.11,6.65,4.11h106.73c3.66,0,6.65-1.85,6.65-4.11l21.57-64.26a8.54,8.54,0,0,0,1-4.05Z"/><path class="cls-25" d="M893.57,1369.37a19.23,19.23,0,0,0-38.45-.09l-.12,47.09a19.16,19.16,0,0,0,2.61,9.71l5.95,10.24,29.92-25.07Z"/><path class="cls-25" d="M930.78,1477l-32-55-29.91,25.07,28.65,49.29A19.23,19.23,0,0,0,930.78,1477Z"/><rect class="cls-25" x="936.32" y="1373.19" width="32.53" height="46.57" rx="12" ry="12"/><rect class="cls-25" x="980.9" y="1373.19" width="32.53" height="46.57" rx="12" ry="12"/><rect class="cls-25" x="1024.4" y="1373.19" width="32.53" height="46.57" rx="12" ry="12"/><rect class="cls-25" x="1067.74" y="1373.19" width="32.53" height="46.57" rx="12" ry="12"/><polygon class="cls-19" points="937.23 1621.19 937.36 1607.59 948.14 1607.69 965.59 1607.85 964.99 1668.46 936.76 1668.18 937.23 1621.19"/><polygon class="cls-20" points="965.59 1607.85 1042.53 1608.62 1106.17 1609.26 1105.57 1669.85 1069.87 1669.51 977.83 1668.6 964.99 1668.46 965.59 1607.85"/><polygon class="cls-1" points="930.51 1668.11 936.76 1668.18 964.99 1668.46 977.83 1668.6 1069.87 1669.51 1105.57 1669.85 1105.14 1713.04 1069.49 1713.04 977.89 1713.04 964.55 1713.04 936.31 1713.04 930.32 1713.04 930.51 1668.11"/><path class="cls-23" d="M952.65,1328.76c-.18-.21-.36-.42-.55-.61l-2.41-2.41a12.19,12.19,0,0,1-3.6-8.68v-10a12.19,12.19,0,0,1,3.6-8.68l2.07-2.07c.31-.32.61-.65.89-1a14.35,14.35,0,0,0,1.58-2.29,14.81,14.81,0,0,0,1.77-5.4h-2.68a11.83,11.83,0,0,1-.67,2.55,12.2,12.2,0,0,1-1.57,2.85,12.41,12.41,0,0,1-1.2,1.41l-2.06,2.07a14.81,14.81,0,0,0-4.37,10.55v10a14.83,14.83,0,0,0,4.37,10.55l2.41,2.41q.42.43.81.9a12.3,12.3,0,0,1,1.61,2.57c.16.33.3.67.43,1h2.79a15.17,15.17,0,0,0-3.22-5.75Z"/><path class="cls-24" d="M957.36,1296.55l-2.07-2.07a11.38,11.38,0,0,1-1.19-1.41,11.89,11.89,0,0,1-1.58-2.85,12.44,12.44,0,0,1-.67-2.55h-2.67a14.63,14.63,0,0,0,1.77,5.4,14.29,14.29,0,0,0,1.57,2.29c.29.34.58.67.9,1l2.07,2.07a12.18,12.18,0,0,1,3.59,8.68v10a12.18,12.18,0,0,1-3.59,8.68l-2.41,2.41c-.2.19-.37.4-.56.61a15.94,15.94,0,0,0-1.61,2.16,14.81,14.81,0,0,0-1.6,3.59h2.79c.12-.35.27-.69.42-1a12,12,0,0,1,1.62-2.57,11.34,11.34,0,0,1,.81-.9l2.41-2.41a14.83,14.83,0,0,0,4.37-10.55v-10A14.81,14.81,0,0,0,957.36,1296.55Z"/><rect class="cls-25" x="936.32" y="1331.75" width="32.53" height="33.2" rx="12" ry="12"/><rect class="cls-25" x="980.9" y="1331.75" width="32.53" height="33.2" rx="12" ry="12"/><rect class="cls-25" x="1024.4" y="1331.75" width="32.53" height="33.2" rx="12" ry="12"/><rect class="cls-25" x="1067.74" y="1331.75" width="32.53" height="33.2" rx="12" ry="12"/><path class="cls-25" d="M968.58,1274a16.24,16.24,0,0,0-32,0,9,9,0,0,0-.27,2.15v38.2a9.24,9.24,0,0,0,9.21,9.2h14.11a9.23,9.23,0,0,0,9.21-9.2v-38.2A9,9,0,0,0,968.58,1274Z"/><path class="cls-25" d="M1013.16,1274a16.24,16.24,0,0,0-32,0,9,9,0,0,0-.27,2.15v38.2a9.24,9.24,0,0,0,9.21,9.2h14.11a9.23,9.23,0,0,0,9.21-9.2v-38.2A9,9,0,0,0,1013.16,1274Z"/><path class="cls-25" d="M1056.66,1274a16.24,16.24,0,0,0-32,0,9,9,0,0,0-.27,2.15v38.2a9.24,9.24,0,0,0,9.21,9.2h14.11a9.23,9.23,0,0,0,9.21-9.2v-38.2A9,9,0,0,0,1056.66,1274Z"/><path class="cls-25" d="M1100,1274a16.25,16.25,0,0,0-32,0,9,9,0,0,0-.27,2.15v38.2a9.24,9.24,0,0,0,9.21,9.2h14.11a9.23,9.23,0,0,0,9.21-9.2v-38.2A9.51,9.51,0,0,0,1100,1274Z"/><circle class="cls-22" cx="874.29" cy="1409.26" r="5.76"/><circle class="cls-22" cx="891.59" cy="1444.11" r="5.76"/><circle class="cls-22" cx="919.97" cy="1489.33" r="5.76"/><circle class="cls-22" cx="952.59" cy="1409.23" r="5.76"/><circle class="cls-22" cx="952.59" cy="1384.21" r="5.76"/><circle class="cls-22" cx="952.59" cy="1307.08" r="5.76"/><circle class="cls-22" cx="952.59" cy="1282.07" r="5.76"/><circle class="cls-22" cx="952.59" cy="1348.35" r="5.76"/><circle class="cls-22" cx="997.17" cy="1409.23" r="5.76"/><circle class="cls-22" cx="997.17" cy="1384.21" r="5.76"/><circle class="cls-22" cx="997.17" cy="1307.08" r="5.76"/><circle class="cls-22" cx="997.17" cy="1282.07" r="5.76"/><circle class="cls-22" cx="997.17" cy="1348.35" r="5.76"/><circle class="cls-22" cx="1040.59" cy="1409.23" r="5.76"/><circle class="cls-22" cx="1040.59" cy="1384.21" r="5.76"/><circle class="cls-22" cx="1040.59" cy="1307.08" r="5.76"/><circle class="cls-22" cx="1040.59" cy="1282.07" r="5.76"/><circle class="cls-22" cx="1040.59" cy="1348.35" r="5.76"/><circle class="cls-22" cx="1084.01" cy="1409.23" r="5.76"/><circle class="cls-22" cx="1084.01" cy="1384.21" r="5.76"/><circle class="cls-22" cx="1084.01" cy="1307.08" r="5.76"/><circle class="cls-22" cx="1084.01" cy="1282.07" r="5.76"/><circle class="cls-22" cx="1084.01" cy="1348.35" r="5.76"/><path class="cls-26" d="M1092.11,1428h-36.66v58.85L1033,1562.77h38.47c3.65,0,6.65-1.85,6.65-4.11l21.57-64.26a8.54,8.54,0,0,0,1-4.05v-53.74A8.63,8.63,0,0,0,1092.11,1428Z"/><circle class="cls-22" cx="952.58" cy="1451.28" r="6.68"/><circle class="cls-22" cx="997.17" cy="1451.28" r="6.68"/><circle class="cls-22" cx="1040.67" cy="1451.28" r="6.68"/><circle class="cls-22" cx="973.96" cy="1549.19" r="6.68"/><circle class="cls-22" cx="1061.06" cy="1549.19" r="6.68"/><circle class="cls-22" cx="1084.01" cy="1451.28" r="6.68"/><rect class="cls-21" x="1022.76" y="1737.7" width="8.03" height="6.38" transform="translate(2053.56 3481.79) rotate(-180)"/><rect class="cls-21" x="1006.17" y="1737.68" width="8.03" height="6.38" transform="translate(2020.36 3481.74) rotate(-180)"/><path class="cls-3" d="M693.77,276.9V250.73l56.17-23.83v26.16l-31,10.84,31,10.83V300.9Z"/><path class="cls-3" d="M785.94,332.07l40.17-136.34h20.17l-40,136.34Z"/><path class="cls-3" d="M882.44,274.73l31-10.83-31-10.84V226.9l56.18,23.83V276.9l-56.18,24Z"/></svg>